<?xml version="1.0" encoding="UTF-8"?>
<svg width="220px" height="48px" viewBox="0 0 220 48" version="1.1" xmlns="http://www.w3.org/2000/svg" xmlns:xlink="http://www.w3.org/1999/xlink">
    <!-- Generator: Sketch 45.2 (43514) - http://www.bohemiancoding.com/sketch -->
    <title>benessere-channel-logo</title>
    <desc>Created with Sketch.</desc>
    <defs></defs>
    <g id="Page-1" stroke="none" stroke-width="1" fill="none" fill-rule="evenodd">
        <g id="benessere-channel-logo" fill="#FFFFFF">
            <path d="M4,9.54465593 L6.13355698,9.54465593 L9.82283258,27.1551977 C10.1487943,28.7891736 10.4821592,30.4155605 10.8229374,32.034407 C11.1637156,33.6532536 11.4970805,35.2796404 11.8230422,36.9136164 L12.0008387,36.9136164 C12.3564333,35.2796404 12.7194307,33.6532536 13.0898417,32.034407 C13.4602528,30.4155605 13.8528826,28.7891736 14.2677429,27.1551977 L18.8460006,9.54465593 L20.9351085,9.54465593 L25.5133662,27.1551977 C25.9282266,28.7891736 26.3208564,30.4155605 26.6912674,32.034407 C27.0616785,33.6532536 27.4543083,35.2796404 27.8691687,36.9136164 L28.0469651,36.9136164 C28.3729268,35.2796404 28.6914755,33.6532536 29.0026208,32.034407 C29.3137661,30.4155605 29.6323148,28.7891736 29.9582765,27.1551977 L33.6475522,9.54465593 L35.6477618,9.54465593 L29.1137436,39.4553441 L26.8468393,39.4553441 L21.5129468,18.9399707 C21.2462509,17.759877 20.9795589,16.6327531 20.712863,15.5585652 C20.446167,14.4843773 20.1942913,13.3572533 19.9572282,12.1771596 L19.7794318,12.1771596 C19.5423687,13.3572533 19.2756768,14.4843773 18.9793479,15.5585652 C18.6830191,16.6327531 18.4015109,17.759877 18.134815,18.9399707 L12.8898207,39.4553441 L10.6673656,39.4553441 L4,9.54465593 Z M44.070867,9.54465593 L60.1169934,9.54465593 L60.1169934,11.3601757 L46.1155257,11.3601757 L46.1155257,22.6617862 L57.8500891,22.6617862 L57.8500891,24.477306 L46.1155257,24.477306 L46.1155257,37.6398243 L60.5614844,37.6398243 L60.5614844,39.4553441 L44.070867,39.4553441 L44.070867,9.54465593 Z M69.7402243,9.54465593 L71.7848831,9.54465593 L71.7848831,37.6398243 L85.2974106,37.6398243 L85.2974106,39.4553441 L69.7402243,39.4553441 L69.7402243,9.54465593 Z M93.2760247,9.54465593 L95.3206835,9.54465593 L95.3206835,37.6398243 L108.833211,37.6398243 L108.833211,39.4553441 L93.2760247,39.4553441 L93.2760247,9.54465593 Z M116.811825,9.54465593 L118.945382,9.54465593 L131.302233,30.6500732 L134.591467,36.5959004 L134.769263,36.5959004 L134.591467,32.238653 C134.532201,30.7862299 134.502568,29.3338286 134.502568,27.8814056 L134.502568,9.54465593 L136.458329,9.54465593 L136.458329,39.4553441 L134.324772,39.4553441 L121.967921,18.3499268 L118.678687,12.4040996 L118.500891,12.4040996 C118.560157,13.8565226 118.619422,15.271101 118.678687,16.647877 C118.737953,18.0246531 118.767586,19.4392314 118.767586,20.8916545 L118.767586,39.4553441 L116.811825,39.4553441 L116.811825,9.54465593 Z M147.859524,9.54465593 L163.90565,9.54465593 L163.90565,11.3601757 L149.904183,11.3601757 L149.904183,22.6617862 L161.638746,22.6617862 L161.638746,24.477306 L149.904183,24.477306 L149.904183,37.6398243 L164.350142,37.6398243 L164.350142,39.4553441 L147.859524,39.4553441 L147.859524,9.54465593 Z M172.59545,34.0541728 C173.662234,35.2947841 174.936429,36.2781808 176.418073,37.0043924 C177.899717,37.7306039 179.485053,38.0937042 181.174127,38.0937042 C183.426226,38.0937042 185.204173,37.5414892 186.50802,36.4370425 C187.811867,35.3325957 188.46378,33.887759 188.46378,32.102489 C188.46378,31.1644658 188.323026,30.3777484 188.041514,29.7423133 C187.760001,29.1068782 187.382188,28.5546632 186.908062,28.0856515 C186.433935,27.6166399 185.878327,27.2081521 185.24122,26.8601757 C184.604113,26.5121993 183.929975,26.1717928 183.218786,25.8389458 L178.773876,23.7964861 C178.121952,23.5241568 177.447814,23.1913148 176.751441,22.7979502 C176.055069,22.4045856 175.417971,21.9128873 174.84013,21.3228404 C174.262289,20.7327935 173.780762,20.0368513 173.395534,19.2349927 C173.010307,18.4331341 172.817696,17.4724312 172.817696,16.3528551 C172.817696,15.2635377 173.032531,14.2725764 173.462208,13.3799414 C173.891885,12.4873064 174.484533,11.7157182 175.240172,11.0651537 C175.99581,10.4145892 176.8996,9.9077617 177.951567,9.54465593 C179.003535,9.18155016 180.136975,9 181.351924,9 C183.129897,9 184.707824,9.35553573 186.085753,10.0666179 C187.463682,10.7777 188.597123,11.6173695 189.48611,12.5856515 L188.330433,13.9926794 C187.471079,13.0546561 186.463576,12.3057617 185.307894,11.7459736 C184.152211,11.1861856 182.833568,10.9062958 181.351924,10.9062958 C179.396153,10.9062958 177.825634,11.3904295 176.640319,12.3587116 C175.455003,13.3269936 174.862355,14.6281031 174.862355,16.2620791 C174.862355,17.1395847 175.025333,17.8809145 175.351295,18.4860908 C175.677256,19.0912671 176.092111,19.6132238 176.59587,20.0519766 C177.099629,20.4907294 177.647829,20.8689589 178.240486,21.1866764 C178.833144,21.504394 179.39616,21.7842838 179.929552,22.0263543 L184.374463,24.0234261 C185.204183,24.3865318 185.989443,24.7950197 186.730265,25.2489019 C187.471087,25.7027841 188.123001,26.2323054 188.686026,26.8374817 C189.249051,27.442658 189.700945,28.161294 190.041723,28.9934114 C190.382502,29.8255288 190.552888,30.8164901 190.552888,31.966325 C190.552888,33.11616 190.330645,34.1827672 189.886152,35.1661786 C189.441658,36.1495901 188.811969,36.9968242 187.997065,37.7079063 C187.18216,38.4189884 186.196882,38.9787681 185.041199,39.3872621 C183.885517,39.7957561 182.596506,40 181.174127,40 C179.04056,40 177.144083,39.5839475 175.484642,38.7518302 C173.8252,37.9197128 172.41766,36.8379764 171.261977,35.5065886 L172.59545,34.0541728 Z M198.042562,34.0541728 C199.109346,35.2947841 200.383541,36.2781808 201.865185,37.0043924 C203.346829,37.7306039 204.932165,38.0937042 206.621239,38.0937042 C208.873338,38.0937042 210.651285,37.5414892 211.955132,36.4370425 C213.258978,35.3325957 213.910892,33.887759 213.910892,32.102489 C213.910892,31.1644658 213.770138,30.3777484 213.488626,29.7423133 C213.207113,29.1068782 212.8293,28.5546632 212.355173,28.0856515 C211.881047,27.6166399 211.325439,27.2081521 210.688332,26.8601757 C210.051225,26.5121993 209.377087,26.1717928 208.665898,25.8389458 L204.220988,23.7964861 C203.569064,23.5241568 202.894926,23.1913148 202.198553,22.7979502 C201.502181,22.4045856 200.865083,21.9128873 200.287242,21.3228404 C199.709401,20.7327935 199.227873,20.0368513 198.842646,19.2349927 C198.457418,18.4331341 198.264808,17.4724312 198.264808,16.3528551 C198.264808,15.2635377 198.479643,14.2725764 198.90932,13.3799414 C199.338996,12.4873064 199.931645,11.7157182 200.687284,11.0651537 C201.442922,10.4145892 202.346712,9.9077617 203.398679,9.54465593 C204.450646,9.18155016 205.584087,9 206.799036,9 C208.577009,9 210.154936,9.35553573 211.532865,10.0666179 C212.910794,10.7777 214.044235,11.6173695 214.933222,12.5856515 L213.777545,13.9926794 C212.918191,13.0546561 211.910688,12.3057617 210.755006,11.7459736 C209.599323,11.1861856 208.28068,10.9062958 206.799036,10.9062958 C204.843265,10.9062958 203.272746,11.3904295 202.087431,12.3587116 C200.902115,13.3269936 200.309466,14.6281031 200.309466,16.2620791 C200.309466,17.1395847 200.472445,17.8809145 200.798407,18.4860908 C201.124368,19.0912671 201.539222,19.6132238 202.042981,20.0519766 C202.54674,20.4907294 203.094941,20.8689589 203.687598,21.1866764 C204.280256,21.504394 204.843272,21.7842838 205.376664,22.0263543 L209.821575,24.0234261 C210.651295,24.3865318 211.436555,24.7950197 212.177377,25.2489019 C212.918199,25.7027841 213.570113,26.2323054 214.133138,26.8374817 C214.696162,27.442658 215.148057,28.161294 215.488835,28.9934114 C215.829613,29.8255288 216,30.8164901 216,31.966325 C216,33.11616 215.777757,34.1827672 215.333263,35.1661786 C214.88877,36.1495901 214.259081,36.9968242 213.444177,37.7079063 C212.629272,38.4189884 211.643994,38.9787681 210.488311,39.3872621 C209.332629,39.7957561 208.043618,40 206.621239,40 C204.487671,40 202.591195,39.5839475 200.931754,38.7518302 C199.272312,37.9197128 197.864771,36.8379764 196.709089,35.5065886 L198.042562,34.0541728 Z" id="Benessere"></path>
        </g>
    </g>
</svg>