<?xml version="1.0" encoding="UTF-8"?>
<svg width="130px" height="48px" viewBox="0 0 130 48" version="1.1" xmlns="http://www.w3.org/2000/svg" xmlns:xlink="http://www.w3.org/1999/xlink">
    <!-- Generator: Sketch 50.2 (55047) - http://www.bohemiancoding.com/sketch -->
    <title>best-channel-logo </title>
    <desc>Created with Sketch.</desc>
    <defs></defs>
    <g id="best-channel-logo-" stroke="none" stroke-width="1" fill="none" fill-rule="evenodd">
        <path d="M4,43.2634561 L4.17149143,42.3569405 L5.71491434,41.9603399 C7.94430298,41.3937677 8.34444966,41.223796 8.97325158,37.5410765 L13.9465032,9.7223796 C14.5753051,6.26628895 14.3466498,5.86968839 12.2887526,5.30311615 L10.8596574,4.90651558 L10.973985,4 L30.2381894,4 C39.5558906,4 44.2433231,6.83286119 44.2433231,12.4985836 C44.2433231,18.1643059 40.2990202,21.3371105 32.9820523,22.4135977 L32.9820523,22.5835694 C39.1557439,23.4334278 42.9857193,25.8696884 42.9857193,31.3087819 C42.9857193,38.7875354 36.6977,43.2634561 25.3221016,43.2634561 L4,43.2634561 Z M24.0644978,41.5637394 C27.7229817,41.5637394 30.7526637,36.5779037 30.7526637,28.7025496 C30.7526637,25.0764873 29.0949131,23.4334278 25.2649378,23.4334278 L23.7215149,23.4334278 L21.2063072,37.6543909 C20.6918329,40.8271955 21.6064539,41.5637394 24.0644978,41.5637394 Z M24.0644978,21.7903683 L25.5507568,21.7903683 C30.0666979,21.7903683 32.6962333,18.7308782 32.6962333,10.572238 C32.6962333,7.17280453 31.4386294,5.81303116 28.8662579,5.81303116 C28.0088007,5.81303116 27.4943264,5.92634561 26.8083607,6.09631728 L24.0644978,21.7903683 Z M57.3189236,44 C50.0019557,44 46.5149632,39.7507082 46.5149632,33.6883853 C46.5149632,22.0169972 56.6901216,12.8385269 65.9506591,12.8385269 C71.8385316,12.8385269 75.3826879,15.2747875 75.3826879,19.0708215 C75.3826879,24.509915 69.2661601,27.0028329 57.8905617,28.815864 C57.7762341,30.0056657 57.7190702,31.2521246 57.7190702,32.4419263 C57.7190702,37.4844193 59.4339846,39.3541076 62.4065028,39.3541076 C65.4361848,39.3541076 67.8370648,38.1643059 70.7524192,35.5014164 L71.4955488,36.1813031 C69.2089963,39.6373938 64.6930552,44 57.3189236,44 Z M64.6358914,14.3116147 C62.0635199,14.3116147 58.9195103,20.2606232 58.0048893,27.6260623 C60.6915884,26.776204 62.8638133,25.9263456 64.1785809,24.3966006 C65.6076762,22.8668555 66.3508057,20.0906516 66.3508057,17.427762 C66.3508057,15.1614731 65.7791676,14.3116147 64.6358914,14.3116147 Z M86.6862102,43.9433428 C78.9690957,43.9433428 75.7679222,41.3371105 75.7679222,37.9376771 C75.7679222,35.8413598 77.1970175,34.3116147 79.4264062,34.3116147 C82.3989244,34.3116147 83.7708558,35.6713881 84.5139854,39.7507082 C84.9141321,41.733711 85.7715892,42.470255 87.657995,42.470255 C90.1160389,42.470255 91.6594618,40.6005666 91.6594618,38.3342776 C91.6594618,36.2946176 90.4018579,34.9348442 86.0002445,32.4985836 C80.9698291,29.7790368 78.6261128,26.8328612 78.6261128,22.9235127 C78.6261128,16.8611898 84.3424939,12.8385269 91.2021513,12.8385269 C98.0618086,12.8385269 101.491637,15.3314448 101.491637,18.3342776 C101.491637,20.5439093 100.17687,21.9603399 97.947481,21.9603399 C95.7180924,21.9603399 94.2318333,20.8838527 93.3743761,17.2577904 C92.9742294,15.2747875 91.9452808,14.2549575 90.4018579,14.2549575 C88.1153055,14.2549575 86.743374,16.0113314 86.743374,17.9943343 C86.743374,20.2606232 87.8294864,21.1104816 93.6601952,24.3399433 C98.0618086,26.8895184 100.17687,29.1558074 100.17687,33.2351275 C100.17687,38.8441926 95.1464543,43.9433428 86.6862102,43.9433428 Z M109.479659,44 C106.04983,44 104.10626,42.1303116 104.10626,39.3541076 C104.10626,38.1643059 104.277752,36.8611898 104.677898,35.0481586 L108.336382,16.6345609 L104.620735,16.6345609 L104.792226,15.9546742 L109.136676,13.8016997 L110.279952,8.92917847 L120.169291,5.41643059 L121.65555,5.41643059 L119.826308,13.7450425 L126,13.7450425 L125.028215,16.6345609 L119.083179,16.6345609 L115.253203,36.1246459 C115.19604,36.5212465 115.19604,37.0311615 115.19604,37.2577904 C115.19604,39.2974504 116.910954,39.2974504 120.340783,36.7478754 L121.598387,35.8413598 L122.341516,36.7478754 C118.511541,41.0538244 114.281419,44 109.479659,44 Z" id="Best" fill="#FFFFFF"></path>
    </g>
</svg>