<?xml version="1.0" encoding="UTF-8"?>
<svg width="208px" height="48px" viewBox="0 0 208 48" version="1.1" xmlns="http://www.w3.org/2000/svg" xmlns:xlink="http://www.w3.org/1999/xlink">
    <!-- Generator: Sketch 45.2 (43514) - http://www.bohemiancoding.com/sketch -->
    <title>donna-channel-logo </title>
    <desc>Created with Sketch.</desc>
    <defs></defs>
    <g id="Page-1" stroke="none" stroke-width="1" fill="none" fill-rule="evenodd">
        <g id="donna-channel-logo-" fill="#FFFFFF">
            <path d="M4,43.3191489 L4.16997167,42.4113475 L4.62322946,42.2411348 C6.94617564,41.3333333 6.83286119,41.2765957 7.62606232,37.4184397 L12.4419263,10.070922 C13.0651558,6.04255319 13.121813,5.9858156 11.1388102,5.07801418 L10.7422096,4.90780142 L10.9121813,4 L31.6487252,4 C45.3031161,4 51.3654391,9.04964539 51.3654391,20.6808511 C51.3654391,34.6950355 40.9971671,43.3191489 26.7195467,43.3191489 L4,43.3191489 Z M26.1529745,41.5035461 C30.9688385,41.5035461 34.5949008,23.0070922 34.5949008,12.1702128 C34.5949008,7.46099291 34.0283286,5.87234043 31.592068,5.87234043 C30.9688385,5.87234043 30.7422096,5.9858156 30.3456091,6.15602837 L24.9631728,37.248227 C24.3399433,40.4822695 24.8498584,41.5035461 26.1529745,41.5035461 Z M66.8895184,42.4113475 C68.0226629,42.4113475 68.9858357,41.0496454 69.7790368,38.3262411 C71.592068,32.0851064 73.1784703,20.964539 73.1784703,17.9574468 C73.1784703,15.2340426 72.8951841,14.212766 71.7053824,14.212766 C70.7422096,14.212766 70.0623229,15.2340426 69.2124646,17.6737589 C67.2294618,23.6879433 65.5864023,35.7730496 65.5864023,38.7801418 C65.5864023,41.106383 65.7563739,42.4113475 66.8895184,42.4113475 Z M66.9461756,44 C57.5977337,44 51.4787535,38.6666667 51.4787535,30.6666667 C51.4787535,19.6028369 60.2606232,12.6241135 71.592068,12.6241135 C82.0169972,12.6241135 87.5127479,18.4113475 87.5127479,25.9007092 C87.5127479,37.0780142 78.9008499,44 66.9461756,44 Z M125.303116,24.141844 C125.926346,21.248227 126.209632,19.4893617 126.209632,17.9007092 C126.209632,14.7801418 124.056657,12.7375887 120.487252,12.7375887 C115.274788,12.7375887 109.892351,16.2553191 106.549575,21.0212766 L106.436261,21.0212766 C106.606232,20.1702128 106.719547,18.751773 106.719547,17.4468085 C106.719547,14.893617 104.963173,12.7375887 101.507082,12.7375887 C96.1813031,12.7375887 91.9320113,16.0283688 88.4192635,19.5460993 L89.0424929,20.3404255 L89.5524079,20 C91.4220963,18.6950355 92.2152975,19.3758865 92.2152975,20.5106383 C92.2152975,21.0212766 92.1586402,21.248227 92.101983,21.6453901 L87.6827195,43.3191489 L102.356941,43.3191489 L106.492918,22.893617 C107.229462,21.8723404 108.70255,20.1702128 109.949008,20.1702128 C110.912181,20.1702128 111.195467,21.0780142 110.685552,23.5177305 L108.249292,35.0921986 C107.739377,37.3617021 107.626062,38.3262411 107.626062,39.177305 C107.626062,41.8439716 109.155807,44 113.065156,44 C117.654391,44 122.356941,41.787234 126.209632,38.212766 L125.643059,37.3617021 L125.01983,37.7021277 C123.490085,38.5531915 122.413598,38.5531915 122.413598,37.5886525 C122.413598,37.1347518 122.470255,36.5106383 122.640227,35.8297872 L125.303116,24.141844 Z M164.169972,24.141844 C164.793201,21.248227 165.076487,19.4893617 165.076487,17.9007092 C165.076487,14.7801418 162.923513,12.7375887 159.354108,12.7375887 C154.141643,12.7375887 148.759207,16.2553191 145.416431,21.0212766 L145.303116,21.0212766 C145.473088,20.1702128 145.586402,18.751773 145.586402,17.4468085 C145.586402,14.893617 143.830028,12.7375887 140.373938,12.7375887 C135.048159,12.7375887 130.798867,16.0283688 127.286119,19.5460993 L127.909348,20.3404255 L128.419263,20 C130.288952,18.6950355 131.082153,19.3758865 131.082153,20.5106383 C131.082153,21.0212766 131.025496,21.248227 130.968839,21.6453901 L126.549575,43.3191489 L141.223796,43.3191489 L145.359773,22.893617 C146.096317,21.8723404 147.569405,20.1702128 148.815864,20.1702128 C149.779037,20.1702128 150.062323,21.0780142 149.552408,23.5177305 L147.116147,35.0921986 C146.606232,37.3617021 146.492918,38.3262411 146.492918,39.177305 C146.492918,41.8439716 148.022663,44 151.932011,44 C156.521246,44 161.223796,41.787234 165.076487,38.212766 L164.509915,37.3617021 L163.886686,37.7021277 C162.356941,38.5531915 161.280453,38.5531915 161.280453,37.5886525 C161.280453,37.1347518 161.33711,36.5106383 161.507082,35.8297872 L164.169972,24.141844 Z M181.96034,37.248227 C182.866856,37.248227 183.546742,36.6241135 184.169972,35.5460993 L188.419263,15.2907801 C188.249292,14.4397163 187.796034,14.0425532 187.116147,14.0425532 C184.169972,14.0425532 180.31728,26.8652482 180.31728,34.4680851 C180.31728,36.2269504 180.827195,37.248227 181.96034,37.248227 Z M184.169972,37.7021277 L184,37.7021277 C181.733711,40.9929078 178.220963,44 173.348442,44 C168.532578,44 165.756374,40.5957447 165.756374,35.3191489 C165.756374,22.2695035 174.82153,12.4539007 187.512748,12.4539007 C191.76204,12.4539007 195.161473,13.4751773 197.597734,15.4609929 L197.824363,15.4609929 L203.320113,12.7375887 L204,12.964539 C203.716714,13.8156028 203.376771,14.7234043 203.093484,15.7446809 C202.583569,17.5035461 201.903683,20 201.280453,22.9503546 L198.844193,35.4326241 C198.674221,36.0567376 198.617564,36.6808511 198.617564,37.1347518 C198.617564,38.2695035 199.354108,38.7801418 201.223796,37.7021277 L201.847025,37.3617021 L202.413598,38.212766 C198.390935,42.0141844 194.424929,44 189.72238,44 C186.096317,44 184.113314,42.0141844 184.113314,38.8368794 C184.113314,38.3829787 184.113314,38.212766 184.169972,37.7021277 Z" id="Donna"></path>
        </g>
    </g>
</svg>