<?xml version="1.0" encoding="UTF-8"?>
<svg width="277px" height="48px" viewBox="0 0 277 48" version="1.1" xmlns="http://www.w3.org/2000/svg" xmlns:xlink="http://www.w3.org/1999/xlink">
    <!-- Generator: Sketch 52.2 (67145) - http://www.bohemiancoding.com/sketch -->
    <title>prezzogiusto-channel-logo</title>
    <desc>Created with Sketch.</desc>
    <g id="prezzogiusto-channel-logo" stroke="none" stroke-width="1" fill="none" fill-rule="evenodd">
        <g id="brand" transform="translate(4.000000, 4.000000)">
            <path d="M52.0179864,16.5824756 C52.5875573,16.0975956 52.8719416,15.4068515 52.8719416,14.5094438 C52.8719416,13.6132353 52.5875573,12.9176943 52.0179864,12.4236204 C51.4484156,11.9291468 50.6040871,11.6821098 49.4841985,11.6821098 L46.4542422,11.6821098 L46.4542422,17.3095957 L49.4841985,17.3095957 C50.6040871,17.3095957 51.4484156,17.0673555 52.0179864,16.5824756 Z M54.3596445,8.26436552 C55.6447888,8.84118482 56.6367244,9.66464134 57.3342481,10.7351348 C58.032574,11.806028 58.3811353,13.0643975 58.3811353,14.5094438 C58.3811353,15.9556892 58.032574,17.2092619 57.3342481,18.2709612 C56.6367244,19.3322607 55.6447888,20.1513201 54.3596445,20.72734 C53.0745002,21.3041593 51.5587198,21.5919693 49.81471,21.5919693 L46.4542422,21.5919693 L46.4542422,26.6158535 L41,26.6158535 L41,7.39973617 L49.81471,7.39973617 C51.5587198,7.39973617 53.0745002,7.68834569 54.3596445,8.26436552 Z M72.4748042,12.4232207 C71.9052334,11.9291468 71.0609048,11.6821098 69.9410163,11.6821098 L66.9106589,11.6821098 L66.9106589,17.3095957 L69.9410163,17.3095957 C71.0609048,17.3095957 71.9052334,17.0669558 72.4748042,16.5820758 C73.0439739,16.0971959 73.3287593,15.4064517 73.3287593,14.5094438 C73.3287593,13.6132353 73.0439739,12.9172946 72.4748042,12.4232207 Z M69.8856636,21.5096236 L66.9106589,21.5096236 L66.9106589,26.6154538 L61.4564166,26.6154538 L61.4564166,7.39973617 L70.2711267,7.39973617 C72.0155376,7.39973617 73.5305157,7.68794596 74.8164622,8.26436552 C76.1012054,8.84078508 77.0931411,9.66464134 77.7910659,10.7347351 C78.4885896,11.8056283 78.8379531,13.0643975 78.8379531,14.5094438 C78.8379531,15.9005257 78.5118537,17.1129255 77.8600562,18.1466432 C77.2082586,19.1807607 76.2760877,19.9910259 75.0643459,20.5762397 L79.2234162,26.6154538 L73.384112,26.6154538 L69.8856636,21.5096236 Z M97.3935274,22.4154258 L97.3935274,26.6154538 L81.9128333,26.6154538 L81.9128333,7.39973617 L97.0353396,7.39973617 L97.0353396,11.5997642 L87.3117229,11.5997642 L87.3117229,14.8392261 L95.8785493,14.8392261 L95.8785493,18.9017448 L87.3117229,18.9017448 L87.3117229,22.4154258 L97.3935274,22.4154258 Z M116.832739,22.3058981 L116.832739,26.6154538 L99.5615065,26.6154538 L99.5615065,23.2121 L109.285123,11.7096916 L99.8097912,11.7096916 L99.8097912,7.39973617 L116.419198,7.39973617 L116.419198,10.8038894 L106.695983,22.3058981 L116.832739,22.3058981 Z M135.283624,22.3058981 L135.283624,26.6154538 L118.012392,26.6154538 L118.012392,23.2121 L127.736009,11.7096916 L118.260677,11.7096916 L118.260677,7.39973617 L134.870084,7.39973617 L134.870084,10.8038894 L125.146868,22.3058981 L135.283624,22.3058981 Z M150.224028,21.7962345 C151.013405,21.3389363 151.637527,20.6937621 152.097194,19.8607119 C152.555659,19.0284612 152.785894,18.072692 152.785894,16.9922051 C152.785894,15.9125177 152.555659,14.9567485 152.097194,14.1236984 C151.637527,13.2910479 151.013405,12.6458737 150.224028,12.1881758 C149.43425,11.7308776 148.552619,11.5018288 147.579535,11.5018288 C146.60605,11.5018288 145.72482,11.7308776 144.935443,12.1881758 C144.145665,12.6458737 143.520741,13.2910479 143.062277,14.1236984 C142.60301,14.9567485 142.373578,15.9125177 142.373578,16.9922051 C142.373578,18.072692 142.60301,19.0284612 143.062277,19.8607119 C143.520741,20.6937621 144.145665,21.3389363 144.935443,21.7962345 C145.72482,22.2543321 146.60605,22.4825815 147.579535,22.4825815 C148.552619,22.4825815 149.43425,22.2543321 150.224028,21.7962345 Z M142.084781,25.6944617 C140.459098,24.8346291 139.182778,23.6450143 138.255821,22.1256171 C137.328063,20.6066196 136.864384,18.8957488 136.864384,16.9922051 C136.864384,15.089461 137.328063,13.3777907 138.255821,11.8591929 C139.182778,10.3401955 140.459098,9.15058062 142.084781,8.29034837 C143.709662,7.43011612 145.541113,7 147.579535,7 C149.617957,7 151.45021,7.43011612 153.07469,8.29034837 C154.699973,9.15058062 155.976293,10.3401955 156.90365,11.8591929 C157.830607,13.3777907 158.294686,15.089461 158.294686,16.9922051 C158.294686,18.8957488 157.830607,20.6066196 156.90365,22.1256171 C155.976293,23.6450143 154.699973,24.8346291 153.07469,25.6944617 C151.45021,26.5546939 149.617957,26.9844103 147.579535,26.9844103 C145.541113,26.9844103 143.709662,26.5546939 142.084781,25.6944617 Z M174.039308,16.5804769 L178.859803,16.5804769 L178.859803,24.5412228 C177.757964,25.3283033 176.49087,25.9327044 175.058118,26.3528271 C173.626169,26.7737493 172.193418,26.9844103 170.761067,26.9844103 C168.741096,26.9844103 166.923283,26.559091 165.307226,25.7080527 C163.691169,24.8570144 162.424075,23.6721964 161.506344,22.1527992 C160.587811,20.6342014 160.128544,18.9137369 160.128544,16.9922051 C160.128544,15.0706734 160.587811,13.3506086 161.506344,11.8312114 C162.424075,10.3126137 163.700395,9.12739592 165.335304,8.2763576 C166.969009,7.42571903 168.8149,7 170.871773,7 C172.670734,7 174.287192,7.30180081 175.719141,7.90580217 C177.151893,8.50980353 178.345184,9.37922971 179.300217,10.513681 L175.829847,13.6428157 C174.525449,12.2157576 172.964745,11.5018288 171.146932,11.5018288 C169.494374,11.5018288 168.162701,12.0010993 167.152716,12.9980413 C166.14273,13.995383 165.637738,15.3269042 165.637738,16.9922051 C165.637738,18.0539044 165.867171,19.0008794 166.326437,19.8335299 C166.785303,20.6665801 167.428276,21.3157516 168.254956,21.7826435 C169.081235,22.2491356 170.026642,22.4825815 171.091579,22.4825815 C172.138466,22.4825815 173.120775,22.2723203 174.039308,21.8513981 L174.039308,16.5804769 Z M182.189385,26.6154538 L182.189385,7.39973617 L187.643628,7.39973617 L187.643628,26.6154538 L182.189385,26.6154538 Z M193.796998,24.6663402 C192.208617,23.1109668 191.414828,20.9056223 191.414828,18.0507065 L191.414828,7.39973617 L196.868669,7.39973617 L196.868669,17.8860152 C196.868669,20.9603861 198.089637,22.4977715 200.531972,22.4977715 C202.956258,22.4977715 204.168,20.9603861 204.168,17.8860152 L204.168,7.39973617 L209.539213,7.39973617 L209.539213,18.0507065 C209.539213,20.9056223 208.745023,23.1109668 207.157044,24.6663402 C205.568663,26.2225131 203.341721,27 200.477021,27 C197.61232,27 195.38578,26.2225131 193.796998,24.6663402 Z M215.452321,26.4079907 C213.983069,26.0234445 212.789377,25.5113825 211.871245,24.8706054 L213.661783,20.8628505 C214.524562,21.4304759 215.525724,21.8877741 216.664063,22.2355445 C217.802804,22.583315 218.923093,22.7568005 220.024932,22.7568005 C222.118706,22.7568005 223.165192,22.2355445 223.165192,21.1922331 C223.165192,20.6429956 222.866368,20.2364639 222.269923,19.9706394 C221.673077,19.7052146 220.713631,19.4261987 219.391184,19.1335918 C217.940383,18.8221973 216.728641,18.4884176 215.755557,18.1314532 C214.782073,17.7744888 213.946568,17.2028661 213.248644,16.4157856 C212.55112,15.6291048 212.201756,14.5678052 212.201756,13.2314872 C212.201756,12.0602602 212.523042,11.0037575 213.166417,10.0603801 C213.808588,9.11820199 214.768034,8.37269402 216.044755,7.82345652 C217.320674,7.27461875 218.886191,7 220.741308,7 C222.008402,7 223.256645,7.14190634 224.487238,7.42571903 C225.717431,7.70953171 226.80122,8.12565707 227.737803,8.67449483 L226.057168,12.7094318 C224.220904,11.7216837 222.439591,11.22721 220.713631,11.22721 C219.629842,11.22721 218.840465,11.387904 218.345099,11.7080927 C217.849332,12.0278816 217.601047,12.4444067 217.601047,12.9568685 C217.601047,13.4693302 217.894657,13.8538764 218.482679,14.1097076 C219.070299,14.3663382 220.015305,14.6313633 221.319703,14.9059821 C222.788554,15.2173765 224.005109,15.5511562 224.969769,15.9077209 C225.933627,16.2646853 226.769132,16.8323107 227.476282,17.6097975 C228.18263,18.3880839 228.536406,19.4449863 228.536406,20.7805049 C228.536406,21.9337437 228.214718,22.9766554 227.572547,23.9100394 C226.929173,24.8434233 225.965315,25.589331 224.680171,26.1473627 C223.394625,26.7049947 221.83352,26.9844103 219.997256,26.9844103 C218.43615,26.9844103 216.921573,26.7921372 215.452321,26.4079907 Z M235.041145,11.7096916 L229.118812,11.7096916 L229.118812,7.39973617 L246.389643,7.39973617 L246.389643,11.7096916 L240.495387,11.7096916 L240.495387,26.6154538 L235.041145,26.6154538 L235.041145,11.7096916 Z M260.928941,21.7962345 C261.718719,21.3389363 262.34284,20.6937621 262.802508,19.8607119 C263.260972,19.0284612 263.491207,18.072692 263.491207,16.9922051 C263.491207,15.9125177 263.260972,14.9567485 262.802508,14.1236984 C262.34284,13.2910479 261.718719,12.6458737 260.928941,12.1881758 C260.139163,11.7308776 259.257932,11.5018288 258.284849,11.5018288 C257.311364,11.5018288 256.429733,11.7308776 255.640356,12.1881758 C254.850978,12.6458737 254.226055,13.2910479 253.767591,14.1236984 C253.308324,14.9567485 253.078891,15.9125177 253.078891,16.9922051 C253.078891,18.072692 253.308324,19.0284612 253.767591,19.8607119 C254.226055,20.6937621 254.850978,21.3389363 255.640356,21.7962345 C256.429733,22.2543321 257.311364,22.4825815 258.284849,22.4825815 C259.257932,22.4825815 260.139163,22.2543321 260.928941,21.7962345 Z M252.789694,25.6944617 C251.164411,24.8346291 249.888091,23.6450143 248.960734,22.1256171 C248.033376,20.6066196 247.569697,18.8957488 247.569697,16.9922051 C247.569697,15.089461 248.033376,13.3777907 248.960734,11.8591929 C249.888091,10.3401955 251.164411,9.15058062 252.789694,8.29034837 C254.414575,7.43011612 256.246427,7 258.284849,7 C260.32327,7 262.155123,7.43011612 263.779603,8.29034837 C265.405286,9.15058062 266.681606,10.3401955 267.608563,11.8591929 C268.53592,13.3777907 269,15.089461 269,16.9922051 C269,18.8957488 268.53592,20.6066196 267.608563,22.1256171 C266.681606,23.6450143 265.405286,24.8346291 263.779603,25.6944617 C262.155123,26.5546939 260.32327,26.9844103 258.284849,26.9844103 C256.246427,26.9844103 254.414575,26.5546939 252.789694,25.6944617 Z" id="shape" fill="#FFFFFF"></path>
            <g id="icon">
                <path d="M14.7135081,13.8507664 C14.7135081,13.8507664 13.9109676,13.0578692 13.1076703,13.8507664 L0.984805405,25.8290841 C0.984805405,25.8290841 0.18112973,26.6219813 0.984805405,27.4148785 L13.1076703,39.3931963 C13.1076703,39.3931963 13.9102108,40.1860935 14.7135081,39.3931963 L26.8367514,27.4148785 C26.8367514,27.4148785 27.6400486,26.6219813 26.8375081,25.8290841 L14.7135081,13.8507664 Z" id="stroke" stroke="#FFFFFF" stroke-width="1.4953271"></path>
                <path d="M26.8596811,20.3114019 C26.8596811,20.3114019 27.6614649,19.5166355 27.6614649,18.3951402 L27.6614649,0.614205607 C27.6614649,0.614205607 27.6614649,-0.50728972 26.8532486,0.280747664 L14.7190324,12.1263551 C14.7190324,12.1263551 13.9104378,12.9147664 13.1033568,12.1263551 L0.968005405,0.280747664 C0.968005405,0.280747664 0.160545946,-0.50728972 0.160545946,0.614205607 L0.160545946,18.3951402 C0.160545946,18.3951402 0.160545946,19.5166355 0.961572973,20.3114019 L13.1094108,32.3566355 C13.1094108,32.3566355 13.9104378,33.1521495 14.7122216,32.3566355 L26.8596811,20.3114019 Z" id="fill" fill="#FFFFFF"></path>
            </g>
        </g>
    </g>
</svg>