<?xml version="1.0" encoding="UTF-8"?>
<svg width="14px" height="14px" viewBox="0 0 14 14" version="1.1" xmlns="http://www.w3.org/2000/svg" xmlns:xlink="http://www.w3.org/1999/xlink">
    <!-- Generator: Sketch 52.6 (67491) - http://www.bohemiancoding.com/sketch -->
    <title>icons/white/tick-circle copy</title>
    <desc>Created with Sketch.</desc>
    <g id="Page-1" stroke="none" stroke-width="1" fill="none" fill-rule="evenodd">
        <g id="icons/black/tick-circle" transform="translate(-1.000000, -1.000000)" fill="#212121">
            <path d="M8,14.6666667 C6.21894737,14.6666667 4.54526316,13.9733333 3.28561404,12.714386 C2.02596491,11.4554386 1.33333333,9.78105263 1.33333333,8.00070175 C1.33333333,6.21964912 2.02666667,4.54596491 3.28561404,3.28631579 C4.5445614,2.02666667 6.21894737,1.33333333 8,1.33333333 C9.78105263,1.33333333 11.4547368,2.02666667 12.714386,3.28631579 C13.9740351,4.54596491 14.6666667,6.21964912 14.6666667,8.00070175 C14.6666667,9.78175439 13.9733333,11.4554386 12.714386,12.714386 C11.4554386,13.9733333 9.78105263,14.6666667 8,14.6666667 Z M8,2.03508772 C11.2891228,2.03508772 13.9649123,4.71087719 13.9649123,8 C13.9649123,11.2891228 11.2891228,13.9649123 8,13.9649123 C4.71087719,13.9649123 2.03508772,11.2891228 2.03508772,8 C2.03508772,4.71087719 4.71087719,2.03508772 8,2.03508772 Z M6.59649123,10.8070175 L6.59508772,10.8070175 C6.68491228,10.8070175 6.77473684,10.7733333 6.84350877,10.7045614 L11.7557895,5.7922807 C11.8926316,5.6554386 11.8926316,5.43298246 11.7557895,5.29614035 C11.6189474,5.15929825 11.3964912,5.15929825 11.2596491,5.29614035 L6.59578947,9.96 L4.73894737,8.10315789 C4.60210526,7.96631579 4.37964912,7.96631579 4.24280702,8.10315789 C4.10596491,8.24 4.10596491,8.46245614 4.24280702,8.59929825 L6.34807018,10.7045614 C6.41684211,10.7726316 6.50666667,10.8070175 6.59649123,10.8070175 Z" id="shape"></path>
        </g>
    </g>
</svg>