<svg id="Livello_1" xmlns="http://www.w3.org/2000/svg" viewBox="0 0 64 64"><style>.st0{fill:none;stroke:#424242;stroke-miterlimit:10}</style><path class="st0" d="M19.4 30.3V5.7c0-2.7-1.4-4.5-4.9-4.5S9.7 3 9.7 5.7v36.4M37.1 34.2v-8.8c0-3.7-.9-6.1-4.2-6.5-2.8-.3-4.2.9-4.2.9"/><path class="st0" d="M37.1 23.9c4.9-.8 6.4 1.9 6.7 6.2.3 4.3.4 6.6.4 12 0 13.1-7.2 20.6-7.2 20.6M9.2 26.9c-.5-.2-2-.3-3.1-.3-2.4 0-4.3 1.9-4.6 5.4 0 0-.5 3.6-.6 8.3-.1 6.1 1 8.8 3.4 12.3 3.3 4.8 10.2 10.3 10.2 10.3M29.1 31.2V23c0-3.7-1-7.1-4.9-7.1-3.3 0-4.9.9-4.9.9M48.8 8.3l7.1-7.1 7.2 7.1M63.1 22.5l-7.2 7.2-7.1-7.2"/></svg>
