<?xml version="1.0" encoding="UTF-8"?>
<svg width="13px" height="16px" viewBox="0 0 13 16" version="1.1" xmlns="http://www.w3.org/2000/svg" xmlns:xlink="http://www.w3.org/1999/xlink">
    <!-- Generator: sketchtool 52.6 (67491) - http://www.bohemiancoding.com/sketch -->
    <title>ACB4E548-C4C2-41DC-BF1B-4B95E335EF2F</title>
    <desc>Created with sketchtool.</desc>
    <g id="Icons" stroke="none" stroke-width="1" fill="none" fill-rule="evenodd">
        <g id="icons/black/article" transform="translate(-10.000000, -8.000000)" fill="#212121">
            <path d="M10,8 L18,8 L18,9 L10,9 L10,8 Z M10,10 L23,10 L23,11 L10,11 L10,10 Z M10,12 L23,12 L23,13 L10,13 L10,12 Z M10,19 L23,19 L23,20 L10,20 L10,19 Z M10,21 L23,21 L23,22 L10,22 L10,21 Z M10,23 L20,23 L20,24 L10,24 L10,23 Z M10,14 L16,14 L16,15 L10,15 L10,14 Z" id="shape"></path>
        </g>
    </g>
</svg>