<svg width="400" height="400" xmlns="http://www.w3.org/2000/svg"><g fill="none" fill-rule="evenodd"><path stroke="#F2463D" stroke-width="7" fill="#FFF" d="M3.5 263.5h393v133H3.5z"/><path fill="#F2463D" d="M0 0h400v260H0z"/><path d="M56.124 221.136l1.758 9.826h12.223L58.361 175.04H41.744L30 230.962h11.824l1.678-9.826h12.622zm-1.917-10.786h-8.788l2.477-13.98c.878-4.954 1.757-10.227 1.757-10.306h.32c.08.08.878 5.432 1.757 10.385l2.477 13.901zm56.483 20.612h-10.626v-3.435h-.24c-2.236 2.397-5.192 4.154-9.986 4.154-9.667 0-18.455-6.63-18.455-28.92 0-21.65 8.15-28.761 20.373-28.761 11.344 0 16.617 6.391 18.135 15.978l-11.185 3.036c-.799-4.234-2.556-7.83-7.35-7.83-5.432 0-7.989 4.554-7.989 16.778 0 13.741 2.956 18.934 9.108 18.934 4.553 0 6.71-2.637 7.35-5.033v-5.513h-8.15v-11.105h19.015v31.717zm27.642 0l-7.03-20.132-1.518.08h-1.678v20.052h-11.664V175.04h17.017c11.024 0 16.777 7.59 16.777 18.454 0 6.791-2.637 12.224-7.59 14.7l8.788 22.77h-13.102zm-10.226-29.72h4.793c3.356 0 5.593-2.396 5.593-7.589 0-4.713-1.998-7.59-5.832-7.59h-4.554v15.18zm27.562 29.72V175.04h11.664v55.923h-11.664zm55.764 0h-10.626v-3.435h-.24c-2.236 2.397-5.192 4.154-9.986 4.154-9.666 0-18.454-6.63-18.454-28.92 0-21.65 8.149-28.761 20.372-28.761 11.344 0 16.617 6.391 18.135 15.978l-11.185 3.036c-.799-4.234-2.556-7.83-7.35-7.83-5.432 0-7.989 4.554-7.989 16.778 0 13.741 2.956 18.934 9.108 18.934 4.554 0 6.71-2.637 7.35-5.033v-5.513h-8.15v-11.105h19.015v31.717zm5.752 0V175.04h30.598v11.104h-18.934v10.786h14.14v10.785h-14.14v12.143h19.334v11.105h-30.998zm62.714 0l-14.94-31.237h-.239c0 .08.08 6.87.08 13.421v17.816h-11.185V175.04h11.824l14.94 32.435h.24c0-.08-.08-6.231-.08-13.421v-19.014h11.184v55.923h-11.824zm50.81-44.819h-11.424v44.82H307.7v-44.82h-11.424V175.04h34.433v11.104zm1.918 16.777c0-21.17 7.67-28.92 20.532-28.92 12.863 0 20.612 7.67 20.612 29.08 0 21.091-7.67 28.92-20.612 28.92-12.782 0-20.532-7.589-20.532-29.08zm11.984-.08c0 13.822 2.796 17.976 8.628 17.976 5.672 0 8.548-3.995 8.548-17.656 0-13.9-2.876-17.975-8.548-17.975-5.832 0-8.628 4.154-8.628 17.656z" fill="#FFF"/><path d="M56.284 357.961l-14.94-31.236h-.24c0 .08.08 6.87.08 13.421v17.815H30V302.04h11.824l14.94 32.435h.239c0-.08-.08-6.232-.08-13.422V302.04h11.184v55.922H56.284zm16.617-28.04C72.9 308.748 80.57 301 93.433 301s20.611 7.67 20.611 29.08c0 21.09-7.67 28.92-20.611 28.92-12.783 0-20.532-7.59-20.532-29.08zm11.983-.08c0 13.82 2.796 17.974 8.628 17.974 5.673 0 8.549-3.994 8.549-17.655 0-13.901-2.876-17.975-8.549-17.975-5.832 0-8.628 4.154-8.628 17.655zm65.51-16.698H138.97v44.818h-11.584v-44.818H115.96V302.04h34.433v11.104zm4.554 44.818V302.04h11.664v55.922h-11.664zm49.93-44.179l-15.498 25.725c-2.317 3.994-4.314 6.95-4.314 7.03l.16.32h19.892v11.104h-33.314v-11.264l16.617-27.003c2.078-3.435 3.835-6.151 3.835-6.231l-.16-.32h-19.492V302.04h32.275v11.743zm5.513 44.18v-55.923h11.664v55.922h-11.664zm17.896 0v-55.923h30.597v11.104H239.95v10.785h14.14v10.785h-14.14v12.144h19.334v11.104h-30.997z" fill="#2B2B2B"/></g></svg>