<svg width="400" height="400" xmlns="http://www.w3.org/2000/svg"><g fill="none" fill-rule="evenodd"><path fill="#3277C7" d="M0 0h400v400H0z"/><path stroke="#3277C7" stroke-width="6" fill="#FFF" d="M3 263h394v134H3z"/><path d="M30 160h23.314c15.086 0 24.229 9.371 24.229 27.543 0 16.571-9.143 26.971-24.114 26.971h-6.743V240H30v-80zm16.8 39.314h5.486c5.943 0 8.457-3.657 8.571-11.543 0-7.542-2.4-11.885-8.571-11.885h-5.6l.114 23.428zm66.171 26.629H94.914L92.514 240H75.6l16.8-80h23.771l16.8 80h-17.485l-2.515-14.057zm-2.742-15.429l-3.543-19.885c-1.257-7.086-2.4-14.743-2.515-14.858h-.457c0 .115-1.257 7.658-2.514 14.743l-3.543 20h12.572zM170 240l-10.057-28.8-2.172.114h-2.4V240h-16.685v-80h24.343c15.771 0 24 10.857 24 26.4 0 9.714-3.772 17.486-10.858 21.029L188.743 240H170zm-14.629-42.514h6.858c4.8 0 8-3.429 8-10.857 0-6.743-2.858-10.858-8.343-10.858h-6.515v21.715zM242.23 240v-22.514c0-16.915.228-30.629.228-30.743h-.343c-.114.114-2.285 8.686-4.8 17.486l-5.257 17.828h-11.086l-5.142-17.714c-2.629-9.029-4.8-17.486-4.8-17.6h-.458c0 .114.229 13.828.229 30.743V240h-16v-80h20.914l11.886 34.629h.343L239.029 160h19.885v80H242.23zM302 225.943h-18.057l-2.4 14.057h-16.914l16.8-80H305.2l16.8 80h-17.486L302 225.943zm-2.743-15.429l-3.543-19.885c-1.257-7.086-2.4-14.743-2.514-14.858h-.457c0 .115-1.257 7.658-2.514 14.743l-3.543 20h12.571z" fill="#FFF"/><path d="M70.567 307.19h-9.432v60.648H45.46v-60.649H30v-15.027h46.595v5.217c-2.488 2.48-4.512 5.718-6.028 9.81zm196.622 33.62v27.028h-15.784V340.81l-19.46-48.649h17.839l7.027 20.757c1.513 4.757 2.703 8.973 2.81 9.081h.433c.108-.108 1.297-4.324 2.919-8.973l7.243-20.865h16.108l-19.135 48.649zM72.703 329.89c0-29.201 10.378-39.89 27.783-39.89 17.406 0 27.892 10.579 27.892 40.11 0 29.091-10.378 39.89-27.892 39.89-17.297 0-27.783-10.468-27.783-40.11zm16.216-.11c0 19.063 3.784 24.793 11.676 24.793 7.675 0 11.567-5.51 11.567-24.353 0-19.173-3.892-24.793-11.567-24.793-7.892 0-11.676 5.73-11.676 24.353zm45.946-37.618h23.46c19.459 0 28.107 14.27 28.107 38.162 0 23.46-8.108 37.514-27.459 37.514h-24.108v-75.676zm15.784 60.649h6.162c8.865 0 13.513-5.838 13.513-22.054 0-18.162-4.648-23.568-13.297-23.568h-6.378v45.622zm70.81 1.73h-17.08l-2.27 13.297h-16L202 292.162h22.486l15.892 75.676h-16.54l-2.379-13.297zm-2.594-14.595l-3.351-18.81c-1.19-6.704-2.27-13.947-2.379-14.055h-.432c0 .108-1.19 7.243-2.379 13.946l-3.351 18.919h11.892z" fill="#2B2B2B"/></g></svg>