<svg width="400" height="400" xmlns="http://www.w3.org/2000/svg"><g fill="none" fill-rule="evenodd"><path fill="#F2463D" d="M0 0h400v400H0z"/><path stroke="#F2463D" stroke-width="6" fill="#FFF" d="M3 263h394v134H3z"/><path d="M71.763 177.75H46.088v16.969h19.504v15.427H46.088v29.421H30v-77.134h41.763v15.316zm2.975 23.14c0-29.201 10.579-39.89 28.32-39.89 17.74 0 28.43 10.579 28.43 40.11 0 29.091-10.579 39.89-28.43 39.89-17.631 0-28.32-10.468-28.32-40.11zm16.53-.11c0 19.063 3.856 24.793 11.9 24.793 7.824 0 11.79-5.51 11.79-24.353 0-19.173-3.966-24.793-11.79-24.793-8.044 0-11.9 5.73-11.9 24.353zm99.503 38.787h-14.655v-4.738h-.33c-3.086 3.306-7.163 5.73-13.775 5.73-13.333 0-25.455-9.146-25.455-39.89 0-29.862 11.24-39.669 28.1-39.669 15.647 0 22.92 8.815 25.013 22.039l-15.427 4.187c-1.102-5.84-3.526-10.799-10.137-10.799-7.493 0-11.02 6.281-11.02 23.14 0 18.954 4.078 26.116 12.562 26.116 6.281 0 9.257-3.636 10.138-6.942v-7.603h-11.24V195.82h26.226v43.746zm60.166 0H236.28v-4.738h-.33c-3.086 3.306-7.163 5.73-13.775 5.73-13.333 0-25.454-9.146-25.454-39.89 0-29.862 11.24-39.669 28.099-39.669 15.647 0 22.92 8.815 25.014 22.039l-15.427 4.187c-1.102-5.84-3.526-10.799-10.138-10.799-7.493 0-11.02 6.281-11.02 23.14 0 18.954 4.078 26.116 12.563 26.116 6.28 0 9.256-3.636 10.137-6.942v-7.603h-11.24V195.82h26.227v43.746zm7.934 0v-77.134h16.088v77.134H258.87zm57.63-13.553h-17.41l-2.314 13.553h-16.309l16.199-77.134h22.92l16.198 77.134h-16.86l-2.424-13.553zm-2.644-14.876l-3.416-19.174c-1.212-6.832-2.314-14.215-2.424-14.325h-.441c0 .11-1.212 7.383-2.424 14.215l-3.416 19.284h12.12z" fill="#FFF"/><path d="M71.35 306.75h-9.614v61.817H45.758V306.75H30v-15.316h47.493v5.317c-2.536 2.528-4.598 5.828-6.144 10zm200.413 34.27v27.547h-16.088V341.02l-19.835-49.586h18.182l7.163 21.157c1.542 4.848 2.754 9.146 2.865 9.256h.44c.11-.11 1.323-4.408 2.976-9.146l7.382-21.267h16.42l-19.505 49.586zM73.526 329.89c0-29.201 10.579-39.89 28.32-39.89 17.74 0 28.43 10.579 28.43 40.11 0 29.091-10.579 39.89-28.43 39.89-17.631 0-28.32-10.468-28.32-40.11zm16.53-.11c0 19.063 3.856 24.793 11.9 24.793 7.824 0 11.79-5.51 11.79-24.353 0-19.173-3.966-24.793-11.79-24.793-8.044 0-11.9 5.73-11.9 24.353zm46.831-38.347H160.8c19.835 0 28.65 14.545 28.65 38.898 0 23.911-8.264 38.236-27.989 38.236h-24.573v-77.134zm16.088 61.818h6.281c9.036 0 13.774-5.95 13.774-22.48 0-18.512-4.738-24.022-13.553-24.022h-6.502v46.502zm72.177 1.763H207.74l-2.314 13.553h-16.309l16.199-77.134h22.92l16.198 77.134h-16.86l-2.423-13.553zm-2.645-14.876l-3.416-19.174c-1.212-6.832-2.314-14.215-2.424-14.325h-.441c0 .11-1.212 7.383-2.424 14.215l-3.416 19.284h12.12z" fill="#2B2B2B"/></g></svg>