<svg width="400" height="400" xmlns="http://www.w3.org/2000/svg"><g fill="none" fill-rule="evenodd"><path fill="#F2463D" d="M0 0h400v400H0z"/><path stroke="#F2463D" stroke-width="6" fill="#FFF" d="M3 263h394v134H3z"/><path d="M30 164.397v75.206h15.686v-23.958h6.339c14.074 0 22.67-9.777 22.67-25.356 0-17.082-8.596-25.892-22.778-25.892H30zm15.793 36.958l-.107-22.024h5.264c5.802 0 8.058 4.082 8.058 11.173-.107 7.413-2.47 10.851-8.058 10.851h-5.157zm34.81 38.248v-75.206h41.15v14.934H96.288v14.504h19.017v14.504H96.289v16.33h26v14.934H80.603zm78.43 0l-9.454-27.074-2.042.107h-2.256v26.967h-15.686v-75.206h22.884c14.827 0 22.562 10.206 22.562 24.818 0 9.132-3.545 16.438-10.206 19.768l11.818 30.62h-17.62zm-13.752-39.967h6.446c4.513 0 7.52-3.223 7.52-10.206 0-6.34-2.685-10.207-7.842-10.207h-6.124v20.413zm82.835-35.24v49.315c0 18.909-7.95 27.289-23.744 27.289-15.793 0-23.744-8.38-23.744-27.29v-49.313h15.686v49.314c0 7.843 1.826 12.248 8.488 12.248 6.768 0 8.595-4.405 8.595-12.248v-49.314h14.719zm59.305 75.207h-14.289v-4.62h-.322c-3.008 3.224-6.984 5.587-13.43 5.587-13 0-24.818-8.917-24.818-38.892 0-29.116 10.959-38.678 27.397-38.678 15.256 0 22.347 8.595 24.388 21.488l-15.041 4.082c-1.075-5.694-3.438-10.529-9.885-10.529-7.305 0-10.743 6.124-10.743 22.562 0 18.48 3.975 25.463 12.248 25.463 6.124 0 9.024-3.545 9.884-6.768v-7.414H261.85V196.95h25.57v42.653zm7.736 0v-75.206h15.686v75.206h-15.686zm56.19-13.215h-16.975l-2.256 13.215h-15.901l15.793-75.206h22.347l15.794 75.206H353.71l-2.364-13.215zm-2.578-14.504l-3.331-18.694c-1.182-6.661-2.256-13.86-2.364-13.967h-.43c0 .108-1.181 7.198-2.363 13.86l-3.33 18.801h11.818z" fill="#FFF"/><path d="M70.315 307.33h-9.373v60.273H45.364v-60.272H30v-14.934h46.306v5.184c-2.473 2.465-4.484 5.683-5.99 9.75zm195.404 33.414v26.86h-15.686v-26.86l-19.339-48.347h17.727l6.984 20.628c1.504 4.727 2.686 8.917 2.793 9.025h.43c.108-.108 1.29-4.298 2.9-8.918l7.2-20.735h16.008l-19.017 48.347zM72.438 329.893C72.438 301.42 82.752 291 100.05 291c17.297 0 27.719 10.314 27.719 39.107 0 28.364-10.314 38.893-27.72 38.893-17.19 0-27.611-10.207-27.611-39.107zm16.116-.108c0 18.587 3.76 24.174 11.603 24.174 7.628 0 11.496-5.372 11.496-23.744 0-18.694-3.868-24.174-11.496-24.174-7.843 0-11.603 5.587-11.603 23.744zm45.66-37.388h23.315c19.339 0 27.934 14.182 27.934 37.925 0 23.314-8.058 37.281-27.29 37.281h-23.958v-75.206zm15.687 60.272h6.124c8.81 0 13.43-5.801 13.43-21.917 0-18.05-4.62-23.421-13.215-23.421h-6.34v45.338zm70.372 1.72h-16.975l-2.257 13.214h-15.9l15.793-75.206h22.347l15.793 75.206h-16.438l-2.363-13.215zm-2.579-14.505l-3.33-18.694c-1.182-6.661-2.257-13.86-2.364-13.967h-.43c0 .108-1.182 7.198-2.363 13.86l-3.331 18.801h11.818z" fill="#2B2B2B"/></g></svg>