<svg width="400" height="400" xmlns="http://www.w3.org/2000/svg"><g fill="none" fill-rule="evenodd"><path fill="#50AE55" d="M0 0h400v400H0z"/><path stroke="#50AE55" stroke-width="6" fill="#FFF" d="M3 264h394v134H3z"/><path d="M67.906 215.223l15.427 4.077C80.58 231.201 74.738 242 57.548 242 41.35 242 30 232.083 30 201.78 30 171.807 41.24 162 58.1 162c15.757 0 22.92 8.815 25.013 22.039l-15.427 4.187c-1.433-6.612-4.187-10.799-10.248-10.799-7.493 0-10.91 6.06-10.91 24.022 0 19.394 3.747 25.124 11.02 25.124 6.171 0 8.926-4.408 10.358-11.35zm55.427 25.344v-31.184h-17.19v31.184H90.055v-77.134h16.088v29.641h17.19v-29.641h16.088v77.134h-16.088zm24.684 0v-77.134h16.088v77.134h-16.088zm24.683 0v-77.134h42.204v15.316h-26.116v14.876h19.504v14.876h-19.504v16.75h26.667v15.316H172.7zm95.427-61.818h-15.758v61.818h-15.978V178.75h-15.757v-15.316h47.493v15.316zm6.28 61.818v-77.134h16.089v77.134h-16.088z" fill="#FFF"/><path d="M70.567 308.19h-9.432v60.648H45.46v-60.649H30v-15.027h46.595v5.217c-2.488 2.48-4.512 5.718-6.028 9.81zm196.622 33.62v27.028h-15.784V341.81l-19.46-48.649h17.839l7.027 20.757c1.513 4.757 2.703 8.973 2.81 9.081h.433c.108-.108 1.297-4.324 2.919-8.973l7.243-20.865h16.108l-19.135 48.649zM72.703 330.89c0-29.201 10.378-39.89 27.783-39.89 17.406 0 27.892 10.579 27.892 40.11 0 29.091-10.378 39.89-27.892 39.89-17.297 0-27.783-10.468-27.783-40.11zm16.216-.11c0 19.063 3.784 24.793 11.676 24.793 7.675 0 11.567-5.51 11.567-24.353 0-19.173-3.892-24.793-11.567-24.793-7.892 0-11.676 5.73-11.676 24.353zm45.946-37.618h23.46c19.459 0 28.107 14.27 28.107 38.162 0 23.46-8.108 37.514-27.459 37.514h-24.108v-75.676zm15.784 60.649h6.162c8.865 0 13.513-5.838 13.513-22.054 0-18.162-4.648-23.568-13.297-23.568h-6.378v45.622zm70.81 1.73h-17.08l-2.27 13.297h-16L202 293.162h22.486l15.892 75.676h-16.54l-2.379-13.297zm-2.594-14.595l-3.351-18.81c-1.19-6.704-2.27-13.947-2.379-14.055h-.432c0 .108-1.19 7.243-2.379 13.946l-3.351 18.919h11.892z" fill="#2B2B2B"/></g></svg>