<svg width="400" height="400" xmlns="http://www.w3.org/2000/svg"><g fill="none" fill-rule="evenodd"><path fill="#F2463D" d="M0 0h400v400H0z"/><path stroke="#F2463D" stroke-width="6" fill="#FFF" d="M3 263h394v134H3z"/><path d="M77.493 179.75H61.736v61.817H45.758V179.75H30v-15.316h47.493v15.316zm36.474 61.817L104.27 213.8l-2.094.11h-2.314v27.658H83.774v-77.134h23.471c15.207 0 23.14 10.468 23.14 25.454 0 9.366-3.636 16.86-10.468 20.276l12.122 31.404h-18.072zm-14.105-40.991h6.612c4.628 0 7.713-3.306 7.713-10.469 0-6.5-2.754-10.468-8.044-10.468h-6.28v20.937zm38.017 40.991v-77.134h16.088v77.134h-16.088zm24.683 0v-77.134h42.204v15.316H178.65v14.876h19.504v14.876H178.65v16.75h26.667v15.316h-42.755zm47.273-19.393l15.537-4.298c.55 6.281 2.975 10.138 8.705 10.138 4.298 0 7.052-2.094 7.052-6.832 0-6.171-5.068-8.044-12.23-11.901-7.825-4.298-17.852-9.697-17.852-25.455 0-12.341 6.722-20.826 22.59-20.826 11.9 0 22.369 4.738 24.242 20.275l-15.537 4.188c-.992-7.053-3.527-9.477-8.265-9.477-4.297 0-6.501 1.874-6.501 6.06 0 5.841 4.297 7.714 12.562 12.012 8.705 4.408 17.41 9.476 17.41 24.573 0 14.986-8.154 22.369-23.14 22.369-12.893 0-23.03-5.84-24.573-20.826zm99.504-42.425H293.58v61.818h-15.978V179.75h-15.757v-15.316h47.493v15.316zm6.28 61.818v-77.134h42.205v15.316h-26.116v14.876h19.504v14.876h-19.504v16.75h26.667v15.316H315.62z" fill="#FFF"/><path d="M30 290h23.314c15.086 0 24.229 9.371 24.229 27.543 0 16.571-9.143 26.971-24.114 26.971h-6.743V370H30v-80zm16.8 39.314h5.486c5.943 0 8.457-3.657 8.571-11.543 0-7.542-2.4-11.885-8.571-11.885h-5.6l.114 23.428zM115.143 370l-10.057-28.8-2.172.114h-2.4V370H83.83v-80h24.342c15.772 0 24 10.857 24 26.4 0 9.714-3.771 17.486-10.857 21.029L133.886 370h-18.743zm-14.629-42.514h6.857c4.8 0 8-3.429 8-10.857 0-6.743-2.857-10.858-8.342-10.858h-6.515v21.715zM139.943 370v-80h16.686v80h-16.686zm73.028 0v-22.514c0-16.915.229-30.629.229-30.743h-.343c-.114.114-2.286 8.686-4.8 17.486l-5.257 17.828h-11.086l-5.143-17.714c-2.628-9.029-4.8-17.486-4.8-17.6h-.457c0 .114.229 13.828.229 30.743V370h-16v-80h20.914l11.886 34.629h.343L209.77 290h19.886v80h-16.686zm59.772-14.057h-18.057l-2.4 14.057H235.37l16.8-80h23.772l16.8 80h-17.486l-2.514-14.057zM270 340.514l-3.543-19.885c-1.257-7.086-2.4-14.743-2.514-14.858h-.457c0 .115-1.257 7.658-2.515 14.743l-3.542 20H270z" fill="#2B2B2B"/></g></svg>