<svg width="400" height="400" xmlns="http://www.w3.org/2000/svg"><g fill="none" fill-rule="evenodd"><path fill="#F2463D" d="M0 0h400v400H0z"/><path stroke="#F2463D" stroke-width="6" fill="#FFF" d="M3 263h394v134H3z"/><path d="M67.758 183.814H44.545v15.343H62.18v13.948H44.545v26.6H30v-69.739h37.758v13.848zm2.69 20.922c0-26.401 9.564-36.065 25.604-36.065s25.704 9.564 25.704 36.264c0 26.302-9.564 36.065-25.704 36.065-15.94 0-25.604-9.465-25.604-36.264zm14.944-.1c0 17.236 3.487 22.416 10.76 22.416 7.073 0 10.66-4.981 10.66-22.017 0-17.335-3.587-22.416-10.66-22.416-7.273 0-10.76 5.18-10.76 22.017zm69.64 35.069l-8.768-25.106-1.893.1h-2.092v25.006h-14.546v-69.739h21.22c13.75 0 20.922 9.465 20.922 23.014 0 8.468-3.287 15.243-9.464 18.331l10.959 28.394H155.03zm-12.753-37.061h5.978c4.184 0 6.973-2.989 6.973-9.465 0-5.878-2.49-9.464-7.272-9.464h-5.679v18.929zm34.371 37.06v-69.738h14.546v55.89h22.017v13.849H176.65zM223.474 161l8.867 17.534h-12.553l-8.07-14.844 11.756-2.69zm-4.383 78.705v-55.79h13.649v55.79h-13.65z" fill="#FFF"/><path d="M71.35 306.75h-9.614v61.817H45.758V306.75H30v-15.316h47.493v5.317c-2.536 2.528-4.598 5.828-6.144 10zm200.413 34.27v27.547h-16.088V341.02l-19.835-49.586h18.182l7.163 21.157c1.542 4.848 2.754 9.146 2.865 9.256h.44c.11-.11 1.323-4.408 2.976-9.146l7.382-21.267h16.42l-19.505 49.586zM73.526 329.89c0-29.201 10.579-39.89 28.32-39.89 17.74 0 28.43 10.579 28.43 40.11 0 29.091-10.579 39.89-28.43 39.89-17.631 0-28.32-10.468-28.32-40.11zm16.53-.11c0 19.063 3.856 24.793 11.9 24.793 7.824 0 11.79-5.51 11.79-24.353 0-19.173-3.966-24.793-11.79-24.793-8.044 0-11.9 5.73-11.9 24.353zm46.831-38.347H160.8c19.835 0 28.65 14.545 28.65 38.898 0 23.911-8.264 38.236-27.989 38.236h-24.573v-77.134zm16.088 61.818h6.281c9.036 0 13.774-5.95 13.774-22.48 0-18.512-4.738-24.022-13.553-24.022h-6.502v46.502zm72.177 1.763H207.74l-2.314 13.553h-16.309l16.199-77.134h22.92l16.198 77.134h-16.86l-2.423-13.553zm-2.645-14.876l-3.416-19.174c-1.212-6.832-2.314-14.215-2.424-14.325h-.441c0 .11-1.212 7.383-2.424 14.215l-3.416 19.284h12.12z" fill="#2B2B2B"/></g></svg>