<svg width="400" height="400" xmlns="http://www.w3.org/2000/svg"><g fill="none" fill-rule="evenodd"><path fill="#2A9DDB" d="M0 0h400v267H0z"/><path stroke="#2A9DDB" stroke-width="6" fill="#FFF" d="M3 263h394v134H3z"/><path d="M67.35 308.75h-9.614v61.817H41.758V308.75H26v-15.316h47.493v5.317c-2.536 2.528-4.598 5.828-6.144 10zm200.413 34.27v27.547h-16.088V343.02l-19.835-49.586h18.182l7.163 21.157c1.542 4.848 2.754 9.146 2.865 9.256h.44c.11-.11 1.323-4.408 2.976-9.146l7.382-21.267h16.42l-19.505 49.586zM69.526 331.89c0-29.201 10.579-39.89 28.32-39.89 17.74 0 28.43 10.579 28.43 40.11 0 29.091-10.579 39.89-28.43 39.89-17.631 0-28.32-10.468-28.32-40.11zm16.53-.11c0 19.063 3.856 24.793 11.9 24.793 7.824 0 11.79-5.51 11.79-24.353 0-19.173-3.966-24.793-11.79-24.793-8.044 0-11.9 5.73-11.9 24.353zm46.831-38.347H156.8c19.835 0 28.65 14.545 28.65 38.898 0 23.911-8.264 38.236-27.989 38.236h-24.573v-77.134zm16.088 61.818h6.281c9.036 0 13.774-5.95 13.774-22.48 0-18.512-4.738-24.022-13.553-24.022h-6.502v46.502zm72.177 1.763H203.74l-2.314 13.553h-16.309l16.199-77.134h22.92l16.198 77.134h-16.86l-2.423-13.553zm-2.645-14.876l-3.416-19.174c-1.212-6.832-2.314-14.215-2.424-14.325h-.441c0 .11-1.212 7.383-2.424 14.215l-3.416 19.284h12.12z" fill="#3B3B3B"/><path d="M28 237.35h44.407v-15.12H43.673v-16.632h20.622v-14.845H43.673v-15.258h28.184v-15.12H28v76.976zm101.233-76.975H114.11v50.996c0 8.385-3.025 12.784-10.311 12.784-7.424 0-10.174-4.399-10.174-12.784v-50.996H77.677v50.034c0 19.519 8.799 28.591 26.122 28.591 16.36 0 25.434-9.072 25.434-28.591v-50.034zm40.74 76.976l-10.448-27.904h-7.15v27.904H136.84v-76.976h23.647c16.36 0 24.747 9.896 24.747 24.742 0 10.859-4.674 17.87-11.549 20.618l12.924 31.616h-16.636zm-17.597-40.413h7.149c6.186 0 9.761-3.711 9.761-10.722 0-7.422-3.437-10.859-10.036-10.859h-6.874v21.581zm35.516 1.787c0-29.003 10.999-39.725 29.284-39.725 18.285 0 29.283 10.722 29.283 39.725 0 28.729-10.998 40.275-29.283 40.275-18.285 0-29.284-11.546-29.284-40.275zm16.36.138c0 19.244 4.262 25.292 12.924 25.292 8.661 0 13.06-6.323 13.06-25.292 0-18.695-4.399-25.018-13.06-25.018-8.662 0-12.924 6.323-12.924 25.018zm47.615-38.488h22.41c14.985 0 24.746 8.934 24.746 25.979 0 16.357-9.76 25.43-24.609 25.43h-6.736v25.567h-15.811v-76.976zm15.81 37.938h6.462c6.462 0 9.624-3.987 9.624-11.684 0-7.56-3.025-11.41-9.624-11.41h-6.461v23.094zm65.35 23.78h-20.484l-3.025 15.258H294.12l17.735-76.976h22.41L352 237.35h-15.948l-3.025-15.258zm-2.75-13.608l-3.161-14.983c-2.612-12.784-4.125-20.619-4.125-21.031h-.55c-.137.412-1.65 8.385-4.262 21.306l-2.887 14.708h14.986z" fill="#FFF"/></g></svg>