<svg width="400" height="400" xmlns="http://www.w3.org/2000/svg"><g fill="none" fill-rule="evenodd"><path fill="#F2463D" d="M0 0h400v400H0z"/><path stroke="#F2463D" stroke-width="6" fill="#FFF" d="M3 263h394v134H3z"/><path d="M67.19 239.657H44.463L30 167.343h16.839l5.888 36.777 3.513 21.384h.413c0-.31.826-6.921 3.1-21.28l5.99-36.881h15.703L67.19 239.657zm19.628 0v-72.314h15.083v72.314H86.818zm56.818-23.76l14.463 3.822C155.517 230.876 150.041 241 133.926 241c-15.186 0-25.827-9.298-25.827-37.707 0-28.099 10.537-37.293 26.343-37.293 14.773 0 21.488 8.264 23.45 20.661l-14.462 3.926c-1.343-6.199-3.926-10.124-9.608-10.124-7.024 0-10.227 5.682-10.227 22.52 0 18.182 3.512 23.554 10.33 23.554 5.786 0 8.368-4.132 9.711-10.64zm20.765 23.76v-72.314h39.566v14.36h-24.484v13.946h18.286v13.946h-18.286v15.703h25v14.359h-40.082zm81.095 0l-19.318-40.393h-.31c0 .104.103 8.885.103 17.356v23.037h-14.463v-72.314h15.29l19.318 41.942h.31c0-.103-.104-8.058-.104-17.355v-24.587h14.463v72.314h-15.29zm64.773-57.128l-20.042 33.264c-2.996 5.166-5.578 8.988-5.578 9.091l.206.414h25.724v14.359H267.5v-14.566l21.488-34.917c2.686-4.443 4.958-7.955 4.958-8.058l-.206-.414h-25.207v-14.359h41.736v15.186zm38.016 44.421h-16.322l-2.17 12.707h-15.289l15.186-72.314h21.488l15.186 72.314h-15.806l-2.273-12.707zm-2.48-13.946l-3.202-17.975c-1.136-6.405-2.17-13.327-2.272-13.43h-.414c0 .103-1.136 6.922-2.272 13.327l-3.203 18.078h11.364z" fill="#FFF"/><path d="M70.315 307.33h-9.373v60.273H45.364v-60.272H30v-14.934h46.306v5.184c-2.473 2.465-4.484 5.683-5.99 9.75zm195.404 33.414v26.86h-15.686v-26.86l-19.339-48.347h17.727l6.984 20.628c1.504 4.727 2.686 8.917 2.793 9.025h.43c.108-.108 1.29-4.298 2.9-8.918l7.2-20.735h16.008l-19.017 48.347zM72.438 329.893C72.438 301.42 82.752 291 100.05 291c17.297 0 27.719 10.314 27.719 39.107 0 28.364-10.314 38.893-27.72 38.893-17.19 0-27.611-10.207-27.611-39.107zm16.116-.108c0 18.587 3.76 24.174 11.603 24.174 7.628 0 11.496-5.372 11.496-23.744 0-18.694-3.868-24.174-11.496-24.174-7.843 0-11.603 5.587-11.603 23.744zm45.66-37.388h23.315c19.339 0 27.934 14.182 27.934 37.925 0 23.314-8.058 37.281-27.29 37.281h-23.958v-75.206zm15.687 60.272h6.124c8.81 0 13.43-5.801 13.43-21.917 0-18.05-4.62-23.421-13.215-23.421h-6.34v45.338zm70.372 1.72h-16.975l-2.257 13.214h-15.9l15.793-75.206h22.347l15.793 75.206h-16.438l-2.363-13.215zm-2.579-14.505l-3.33-18.694c-1.182-6.661-2.257-13.86-2.364-13.967h-.43c0 .108-1.182 7.198-2.363 13.86l-3.331 18.801h11.818z" fill="#2B2B2B"/></g></svg>