<svg width="400" height="400" xmlns="http://www.w3.org/2000/svg"><g fill="none" fill-rule="evenodd"><path fill="#3277C7" d="M0 0h400v400H0z"/><path stroke="#3277C7" stroke-width="6" fill="#FFF" d="M3 263h394v134H3z"/><path d="M79.593 162v51.5c0 19.748-8.303 28.5-24.796 28.5C38.303 242 30 233.248 30 213.5V162h16.381v51.5c0 8.191 1.908 12.792 8.864 12.792 7.07 0 8.977-4.6 8.977-12.791V162h15.371zm8.415 0h24.348c20.197 0 29.173 14.81 29.173 39.607 0 24.348-8.415 38.934-28.5 38.934H88.01V162zm16.382 62.945h6.395c9.201 0 14.026-6.059 14.026-22.889 0-18.85-4.825-24.46-13.801-24.46h-6.62v47.35zm43.983 15.596V162h16.382v78.541h-16.382zm62.048 0l-20.982-43.87h-.337c0 .112.113 9.649.113 18.85v25.02h-15.709V162h16.606l20.982 45.554h.337c0-.112-.113-8.752-.113-18.85V162h15.709v78.541H210.42zm25.357 0V162h42.974v15.596H252.16v15.147h19.86v15.148h-19.86v17.054h27.153v15.596h-43.535z" fill="#FFF"/><path d="M70.567 307.19h-9.432v60.648H45.46v-60.649H30v-15.027h46.595v5.217c-2.488 2.48-4.512 5.718-6.028 9.81zm196.622 33.62v27.028h-15.784V340.81l-19.46-48.649h17.839l7.027 20.757c1.513 4.757 2.703 8.973 2.81 9.081h.433c.108-.108 1.297-4.324 2.919-8.973l7.243-20.865h16.108l-19.135 48.649zM72.703 329.89c0-29.201 10.378-39.89 27.783-39.89 17.406 0 27.892 10.579 27.892 40.11 0 29.091-10.378 39.89-27.892 39.89-17.297 0-27.783-10.468-27.783-40.11zm16.216-.11c0 19.063 3.784 24.793 11.676 24.793 7.675 0 11.567-5.51 11.567-24.353 0-19.173-3.892-24.793-11.567-24.793-7.892 0-11.676 5.73-11.676 24.353zm45.946-37.618h23.46c19.459 0 28.107 14.27 28.107 38.162 0 23.46-8.108 37.514-27.459 37.514h-24.108v-75.676zm15.784 60.649h6.162c8.865 0 13.513-5.838 13.513-22.054 0-18.162-4.648-23.568-13.297-23.568h-6.378v45.622zm70.81 1.73h-17.08l-2.27 13.297h-16L202 292.162h22.486l15.892 75.676h-16.54l-2.379-13.297zm-2.594-14.595l-3.351-18.81c-1.19-6.704-2.27-13.947-2.379-14.055h-.432c0 .108-1.19 7.243-2.379 13.946l-3.351 18.919h11.892z" fill="#2B2B2B"/></g></svg>