<svg width="400" height="400" xmlns="http://www.w3.org/2000/svg"><g fill="none" fill-rule="evenodd"><path fill="#FFBE26" d="M0 0h400v267H0z"/><path d="M60.193 239.567L50.496 211.8l-2.094.11h-2.314v27.658H30v-77.134h23.471c15.207 0 23.14 10.468 23.14 25.454 0 9.366-3.636 16.86-10.468 20.276l12.121 31.404H60.193zm-14.105-40.991H52.7c4.628 0 7.713-3.306 7.713-10.469 0-6.5-2.755-10.468-8.044-10.468h-6.28v20.937zm34.931 2.314c0-29.201 10.579-39.89 28.32-39.89 17.74 0 28.43 10.579 28.43 40.11 0 29.091-10.579 39.89-28.43 39.89-17.631 0-28.32-10.468-28.32-40.11zm16.53-.11c0 19.063 3.856 24.793 11.9 24.793 7.824 0 11.79-5.51 11.79-24.353 0-19.173-3.966-24.793-11.79-24.793-8.044 0-11.9 5.73-11.9 24.353zm92.561 38.787V217.86c0-16.309.22-29.532.22-29.642H190c-.11.11-2.204 8.374-4.628 16.86l-5.069 17.19h-10.689l-4.958-17.08c-2.535-8.706-4.628-16.86-4.628-16.97h-.441c0 .11.22 13.333.22 29.642v21.707H144.38v-77.134h20.165l11.46 33.388h.331l10.689-33.388h19.173v77.134H190.11zm57.631-13.553h-17.41l-2.314 13.553h-16.309l16.198-77.134h22.92l16.199 77.134h-16.86l-2.424-13.553zm-2.645-14.876l-3.416-19.174c-1.212-6.832-2.314-14.215-2.424-14.325h-.44c0 .11-1.213 7.383-2.425 14.215l-3.416 19.284h12.121z" fill="#FFF"/><path stroke="#FFBE26" stroke-width="6" fill="#FFF" d="M3 263h394v134H3z"/><path d="M71.35 308.75h-9.614v61.817H45.758V308.75H30v-15.316h47.493v5.317c-2.536 2.528-4.598 5.828-6.144 10zm200.413 34.27v27.547h-16.088V343.02l-19.835-49.586h18.182l7.163 21.157c1.542 4.848 2.754 9.146 2.865 9.256h.44c.11-.11 1.323-4.408 2.976-9.146l7.382-21.267h16.42l-19.505 49.586zM73.526 331.89c0-29.201 10.579-39.89 28.32-39.89 17.74 0 28.43 10.579 28.43 40.11 0 29.091-10.579 39.89-28.43 39.89-17.631 0-28.32-10.468-28.32-40.11zm16.53-.11c0 19.063 3.856 24.793 11.9 24.793 7.824 0 11.79-5.51 11.79-24.353 0-19.173-3.966-24.793-11.79-24.793-8.044 0-11.9 5.73-11.9 24.353zm46.831-38.347H160.8c19.835 0 28.65 14.545 28.65 38.898 0 23.911-8.264 38.236-27.989 38.236h-24.573v-77.134zm16.088 61.818h6.281c9.036 0 13.774-5.95 13.774-22.48 0-18.512-4.738-24.022-13.553-24.022h-6.502v46.502zm72.177 1.763H207.74l-2.314 13.553h-16.309l16.199-77.134h22.92l16.198 77.134h-16.86l-2.423-13.553zm-2.645-14.876l-3.416-19.174c-1.212-6.832-2.314-14.215-2.424-14.325h-.441c0 .11-1.212 7.383-2.424 14.215l-3.416 19.284h12.12z" fill="#3B3B3B"/></g></svg>