<svg width="400" height="400" xmlns="http://www.w3.org/2000/svg"><g fill="none" fill-rule="evenodd"><path fill="#F2463D" d="M0 0h400v400H0z"/><path stroke="#F2463D" stroke-width="6" fill="#FFF" d="M3 263h394v134H3z"/><path d="M69.35 306.75h-9.614v61.817H43.758V306.75H28v-15.316h47.493v5.317c-2.536 2.528-4.598 5.828-6.144 10zm200.413 34.27v27.547h-16.088V341.02l-19.835-49.586h18.182l7.163 21.157c1.542 4.848 2.754 9.146 2.865 9.256h.44c.11-.11 1.323-4.408 2.976-9.146l7.382-21.267h16.42l-19.505 49.586zM71.526 329.89c0-29.201 10.579-39.89 28.32-39.89 17.74 0 28.43 10.579 28.43 40.11 0 29.091-10.579 39.89-28.43 39.89-17.631 0-28.32-10.468-28.32-40.11zm16.53-.11c0 19.063 3.856 24.793 11.9 24.793 7.824 0 11.79-5.51 11.79-24.353 0-19.173-3.966-24.793-11.79-24.793-8.044 0-11.9 5.73-11.9 24.353zm46.831-38.347H158.8c19.835 0 28.65 14.545 28.65 38.898 0 23.911-8.264 38.236-27.989 38.236h-24.573v-77.134zm16.088 61.818h6.281c9.036 0 13.774-5.95 13.774-22.48 0-18.512-4.738-24.022-13.553-24.022h-6.502v46.502zm72.177 1.763H205.74l-2.314 13.553h-16.309l16.199-77.134h22.92l16.198 77.134h-16.86l-2.423-13.553zm-2.645-14.876l-3.416-19.174c-1.212-6.832-2.314-14.215-2.424-14.325h-.441c0 .11-1.212 7.383-2.424 14.215l-3.416 19.284h12.12z" fill="#2B2B2B"/><path d="M320.891 202.288c0-27.224 10.348-37.288 27.551-37.288 17.204 0 27.551 10.064 27.551 37.288 0 26.967-10.347 37.805-27.55 37.805-17.204 0-27.552-10.838-27.552-37.805zm15.393.13c0 18.063 4.01 23.74 12.158 23.74 8.15 0 12.288-5.935 12.288-23.74 0-17.548-4.139-23.483-12.288-23.483-8.148 0-12.158 5.935-12.158 23.482zm-35.326 37.054V167.07h14.905v72.403h-14.905zm-20.036 0l-9.851-26.246h-6.74v26.246h-14.647V167.07h22.294c15.424 0 23.33 9.309 23.33 23.272 0 10.214-4.406 16.808-10.887 19.394l12.184 29.737h-15.683zM264.33 201.46h6.74c5.832 0 9.202-3.49 9.202-10.084 0-6.982-3.24-10.215-9.461-10.215h-6.481v20.3zm-70.068-34.391h21.257c19.831 0 29.293 13.317 29.293 36.59 0 22.755-8.943 35.813-28.645 35.813h-21.905V167.07zm14.906 58.181h6.221c10.37 0 14.388-5.689 14.388-21.204 0-17.454-4.148-22.755-14.388-22.755h-6.221v43.959zm-20.139 14.222h-15.554l-21.645-45.77h-.39c0 .13.13 8.275.13 15.774v29.996h-13.998V167.07h15.554l21.645 44.476h.39c0-.13-.13-7.499-.13-14.998V167.07h13.998v72.403zm-84.512.62c-17.203 0-27.55-10.837-27.55-37.804 0-27.224 10.347-37.288 27.55-37.288 17.204 0 27.551 10.064 27.551 37.288 0 26.967-10.347 37.805-27.55 37.805zM92.36 202.418c0 18.064 4.01 23.741 12.158 23.741 8.15 0 12.288-5.935 12.288-23.74 0-17.548-4.139-23.483-12.288-23.483-8.149 0-12.158 5.935-12.158 23.482zM28 220.868l13.323-3.613c.517 5.677 3.492 9.806 10.089 9.806 5.174 0 8.02-2.71 8.02-7.483 0-6.323-4.916-8.258-13.194-12-6.597-2.967-16.815-8.257-16.815-23.095 0-12.645 7.631-19.483 21.472-19.483 13.064 0 21.213 6.193 22.635 18.322l-12.805 3.483c-.906-5.935-3.622-8.902-9.054-8.902-4.786 0-7.761 2.451-7.761 6.838 0 5.677 4.656 7.612 13.581 11.612 7.89 3.742 16.686 9.29 16.686 22.967 0 14.45-9.313 20.773-22.636 20.773-11.124 0-21.73-4.516-23.541-19.225z" fill="#FFF"/></g></svg>