<svg width="400" height="400" xmlns="http://www.w3.org/2000/svg"><g fill="none" fill-rule="evenodd"><path fill="#3277C7" d="M0 0h400v400H0z"/><path stroke="#3277C7" stroke-width="6" fill="#FFF" d="M3 263h394v134H3z"/><path d="M62.136 199.636c4.455-1.166 9.44-5.62 9.44-15.378 0-11.455-7.106-18.88-19.515-18.88H30v74.243h22.803c14.636 0 21.53-7.742 21.53-20.47 0-12.09-6.151-17.075-12.197-19.09v-.425zm-16.651-4.878v-15.91h4.879c4.454 0 6.788 2.97 6.788 7.849 0 5.197-2.546 8.06-6.576 8.06h-5.091zm0 31.394V207.06h6.151c4.455 0 7.319 3.818 7.319 10.075 0 5.41-2.228 9.016-7 9.016h-6.47zm63.954 13.47l-9.333-26.728-2.015.106h-2.227v26.621H80.379V165.38h22.59c14.637 0 22.273 10.076 22.273 24.5 0 9.015-3.5 16.227-10.075 19.515l11.666 30.227H109.44zm-13.575-39.455h6.363c4.455 0 7.425-3.182 7.425-10.076 0-6.258-2.652-10.076-7.743-10.076h-6.045v20.152zm36.59 39.454V165.38h15.485v74.242h-15.484zm58.652 0l-19.833-41.47h-.318c0 .107.106 9.122.106 17.819v23.651h-14.849V165.38h15.697l19.833 43.06h.319c0-.106-.106-8.272-.106-17.818V165.38h14.848v74.242h-15.697zm23.97-74.242h23.015c19.09 0 27.576 14 27.576 37.44 0 23.014-7.955 36.802-26.94 36.802h-23.651V165.38zm15.485 59.5h6.045c8.697 0 13.258-5.727 13.258-21.637 0-17.818-4.561-23.12-13.046-23.12h-6.257v44.757zm41.575 14.742V165.38h15.485v74.242h-15.485zm21.637-18.666l14.954-4.137c.53 6.046 2.864 9.758 8.38 9.758 4.135 0 6.787-2.015 6.787-6.576 0-5.94-4.879-7.742-11.773-11.455-7.53-4.136-17.182-9.333-17.182-24.5 0-11.878 6.47-20.045 21.743-20.045 11.454 0 21.53 4.56 23.333 19.515l-14.954 4.03c-.955-6.787-3.394-9.12-7.955-9.12-4.136 0-6.258 1.802-6.258 5.833 0 5.62 4.137 7.424 12.091 11.56 8.38 4.243 16.758 9.121 16.758 23.652 0 14.424-7.849 21.53-22.273 21.53-12.409 0-22.166-5.621-23.651-20.045zm52.5 18.666V165.38h15.485v74.242h-15.485z" fill="#FFF"/><path d="M60.193 368.567L50.496 340.8l-2.094.11h-2.314v27.658H30v-77.134h23.471c15.207 0 23.14 10.468 23.14 25.454 0 9.366-3.636 16.86-10.468 20.276l12.121 31.404H60.193zm-14.105-40.991H52.7c4.628 0 7.713-3.306 7.713-10.469 0-6.5-2.755-10.468-8.044-10.468h-6.28v20.937zm38.017 40.991v-77.134h42.204v15.316h-26.116v14.876h19.504v14.876h-19.504v16.75h26.667v15.316H84.105zm50.248-77.134h22.479c14.545 0 23.36 9.035 23.36 26.556 0 15.978-8.815 26.005-23.25 26.005h-6.501v24.573h-16.088v-77.134zm16.198 37.906h5.29c5.73 0 8.153-3.526 8.264-11.13 0-7.272-2.314-11.46-8.265-11.46h-5.4l.111 22.59zm34.27.55c0-29.2 10.578-39.889 28.32-39.889 17.74 0 28.43 10.579 28.43 40.11 0 29.091-10.58 39.89-28.43 39.89-17.631 0-28.32-10.468-28.32-40.11zm16.529-.11c0 19.064 3.857 24.794 11.9 24.794 7.824 0 11.791-5.51 11.791-24.353 0-19.173-3.967-24.793-11.79-24.793-8.044 0-11.901 5.73-11.901 24.353zm77.025 38.788l-9.697-27.768-2.094.11h-2.314v27.658h-16.088v-77.134h23.47c15.208 0 23.141 10.468 23.141 25.454 0 9.366-3.636 16.86-10.468 20.276l12.121 31.404h-18.071zm-14.105-40.991h6.612c4.628 0 7.713-3.306 7.713-10.469 0-6.5-2.755-10.468-8.044-10.468h-6.281v20.937zm81.212-20.827h-15.757v61.818h-15.978V306.75h-15.758v-15.316h47.493v15.316z" fill="#2B2B2B"/></g></svg>