<svg width="400" height="400" xmlns="http://www.w3.org/2000/svg"><g fill="none" fill-rule="evenodd"><path fill="#F2463D" d="M0 0h400v400H0z"/><path stroke="#F2463D" stroke-width="6" fill="#FFF" d="M3 263h394v134H3z"/><path d="M70.35 306.75h-9.614v61.817H44.758V306.75H29v-15.316h47.493v5.317c-2.536 2.528-4.598 5.828-6.144 10zm200.413 34.27v27.547h-16.088V341.02l-19.835-49.586h18.182l7.163 21.157c1.542 4.848 2.754 9.146 2.865 9.256h.44c.11-.11 1.323-4.408 2.976-9.146l7.382-21.267h16.42l-19.505 49.586zM72.526 329.89c0-29.201 10.579-39.89 28.32-39.89 17.74 0 28.43 10.579 28.43 40.11 0 29.091-10.579 39.89-28.43 39.89-17.631 0-28.32-10.468-28.32-40.11zm16.53-.11c0 19.063 3.856 24.793 11.9 24.793 7.824 0 11.79-5.51 11.79-24.353 0-19.173-3.966-24.793-11.79-24.793-8.044 0-11.9 5.73-11.9 24.353zm46.831-38.347H159.8c19.835 0 28.65 14.545 28.65 38.898 0 23.911-8.264 38.236-27.989 38.236h-24.573v-77.134zm16.088 61.818h6.281c9.036 0 13.774-5.95 13.774-22.48 0-18.512-4.738-24.022-13.553-24.022h-6.502v46.502zm72.177 1.763H206.74l-2.314 13.553h-16.309l16.199-77.134h22.92l16.198 77.134h-16.86l-2.423-13.553zm-2.645-14.876l-3.416-19.174c-1.212-6.832-2.314-14.215-2.424-14.325h-.441c0 .11-1.212 7.383-2.424 14.215l-3.416 19.284h12.12z" fill="#2B2B2B"/><path d="M74.73 240.567V218.86c0-16.309.22-29.532.22-29.642h-.33c-.11.11-2.204 8.374-4.628 16.86l-5.07 17.19H54.235l-4.959-17.08c-2.534-8.706-4.628-16.86-4.628-16.97h-.44c0 .11.22 13.333.22 29.642v21.707H29v-77.134h20.165l11.46 33.388h.33l10.69-33.388h19.173v77.134H74.73zm22.7-38.677c0-29.201 10.578-39.89 28.32-39.89 17.74 0 28.43 10.579 28.43 40.11 0 29.091-10.58 39.89-28.43 39.89-17.632 0-28.32-10.468-28.32-40.11zm16.529-.11c0 19.063 3.856 24.793 11.9 24.793 7.824 0 11.791-5.51 11.791-24.353 0-19.173-3.967-24.793-11.79-24.793-8.045 0-11.901 5.73-11.901 24.353zm83.085 38.787l-20.606-43.085h-.33c0 .11.11 9.477.11 18.512v24.573H160.79v-77.134h16.308l20.606 44.738h.33c0-.11-.11-8.595-.11-18.513v-26.225h15.428v77.134h-16.309zm69.091-60.936l-21.377 35.482c-3.196 5.51-5.95 9.587-5.95 9.697l.22.44H266.466v15.317h-45.95V225.03l22.92-37.245c2.864-4.738 5.289-8.485 5.289-8.595l-.22-.44H221.616v-15.317h44.518v16.198zm40.551 47.383h-17.41l-2.315 13.553h-16.308l16.198-77.134h22.92l16.199 77.134h-16.86l-2.424-13.553zm-2.645-14.876l-3.416-19.174c-1.212-6.832-2.314-14.215-2.424-14.325h-.44c0 .11-1.213 7.383-2.425 14.215l-3.416 19.284h12.121z" fill="#FFF"/></g></svg>