<svg width="400" height="400" xmlns="http://www.w3.org/2000/svg"><g fill="none" fill-rule="evenodd"><path fill="#F2463D" d="M0 0h400v400H0z"/><path stroke="#F2463D" stroke-width="6" fill="#FFF" d="M3 263h394v134H3z"/><path d="M71.35 306.75h-9.614v61.817H45.758V306.75H30v-15.316h47.493v5.317c-2.536 2.528-4.598 5.828-6.144 10zm200.413 34.27v27.547h-16.088V341.02l-19.835-49.586h18.182l7.163 21.157c1.542 4.848 2.754 9.146 2.865 9.256h.44c.11-.11 1.323-4.408 2.976-9.146l7.382-21.267h16.42l-19.505 49.586zM73.526 329.89c0-29.201 10.579-39.89 28.32-39.89 17.74 0 28.43 10.579 28.43 40.11 0 29.091-10.579 39.89-28.43 39.89-17.631 0-28.32-10.468-28.32-40.11zm16.53-.11c0 19.063 3.856 24.793 11.9 24.793 7.824 0 11.79-5.51 11.79-24.353 0-19.173-3.966-24.793-11.79-24.793-8.044 0-11.9 5.73-11.9 24.353zm46.831-38.347H160.8c19.835 0 28.65 14.545 28.65 38.898 0 23.911-8.264 38.236-27.989 38.236h-24.573v-77.134zm16.088 61.818h6.281c9.036 0 13.774-5.95 13.774-22.48 0-18.512-4.738-24.022-13.553-24.022h-6.502v46.502zm72.177 1.763H207.74l-2.314 13.553h-16.309l16.199-77.134h22.92l16.198 77.134h-16.86l-2.423-13.553zm-2.645-14.876l-3.416-19.174c-1.212-6.832-2.314-14.215-2.424-14.325h-.441c0 .11-1.212 7.383-2.424 14.215l-3.416 19.284h12.12z" fill="#2B2B2B"/><path d="M64.629 198.914v.457c6.514 2.172 13.142 7.543 13.142 20.572 0 13.714-7.428 22.057-23.2 22.057H30v-80h23.771c13.372 0 21.029 8 21.029 20.343 0 10.514-5.371 15.314-10.171 16.571zm-17.943-5.257h5.485c4.343 0 7.086-3.086 7.086-8.686 0-5.257-2.514-8.457-7.314-8.457h-5.257v17.143zm0 33.829h6.971c5.143 0 7.543-3.886 7.543-9.715 0-6.742-3.086-10.857-7.886-10.857h-6.628v20.572zm71.771.457H100.4L98 242H81.086l16.8-80h23.771l16.8 80h-17.486l-2.514-14.057zm-2.743-15.429l-3.543-19.885c-1.257-7.086-2.4-14.743-2.514-14.858h-.457c0 .115-1.257 7.658-2.514 14.743l-3.543 20h12.571zM175.486 242l-10.057-28.8-2.172.114h-2.4V242h-16.686v-80h24.343c15.772 0 24 10.857 24 26.4 0 9.714-3.771 17.486-10.857 21.029L194.23 242h-18.743zm-14.629-42.514h6.857c4.8 0 8-3.429 8-10.857 0-6.743-2.857-10.858-8.343-10.858h-6.514v21.715zM200.286 242v-80h16.685v80h-16.685z" fill="#FFF"/></g></svg>