<svg width="400" height="400" xmlns="http://www.w3.org/2000/svg"><g fill="none" fill-rule="evenodd"><path stroke="#3277C7" stroke-width="6" fill="#FFF" d="M3 3h394v134H3z"/><path fill="#3277C7" d="M0 140h401v260H0z"/><path d="M88.754 67.022c0 24.512-7.861 36.56-21.516 39.745V122H51.516v-15.233C37.999 103.582 30 91.534 30 67.022 30 37.802 41.034 27 59.377 27c18.343 0 29.377 10.802 29.377 40.022zm-29.377 25.62c8.689 0 13.102-6.37 13.102-25.482 0-18.833-4.413-25.204-13.102-25.204s-12.964 6.37-12.964 25.204c0 19.388 4.275 25.481 12.964 25.481zm87.844-64.257v50.408c0 19.665-9.103 28.805-25.516 28.805-17.378 0-26.205-9.14-26.205-28.805V28.385h16v51.377c0 8.448 2.758 12.88 10.205 12.88 7.31 0 10.344-4.432 10.344-12.88V28.385h15.172zm9.918 77.55v-77.55H173v77.55h-15.86z" fill="#2B2B2B" fill-rule="nonzero"/><path d="M70.317 217.883c-1.9 6.736-4.751 11.272-11.538 11.272-8.417 0-12.625-6.598-12.625-25.98 0-16.907 3.801-24.33 12.76-24.33 8.417 0 10.453 7.286 11.539 12.509l14.118-3.711C81.856 170.186 72.489 164 58.643 164 40.86 164 30 174.86 30 203.588 30 233.003 41.267 244 58.643 244c15.882 0 22.534-8.935 25.928-22.13l-14.254-3.987zm19.13-14.158c0-29.003 10.859-39.725 28.914-39.725 18.054 0 28.914 10.722 28.914 39.725 0 28.729-10.86 40.275-28.914 40.275-18.055 0-28.915-11.546-28.915-40.275zm16.153.138c0 19.244 4.208 25.292 12.76 25.292 8.553 0 12.897-6.323 12.897-25.292 0-18.695-4.344-25.018-12.896-25.018-8.553 0-12.76 6.323-12.76 25.018zm96.506 38.488h15.61v-76.976h-18.19l-8.009 22.543c-2.85 7.972-4.344 13.058-4.48 13.058h-.407c-.135 0-1.629-5.086-4.48-12.921l-8.008-22.68h-19.277v76.976h14.525v-27.217c0-11.684-.135-26.117-.135-26.254h.407l10.724 35.326h10.453l10.995-34.914h.407c0 .138-.135 14.57-.135 26.254v26.805zm23.065-38.626c0-29.003 10.86-39.725 28.915-39.725C272.14 164 283 174.722 283 203.725 283 232.454 272.14 244 254.086 244c-18.055 0-28.915-11.546-28.915-40.275zm16.154.138c0 19.244 4.209 25.292 12.76 25.292 8.553 0 12.897-6.323 12.897-25.292 0-18.695-4.344-25.018-12.896-25.018s-12.76 6.323-12.76 25.018z" fill="#FFF" fill-rule="nonzero"/></g></svg>