<svg width="400" height="400" xmlns="http://www.w3.org/2000/svg"><g fill="none" fill-rule="evenodd"><path fill="#3277C7" d="M0 0h400v400H0z"/><path stroke="#3277C7" stroke-width="6" fill="#FFF" d="M3 263h394v134H3z"/><path d="M62.554 200.1c4.512-1.183 9.562-5.695 9.562-15.58 0-11.603-7.199-19.123-19.769-19.123H30v75.206h23.1c14.826 0 21.81-7.843 21.81-20.735 0-12.248-6.232-17.298-12.356-19.34v-.429zm-16.868-4.943v-16.116h4.942c4.512 0 6.876 3.009 6.876 7.95 0 5.265-2.578 8.166-6.661 8.166h-5.157zm0 31.802v-19.34h6.231c4.513 0 7.414 3.869 7.414 10.207 0 5.48-2.257 9.133-7.091 9.133h-6.554zm64.785 13.644l-9.454-27.074-2.042.107H96.72v26.967H81.033v-75.206h22.884c14.827 0 22.562 10.206 22.562 24.818 0 9.132-3.545 16.438-10.206 19.768l11.818 30.62h-17.62zM96.72 200.636h6.446c4.513 0 7.52-3.223 7.52-10.206.001-6.34-2.685-10.207-7.842-10.207h-6.124v20.413zm37.066 39.967v-75.206h41.149v14.934H149.47v14.504h19.017v14.504H149.47v16.33h26v14.934h-41.686zm46.091-18.909l15.149-4.19c.537 6.124 2.9 9.884 8.487 9.884 4.19 0 6.876-2.04 6.876-6.66 0-6.017-4.942-7.844-11.925-11.604-7.628-4.19-17.405-9.455-17.405-24.818 0-12.033 6.554-20.306 22.025-20.306 11.603 0 21.81 4.62 23.636 19.769l-15.149 4.082c-.967-6.876-3.438-9.24-8.058-9.24-4.19 0-6.338 1.827-6.338 5.91 0 5.694 4.19 7.52 12.247 11.71 8.488 4.298 16.976 9.24 16.976 23.96 0 14.61-7.95 21.809-22.562 21.809-12.57 0-22.455-5.694-23.959-20.306zm88.207-5.801l15.041 3.975c-2.686 11.603-8.38 22.132-25.14 22.132-15.794 0-26.86-9.67-26.86-39.215 0-29.223 10.959-38.785 27.397-38.785 15.363 0 22.347 8.595 24.388 21.488l-15.041 4.082c-1.397-6.446-4.083-10.529-9.992-10.529-7.306 0-10.636 5.91-10.636 23.422 0 18.909 3.653 24.496 10.743 24.496 6.017 0 8.703-4.298 10.1-11.066zm21.595 24.71v-75.206h15.686v75.206h-15.686zm56.19-13.215h-16.975l-2.257 13.215h-15.9l15.793-75.206h22.347l15.793 75.206h-16.438l-2.363-13.215zm-2.579-14.504l-3.33-18.694c-1.182-6.661-2.257-13.86-2.364-13.967h-.43c0 .108-1.182 7.198-2.363 13.86l-3.33 18.801h11.817z" fill="#FFF"/><path d="M70.567 307.19h-9.432v60.648H45.46v-60.649H30v-15.027h46.595v5.217c-2.488 2.48-4.512 5.718-6.028 9.81zm196.622 33.62v27.028h-15.784V340.81l-19.46-48.649h17.839l7.027 20.757c1.513 4.757 2.703 8.973 2.81 9.081h.433c.108-.108 1.297-4.324 2.919-8.973l7.243-20.865h16.108l-19.135 48.649zM72.703 329.89c0-29.201 10.378-39.89 27.783-39.89 17.406 0 27.892 10.579 27.892 40.11 0 29.091-10.378 39.89-27.892 39.89-17.297 0-27.783-10.468-27.783-40.11zm16.216-.11c0 19.063 3.784 24.793 11.676 24.793 7.675 0 11.567-5.51 11.567-24.353 0-19.173-3.892-24.793-11.567-24.793-7.892 0-11.676 5.73-11.676 24.353zm45.946-37.618h23.46c19.459 0 28.107 14.27 28.107 38.162 0 23.46-8.108 37.514-27.459 37.514h-24.108v-75.676zm15.784 60.649h6.162c8.865 0 13.513-5.838 13.513-22.054 0-18.162-4.648-23.568-13.297-23.568h-6.378v45.622zm70.81 1.73h-17.08l-2.27 13.297h-16L202 292.162h22.486l15.892 75.676h-16.54l-2.379-13.297zm-2.594-14.595l-3.351-18.81c-1.19-6.704-2.27-13.947-2.379-14.055h-.432c0 .108-1.19 7.243-2.379 13.946l-3.351 18.919h11.892z" fill="#2B2B2B"/></g></svg>