<?xml version="1.0" encoding="UTF-8"?>
<svg width="32px" height="32px" viewBox="0 0 32 32" version="1.1" xmlns="http://www.w3.org/2000/svg" xmlns:xlink="http://www.w3.org/1999/xlink">
    <!-- Generator: Sketch 49 (51002) - http://www.bohemiancoding.com/sketch -->
    <title>icons/black/user</title>
    <desc>Created with Sketch.</desc>
    <defs></defs>
    <g id="icons/black/user" stroke="none" stroke-width="1" fill="none" fill-rule="evenodd">
        <path d="M16,17.6 C10.8917895,17.6 6.73684211,13.6528 6.73684211,8.8 C6.73684211,3.9472 10.8917895,0 16,0 C21.1082105,0 25.2631579,3.9472 25.2631579,8.8 C25.2631579,13.6528 21.1082105,17.6 16,17.6 Z M16,1.6 C20.1785263,1.6 23.5789474,4.8304 23.5789474,8.8 C23.5789474,12.7696 20.1785263,16 16,16 C11.8214737,16 8.42105263,12.7696 8.42105263,8.8 C8.42105263,4.8304 11.8214737,1.6 16,1.6 Z M29.4736842,32 L2.52631579,32 C1.13347368,32 0,30.9232 0,29.6 C0,29.4912 0.0235789474,26.904 2.06315789,24.32 C3.25052632,22.816 4.87578947,21.6208 6.89515789,20.7696 C9.36084211,19.728 12.4244211,19.2 16,19.2 C19.5755789,19.2 22.6391579,19.728 25.1048421,20.7696 C27.1242105,21.6224 28.7494737,22.816 29.9368421,24.32 C31.9764211,26.904 32,29.4912 32,29.6 C32,30.9232 30.8665263,32 29.4736842,32 Z M16,20.8 C10.1271579,20.8 5.79368421,22.3248 3.46778947,25.2096 C1.72463158,27.3712 1.68589474,29.5808 1.68421053,29.6032 C1.68421053,30.0416 2.06147368,30.4 2.52631579,30.4 L29.4736842,30.4 C29.9385263,30.4 30.3157895,30.0416 30.3157895,29.6 C30.3157895,29.5808 30.2770526,27.3712 28.5322105,25.2096 C26.2046316,22.3248 21.8711579,20.8 16,20.8 Z" id="shape" fill="#212121"></path>
    </g>
</svg>