<?xml version="1.0" encoding="UTF-8"?>
<svg width="148px" height="48px" viewBox="0 0 148 48" version="1.1" xmlns="http://www.w3.org/2000/svg" xmlns:xlink="http://www.w3.org/1999/xlink">
    <!-- Generator: Sketch 45.2 (43514) - http://www.bohemiancoding.com/sketch -->
    <title>casa-channel-logo</title>
    <desc>Created with Sketch.</desc>
    <defs></defs>
    <g id="Page-1" stroke="none" stroke-width="1" fill="none" fill-rule="evenodd">
        <g id="casa-channel-logo" fill="#FFFFFF">
            <path d="M24.724234,44 C11.1866295,44 4,37.2496513 4,27.8214784 C4,12.6471409 16.7576602,4 31.4651811,4 C35.2534819,4 39.1532033,4.44630404 41.6601671,5.50627615 L40.7130919,18.7280335 L39.8774373,18.7280335 C38.7075209,15.8828452 36.9247911,12.0334728 36.0334262,10.4156206 C34.0835655,6.62203626 32.9693593,5.50627615 31.1309192,5.50627615 C25.1699164,5.50627615 21.6044568,22.3542538 21.6044568,34.013947 C21.6044568,39.5927476 23.1643454,42.4937238 25.6713092,42.4937238 C28.0668524,42.4937238 29.7938719,40.5411437 32.189415,37.4170153 C34.4735376,34.460251 36.3119777,31.5592748 38.1504178,28.7140865 L39.0417827,28.7140865 L36.0891365,42.3263598 C32.8022284,43.4979079 28.1225627,44 24.724234,44 Z M56.9247911,37.3612273 C57.816156,37.3612273 58.4846797,36.7475593 59.097493,35.6875872 L63.275766,15.7712692 C63.1086351,14.9344491 62.6629526,14.5439331 61.994429,14.5439331 C59.097493,14.5439331 55.3091922,27.1520223 55.3091922,34.6276151 C55.3091922,36.3570432 55.810585,37.3612273 56.9247911,37.3612273 Z M59.097493,37.8075314 L58.9303621,37.8075314 C56.7019499,41.0432357 53.2479109,44 48.4568245,44 C43.7214485,44 40.9916435,40.6527197 40.9916435,35.4644351 C40.9916435,22.6331939 49.9052925,12.9818689 62.3844011,12.9818689 C66.5626741,12.9818689 69.9052925,13.986053 72.3008357,15.9386332 L72.5236769,15.9386332 L77.9275766,13.2608089 L78.5961003,13.4839609 C78.3175487,14.320781 77.9832869,15.2133891 77.7047354,16.2175732 C77.2033426,17.9470014 76.5348189,20.4016736 75.9220056,23.3026499 L73.5264624,35.5760112 C73.3593315,36.1896792 73.3036212,36.8033473 73.3036212,37.2496513 C73.3036212,38.3654114 74.0278552,38.8675035 75.8662953,37.8075314 L76.4791086,37.4728033 L77.0362117,38.3096234 C73.0807799,42.0474198 69.1810585,44 64.5571031,44 C60.9916435,44 59.0417827,42.0474198 59.0417827,38.9232915 C59.0417827,38.4769874 59.0417827,38.3096234 59.097493,37.8075314 Z M88.902507,44 C80.4902507,44 76.8690808,41.2105997 76.8690808,37.5843794 C76.8690808,35.1297071 78.7632312,33.679219 81.4373259,33.679219 C84.8356546,33.679219 85.8941504,35.3528591 87.0640669,39.8158996 C87.6768802,42.0474198 88.4011142,42.5495119 90.3509749,42.5495119 C92.3008357,42.5495119 93.5821727,41.0990237 93.5821727,39.3138075 C93.5821727,36.9707113 90.7409471,35.7991632 86.9526462,33.846583 C81.3259053,31.0571827 79.821727,27.7099024 79.821727,24.362622 C79.821727,17.6122734 86.2284123,13.1492329 94.6406685,13.1492329 C102.16156,13.1492329 105.949861,15.2691771 105.949861,19.0627615 C105.949861,21.2942817 104.557103,22.6889819 101.715877,22.6889819 C98.8746518,22.6889819 97.2590529,21.2384937 96.367688,17.5006974 C95.7548747,15.2133891 95.086351,14.6555091 93.3593315,14.6555091 C91.5208914,14.6555091 90.3509749,15.8828452 90.3509749,17.4449093 C90.3509749,19.5648536 91.8551532,20.0669456 98.0947075,23.3584379 C102.384401,25.5899582 104.724234,28.8256625 104.724234,32.6192469 C104.724234,39.4811715 97.7604457,44 88.902507,44 Z M122.328691,37.3612273 C123.220056,37.3612273 123.888579,36.7475593 124.501393,35.6875872 L128.679666,15.7712692 C128.512535,14.9344491 128.066852,14.5439331 127.398329,14.5439331 C124.501393,14.5439331 120.713092,27.1520223 120.713092,34.6276151 C120.713092,36.3570432 121.214485,37.3612273 122.328691,37.3612273 Z M124.501393,37.8075314 L124.334262,37.8075314 C122.10585,41.0432357 118.651811,44 113.860724,44 C109.125348,44 106.395543,40.6527197 106.395543,35.4644351 C106.395543,22.6331939 115.309192,12.9818689 127.788301,12.9818689 C131.966574,12.9818689 135.309192,13.986053 137.704735,15.9386332 L137.927577,15.9386332 L143.331476,13.2608089 L144,13.4839609 C143.721448,14.320781 143.387187,15.2133891 143.108635,16.2175732 C142.607242,17.9470014 141.938719,20.4016736 141.325905,23.3026499 L138.930362,35.5760112 C138.763231,36.1896792 138.707521,36.8033473 138.707521,37.2496513 C138.707521,38.3654114 139.431755,38.8675035 141.270195,37.8075314 L141.883008,37.4728033 L142.440111,38.3096234 C138.48468,42.0474198 134.584958,44 129.961003,44 C126.395543,44 124.445682,42.0474198 124.445682,38.9232915 C124.445682,38.4769874 124.445682,38.3096234 124.501393,37.8075314 Z" id="Casa"></path>
        </g>
    </g>
</svg>