<?xml version="1.0" encoding="UTF-8"?>
<svg width="149px" height="48px" viewBox="0 0 149 48" version="1.1" xmlns="http://www.w3.org/2000/svg" xmlns:xlink="http://www.w3.org/1999/xlink">
    <!-- Generator: Sketch 45.2 (43514) - http://www.bohemiancoding.com/sketch -->
    <title>gossip-channel-logo </title>
    <desc>Created with Sketch.</desc>
    <defs></defs>
    <g id="Page-1" stroke="none" stroke-width="1" fill="none" fill-rule="evenodd">
        <g id="gossip-channel-logo-" fill="#FFFFFF">
            <path d="M32.4297352,27.2098765 L31.1169625,34.7407407 C28.8606343,35.6872428 24.4300262,36.345679 19.8353215,36.345679 C9.90747745,36.345679 4,31.5720165 4,24 C4,12.5596708 14.4201338,6.83950617 24.922316,6.83950617 C28.1221996,6.83950617 31.527204,7.33333333 33.0861216,8.11522634 L32.4297352,17.8271605 L31.7733489,17.8271605 C30.99389,16.3045267 29.4759965,12.7242798 28.1632237,10.6255144 C26.9735234,8.6090535 25.9889438,7.95061728 24.6761711,7.95061728 C20.2045388,7.95061728 16.7174862,18.7736626 16.7174862,30.6255144 C16.7174862,34.5761317 17.3328484,35.2345679 18.7276695,35.2345679 C19.2199593,35.2345679 19.4661042,35.1934156 19.6712249,35.0699588 L21.066046,27.2510288 C21.5173116,24.4526749 21.4352633,24.1234568 19.9994181,23.5884774 L19.7122491,23.4650206 L19.8353215,22.8065844 L34.6040151,22.8065844 L34.4809427,23.4650206 L34.1527495,23.5884774 C32.8399767,24.1234568 32.9630492,24.2469136 32.4297352,27.2098765 Z M45.5574629,35.1934156 C46.3779459,35.1934156 47.0753564,34.2057613 47.6496945,32.2304527 C48.9624673,27.7037037 50.1111434,19.6378601 50.1111434,17.4567901 C50.1111434,15.4814815 49.9060227,14.7407407 49.0445156,14.7407407 C48.347105,14.7407407 47.8548152,15.4814815 47.239453,17.2510288 C45.8036078,21.6131687 44.6139075,30.3786008 44.6139075,32.5596708 C44.6139075,34.2469136 44.7369799,35.1934156 45.5574629,35.1934156 Z M45.5984871,36.345679 C38.8295025,36.345679 34.3988944,32.4773663 34.3988944,26.6748971 C34.3988944,18.6502058 40.7576375,13.5884774 48.9624673,13.5884774 C56.5109107,13.5884774 60.4902531,17.7860082 60.4902531,23.218107 C60.4902531,31.3251029 54.2545825,36.345679 45.5984871,36.345679 Z M69.1053244,36.345679 C62.9106779,36.345679 60.2441082,34.2880658 60.2441082,31.6131687 C60.2441082,29.8024691 61.6389293,28.7325103 63.6080884,28.7325103 C66.1105615,28.7325103 66.8900204,29.9670782 67.7515275,33.2592593 C68.2027931,34.9053498 68.7361071,35.2757202 70.1719523,35.2757202 C71.6077975,35.2757202 72.5513529,34.2057613 72.5513529,32.8888889 C72.5513529,31.1604938 70.4591213,30.2962963 67.6694792,28.8559671 C63.5260402,26.7983539 62.4183881,24.3292181 62.4183881,21.8600823 C62.4183881,16.8806584 67.1361653,13.5884774 73.3308118,13.5884774 C78.8690719,13.5884774 81.658714,15.1522634 81.658714,17.9506173 C81.658714,19.5967078 80.6331103,20.6255144 78.5408787,20.6255144 C76.4486471,20.6255144 75.2589468,19.5555556 74.6025604,16.7983539 C74.1512947,15.1111111 73.6590049,14.6995885 72.3872563,14.6995885 C71.0334594,14.6995885 70.1719523,15.6049383 70.1719523,16.7572016 C70.1719523,18.3209877 71.2796043,18.691358 75.874309,21.1193416 C79.0331685,22.7654321 80.7561827,25.1522634 80.7561827,27.9506173 C80.7561827,33.0123457 75.6281641,36.345679 69.1053244,36.345679 Z M90.2327611,36.345679 C84.0381146,36.345679 81.371545,34.2880658 81.371545,31.6131687 C81.371545,29.8024691 82.766366,28.7325103 84.7355252,28.7325103 C87.2379983,28.7325103 88.0174571,29.9670782 88.8789642,33.2592593 C89.3302299,34.9053498 89.8635438,35.2757202 91.299389,35.2757202 C92.7352342,35.2757202 93.6787896,34.2057613 93.6787896,32.8888889 C93.6787896,31.1604938 91.586558,30.2962963 88.7969159,28.8559671 C84.6534769,26.7983539 83.5458248,24.3292181 83.5458248,21.8600823 C83.5458248,16.8806584 88.263602,13.5884774 94.4582485,13.5884774 C99.9965086,13.5884774 102.786151,15.1522634 102.786151,17.9506173 C102.786151,19.5967078 101.760547,20.6255144 99.6683154,20.6255144 C97.5760838,20.6255144 96.3863835,19.5555556 95.7299971,16.7983539 C95.2787315,15.1111111 94.7864417,14.6995885 93.514693,14.6995885 C92.1608961,14.6995885 91.299389,15.6049383 91.299389,16.7572016 C91.299389,18.3209877 92.407041,18.691358 97.0017457,21.1193416 C100.160605,22.7654321 101.883619,25.1522634 101.883619,27.9506173 C101.883619,33.0123457 96.7556008,36.345679 90.2327611,36.345679 Z M112.631946,12.9300412 C115.626709,12.9300412 117.554844,10.9135802 117.554844,8.27983539 C117.554844,5.64609053 115.83183,4 112.878091,4 C109.80128,4 107.832121,6.01646091 107.832121,8.65020576 C107.832121,11.4074074 109.678208,12.9300412 112.631946,12.9300412 Z M104.057899,29.2674897 L105.903986,20.1316872 C105.94501,19.8436214 105.986034,19.6378601 105.986034,19.308642 C105.986034,18.4855967 105.411696,17.9917695 104.057899,18.9382716 L103.688682,19.1851852 L103.237416,18.6090535 C105.45272,16.2633745 108.980797,13.6707819 112.672971,13.6707819 C115.462613,13.6707819 116.81641,15.1522634 116.81641,17.4567901 C116.81641,18.2386831 116.775386,18.7736626 116.447192,20.4197531 L114.437009,30.2139918 C114.313937,30.8312757 114.231888,31.1604938 114.231888,31.6131687 C114.231888,32.3950617 114.847251,32.436214 116.118999,31.6954733 L116.611289,31.4074074 L117.02153,32.0658436 C114.765202,34.2469136 111.524294,36.345679 107.503928,36.345679 C104.714286,36.345679 103.524585,34.8641975 103.524585,33.0534979 C103.524585,32.0246914 103.647658,31.4074074 104.057899,29.2674897 Z M127.154495,13.6707819 C129.492872,13.6707819 130.887693,14.9876543 130.887693,17.6213992 C130.887693,18.0740741 130.846669,18.7325103 130.723596,19.3497942 L130.846669,19.3497942 C132.610707,16.2633745 135.892639,13.6707819 139.543788,13.6707819 C142.661624,13.6707819 145,16.18107 145,20.6255144 C145,30.872428 138.846378,36.345679 131.010765,36.345679 C129.410823,36.345679 128.59034,36.2222222 127.769857,36.0576132 L126.867326,40.6255144 C126.539133,42.436214 126.580157,42.6419753 128.754437,43.3004115 L128.877509,43.3415638 L128.754437,44 L113.329357,44 L113.452429,43.3415638 L113.821647,43.218107 C115.749782,42.5596708 115.913878,42.436214 116.242072,40.6255144 L120.139366,20.9547325 C120.262438,20.3374486 120.385511,19.7201646 120.385511,19.3909465 C120.385511,18.2798354 119.729124,18.1152263 118.457376,18.9382716 L118.088158,19.1851852 L117.636893,18.6090535 C120.057317,16.0987654 123.216177,13.6707819 127.154495,13.6707819 Z M129.328775,35.2345679 C131.667152,35.2345679 133.92348,25.6872428 133.92348,20.5432099 C133.92348,19.2674897 133.677335,18.8148148 133.061973,18.8148148 C132.077393,18.8148148 131.092814,20.2139918 130.76462,20.7489712 L128.098051,33.9588477 C128.139075,34.6584362 128.549316,35.2345679 129.328775,35.2345679 Z" id="Gossip"></path>
        </g>
    </g>
</svg>