<svg height="50" viewBox="0 0 311 50" width="311" xmlns="http://www.w3.org/2000/svg">
  <g fill="none" fill-rule="evenodd">
    <path d="m18.8526267 49.1046832-6.0548582-17.3553719-1.307299.0688705h-1.4449093v17.2865014h-10.0455602v-48.2093664h14.6555091c9.4951185 0 14.4490934 6.54269973 14.4490934 15.9090909 0 5.8539945-2.2705718 10.5371901-6.5364946 12.6721763l7.5685727 19.6280992zm-8.8070665-25.6198347h4.1283124c2.8898187 0 4.8163645-2.0661157 4.8163645-6.5426997 0-4.0633609-1.7201302-6.5426998-5.0227801-6.5426998h-3.9218968zm21.8112506 1.446281c0-18.25068873 6.6052998-24.9311295 17.6829382-24.9311295 11.0776383 0 17.7517433 6.61157025 17.7517433 25.0688705 0 18.1818182-6.6052998 24.9311295-17.7517433 24.9311295-11.0088331 0-17.6829382-6.5426997-17.6829382-25.0688705zm10.320781-.0688705c0 11.9146005 2.4081823 15.4958677 7.4309624 15.4958677 4.8851696 0 7.3621571-3.4435261 7.3621571-15.2203857 0-11.983471-2.4769875-15.49586772-7.3621571-15.49586772-5.0227801 0-7.4309624 3.58126722-7.4309624 15.22038572zm57.7963738 24.2424242v-13.5674931c0-10.1928375.1376104-18.4573003.1376104-18.5261708h-.2064156c-.0688052.0688705-1.3761041 5.2341598-2.8898187 10.5371901l-3.1650395 10.7438016h-6.6741051l-3.0962343-10.6749311c-1.5825198-5.4407714-2.8898187-10.5371901-2.8898187-10.6060606h-.2752208c0 .0688705.1376104 8.3333333.1376104 18.5261708v13.5674931h-9.632729v-48.2093664h12.5913529l7.1557415 20.8677686h.2064156l6.6741051-20.8677686h11.9721062v48.2093664zm35.9851234-8.4710744h-10.871223l-1.444909 8.4710744h-10.183171l10.114366-48.2093664h14.311483l10.114365 48.2093664h-10.527197zm-1.651325-9.2975206-2.132962-11.9834711c-.756857-4.2699725-1.444909-8.8842975-1.513714-8.9531681h-.275221c0 .0688706-.756857 4.6143251-1.513715 8.8842976l-2.132961 12.0523416z" fill="#ffffff"/>
    <path d="m173.796984 10.4683196h-5.997743v38.6363636h-9.968368v-38.6363636h-9.830873v-9.5730028h29.630114v3.32317129c-1.582031 1.58041641-2.868827 3.64284595-3.83313 6.24983151zm125.034733 21.4187327v17.2176309h-10.037116v-17.2176309l-12.374525-30.9917355h11.343315l4.468579 13.2231405c.962463 3.030303 1.718684 5.7162534 1.787431 5.785124h.27499c.068747-.0688706.824968-2.754821 1.856178-5.7162535l4.606074-13.292011h10.243357zm-123.676508-6.9559228c0-18.25068873 6.599747-24.9311295 17.668072-24.9311295 11.068326 0 17.73682 6.61157025 17.73682 25.0688705 0 18.1818182-6.599747 24.9311295-17.73682 24.9311295-10.999578 0-17.668072-6.5426997-17.668072-25.0688705zm10.312104-.0688705c0 11.9146005 2.406158 15.4958677 7.424716 15.4958677 4.881063 0 7.355968-3.4435261 7.355968-15.2203857 0-11.983471-2.474905-15.49586772-7.355968-15.49586772-5.018558 0-7.424716 3.58126722-7.424716 15.22038572zm29.21763-23.9669422h14.918178c12.374526 0 17.874315 9.0909091 17.874315 24.3112948 0 14.9449036-5.156053 23.8980716-17.461831 23.8980716h-15.330662zm10.037115 38.6363636h3.9186c5.637284 0 8.59342-3.7190082 8.59342-14.0495867 0-11.570248-2.956136-15.0137741-8.455925-15.0137741h-4.056095zm45.029524 1.1019284h-10.862084l-1.443695 8.4710744h-10.174609l10.105862-48.2093664h14.299452l10.105862 48.2093664h-10.518346zm-1.649937-9.2975206-2.131168-11.9834711c-.756221-4.2699725-1.443695-8.8842975-1.512442-8.9531681h-.27499c0 .0688706-.756221 4.6143251-1.512442 8.8842976l-2.131168 12.0523416z" fill="#212121"/>
  </g>
</svg>
