<svg class="c-brand" viewBox="0 0 340 50" xmlns="http://www.w3.org/2000/svg">
  <g id="sport-piacenza-web" fill="none" fill-rule="evenodd">
    <path class="c-brand__edition" d="M207.16 34.814l1.302 6.484h6.862l-7.631-32.714h-9.642l-7.63 32.714h6.625l1.3-6.484h8.815zm-1.183-5.783h-6.448l1.243-6.252c1.124-5.49 1.774-8.878 1.834-9.055h.236c0 .177.652 3.506 1.775 8.939l1.36 6.368zm107.431-13.144l-9.05 13.086c-2.84 4.03-4.319 5.666-4.319 5.724l.118.234s1.657-.058 4.083-.058h9.287V41.3h-21v-7.244l9.76-13.904c2.544-3.564 3.608-4.907 3.608-4.965l-.118-.176H293.12V8.584h20.29v7.303zm-24.343 25.412h-7.1l-9.878-20.68h-.177c0 .058.059 3.738.059 7.127V41.3h-6.388V8.585h7.098l9.878 20.095h.178c0-.058-.058-3.388-.058-6.776V8.584h6.388V41.3zm-46.231 0V8.585h18.87v6.426h-12.126v6.484h8.873v6.31h-8.873v7.068h12.363v6.426h-19.107zM233.397 30.9l6.212 1.694c-1.48 5.609-4.378 9.406-11.3 9.406-7.571 0-12.481-4.674-12.481-17.175C215.828 12.615 220.56 8 228.309 8c6.034 0 10.117 2.629 11.3 10.048l-6.153 1.578c-.473-2.22-1.36-5.317-5.027-5.317-3.905 0-5.562 3.155-5.562 10.34 0 8.238 1.835 11.042 5.502 11.042 2.957 0 4.2-1.929 5.028-4.79zm98.44 3.914h-8.814l-1.301 6.484h-6.626l7.631-32.714h9.642L340 41.298h-6.862l-1.301-6.484zm-1.184-5.783l-1.36-6.368c-1.123-5.433-1.775-8.762-1.775-8.939h-.236c-.06.177-.71 3.564-1.833 9.055l-1.244 6.252h6.448zM181.101 41.299V8.585h6.804v32.714H181.1zM158 8.584h9.643c6.447 0 10.648 3.797 10.648 11.042 0 6.951-4.2 10.807-10.59 10.807h-2.898v10.865H158V8.584zm6.803 16.123h2.78c2.78 0 4.14-1.694 4.14-4.965 0-3.213-1.301-4.848-4.14-4.848h-2.78v9.813z"/>
    <path class="c-brand__network" d="M38 33.296l6.032-1.636c.234 2.57 1.581 4.44 4.568 4.44 2.343 0 3.631-1.227 3.631-3.389 0-2.862-2.225-3.738-5.973-5.433-2.987-1.343-7.614-3.738-7.614-10.457C38.644 11.096 42.1 8 48.366 8c5.915 0 9.605 2.804 10.249 8.296l-5.798 1.577c-.41-2.687-1.64-4.031-4.1-4.031-2.166 0-3.513 1.11-3.513 3.096 0 2.57 2.108 3.447 6.149 5.258 3.572 1.694 7.555 4.206 7.555 10.399 0 6.542-4.217 9.405-10.25 9.405-5.036 0-9.838-2.045-10.658-8.704zm116-18.187h-7.425v26.193h-6.671V15.109h-7.425V8.706H154v6.403zm-29.382 26.193l-4.409-11.816h-3.016v11.816h-6.555V8.706h9.977c6.903 0 10.441 4.19 10.441 10.478 0 4.598-1.971 7.566-4.872 8.73l5.453 13.388h-7.019zm-7.425-17.113h3.016c2.61 0 4.12-1.572 4.12-4.54 0-3.144-1.451-4.598-4.236-4.598h-2.9v9.138zm-34.429.757c0-12.282 4.64-16.823 12.356-16.823 7.715 0 12.356 4.54 12.356 16.823C107.476 37.11 102.835 42 95.12 42c-7.716 0-12.356-4.89-12.356-17.054zm6.903.058c0 8.15 1.798 10.71 5.453 10.71 3.654 0 5.51-2.677 5.51-10.71 0-7.917-1.856-10.594-5.51-10.594-3.655 0-5.453 2.677-5.453 10.594zM61.155 8.706h9.454c6.322 0 10.441 3.783 10.441 11 0 6.926-4.119 10.767-10.383 10.767h-2.841v10.825h-6.67V8.706zm6.671 16.066h2.727c2.725 0 4.06-1.689 4.06-4.949 0-3.2-1.276-4.83-4.06-4.83h-2.727v9.779z"/>
    <g class="c-brand__icon" transform="translate(0 8)">
      <rect id="box" width="33" height="34" fill="#FFF" rx="4.106"/>
      <path id="figure" d="M.272 31.452A3.991 3.991 0 0 1 0 30V4c0-2.209 1.798-4 3.997-4h25.006A4 4 0 0 1 33 4v26c0 2.209-1.798 4-3.997 4h-10.98c1.672-2.6 3.365-5.211 3.884-6.068.797-1.321 1.08-3.499-.77-4.428-.415-.21-6.41-3.118-6.79-3.336-.377-.216-.307-.607.017-.809.323-.201 10.346-6.16 3.964-10.826-2.912-2.13-6.694-1.354-9.57.62-3.152 2.162-4.489 4.548-5.32 5.903-.091.15-.264 1.162.498.662.408-.266 3.87-4.09 6.046-4.497 1.804-.337 2.747.012 2.957.082.21.07.384.372.257.623-.075.148-3.754 5.739-4.253 6.487-.405.605-1.298 2.293-1.4 2.953-.184 1.193-.023 2.532 1.988 3.323 2.012.79 7.029 1.743 7.376 1.836.346.092.763.325.612.825-.083.278-1.391 3.567-2.616 6.65H3.997a3.977 3.977 0 0 1-1.768-.412 3.69 3.69 0 0 0 .493-.2c1.06-.566 7.186-5.606 7.545-5.849.508-.343.41-.967.126-1.06-1.745-.568-2.899-1.124-3.453-1.826-.522-.663-.997-.026-1.455.48-.249.275-3.361 4.835-4.183 5.63-.164.16-.536.401-1.03.69zM22.127 13.05c-.353-.3-.751-.259-.813.155-.083.572-.342 1.093-.66 1.708-.317.618-.115.777.36 1.006 1.22.59 3.029.832 4.686.464 2.661-.59 3.906-3.106 4.34-3.884.35-.627-.421-.98-.885-.546-.439.41-1.73 1.543-3.678 1.95-1.642.344-2.852-.43-3.35-.853zm5.159-6.356A3.685 3.685 0 0 0 23.61 3c-2.03 0-3.675 1.654-3.675 3.694s1.646 3.695 3.675 3.695c2.03 0 3.676-1.654 3.676-3.695z"/>
    </g>
  </g>
</svg>
