<svg xmlns="http://www.w3.org/2000/svg" viewBox="0 0 163 50">
  <g id="today-web" fill="none" fill-rule="evenodd">
    <path id="Network" fill="#2A9DDB" d="M25.797 10.468h-5.998v38.637H9.831V10.468H0V.895h29.63v3.323c-1.582 1.58-2.869 3.643-3.833 6.25zm125.035 21.42v17.217h-10.037V31.887L128.42.895h11.343l4.469 13.223c.962 3.03 1.719 5.717 1.787 5.786h.275c.07-.07.825-2.755 1.857-5.717L152.757.895H163l-12.168 30.992zM27.155 24.93C27.155 6.681 33.755 0 44.823 0 55.892 0 62.56 6.612 62.56 25.069 62.56 43.25 55.96 50 44.823 50c-11 0-17.668-6.543-17.668-25.069zm10.312-.069c0 11.915 2.406 15.496 7.425 15.496 4.881 0 7.356-3.443 7.356-15.22 0-11.984-2.475-15.496-7.356-15.496-5.019 0-7.425 3.581-7.425 15.22zM66.685.895h14.918c12.375 0 17.874 9.091 17.874 24.312 0 14.945-5.156 23.898-17.461 23.898H66.685V.895zm10.037 38.637h3.919c5.637 0 8.593-3.72 8.593-14.05 0-11.57-2.956-15.014-8.456-15.014h-4.056v29.064zm45.03 1.102h-10.863l-1.443 8.47H99.27L109.377.896h14.3l10.105 48.21h-10.518l-1.512-8.471zm-1.65-9.298l-2.132-11.983c-.756-4.27-1.443-8.885-1.512-8.954h-.275c0 .07-.756 4.615-1.512 8.885l-2.132 12.052h7.563z"/>
  </g>
</svg>
