<svg width="400" height="400" xmlns="http://www.w3.org/2000/svg"><g fill="none" fill-rule="evenodd"><path fill="#FFBE26" d="M0 0h400v260H0z"/><path stroke="#FFBE26" stroke-width="6" fill="#FFF" d="M3 263h394v134H3z"/><path d="M66.35 306.75h-9.614v61.817H40.758V306.75H25v-15.316h47.493v5.317c-2.536 2.528-4.598 5.828-6.144 10zm200.413 34.27v27.547h-16.088V341.02l-19.835-49.586h18.182l7.163 21.157c1.542 4.848 2.754 9.146 2.865 9.256h.44c.11-.11 1.323-4.408 2.976-9.146l7.382-21.267h16.42l-19.505 49.586zM68.526 329.89c0-29.201 10.579-39.89 28.32-39.89 17.74 0 28.43 10.579 28.43 40.11 0 29.091-10.579 39.89-28.43 39.89-17.631 0-28.32-10.468-28.32-40.11zm16.53-.11c0 19.063 3.856 24.793 11.9 24.793 7.824 0 11.79-5.51 11.79-24.353 0-19.173-3.966-24.793-11.79-24.793-8.044 0-11.9 5.73-11.9 24.353zm46.831-38.347H155.8c19.835 0 28.65 14.545 28.65 38.898 0 23.911-8.264 38.236-27.989 38.236h-24.573v-77.134zm16.088 61.818h6.281c9.036 0 13.774-5.95 13.774-22.48 0-18.512-4.738-24.022-13.553-24.022h-6.502v46.502zm72.177 1.763H202.74l-2.314 13.553h-16.309l16.199-77.134h22.92l16.198 77.134h-16.86l-2.423-13.553zm-2.645-14.876l-3.416-19.174c-1.212-6.832-2.314-14.215-2.424-14.325h-.441c0 .11-1.212 7.383-2.424 14.215l-3.416 19.284h12.12z" fill="#3B3B3B"/><path d="M70.73 241.567V219.86c0-16.309.22-29.532.22-29.642h-.33c-.11.11-2.204 8.374-4.628 16.86l-5.07 17.19H50.235l-4.959-17.08c-2.534-8.706-4.628-16.86-4.628-16.97h-.44c0 .11.22 13.333.22 29.642v21.707H25v-77.134h20.165l11.46 33.388h.33l10.69-33.388h19.173v77.134H70.73zm22.7-38.677c0-29.201 10.578-39.89 28.32-39.89 17.74 0 28.43 10.579 28.43 40.11 0 29.091-10.58 39.89-28.43 39.89-17.632 0-28.32-10.468-28.32-40.11zm16.529-.11c0 19.063 3.856 24.793 11.9 24.793 7.824 0 11.791-5.51 11.791-24.353 0-19.173-3.967-24.793-11.79-24.793-8.045 0-11.901 5.73-11.901 24.353zm46.832-38.347h23.911c19.835 0 28.65 14.545 28.65 38.898 0 23.911-8.264 38.236-27.988 38.236H156.79v-77.134zm16.088 61.818h6.28c9.037 0 13.775-5.95 13.775-22.48 0-18.512-4.738-24.022-13.554-24.022h-6.501v46.502zm43.195 15.316v-77.134h42.204v15.316h-26.115v14.876h19.504v14.876h-19.504v16.75h26.666v15.316h-42.755zm86.502 0l-20.606-43.085h-.33c0 .11.11 9.477.11 18.512v24.573h-15.428v-77.134h16.309l20.606 44.738h.33c0-.11-.11-8.595-.11-18.513v-26.225h15.427v77.134h-16.308zm57.851-13.553h-17.41l-2.315 13.553h-16.308l16.198-77.134h22.92l16.199 77.134h-16.86l-2.424-13.553zm-2.645-14.876l-3.416-19.174c-1.212-6.832-2.314-14.215-2.424-14.325h-.44c0 .11-1.213 7.383-2.425 14.215l-3.416 19.284h12.121z" fill="#FFF"/></g></svg>