<svg width="400" height="400" xmlns="http://www.w3.org/2000/svg"><g fill="none" fill-rule="evenodd"><path fill="#3277C7" d="M0 0h400v400H0z"/><path stroke="#3277C7" stroke-width="6" fill="#FFF" d="M3 263h394v134H3z"/><path d="M60.42 184.959H41.285v13.553h13.934v10.962H41.285v20.33H30v-55.807h30.42v10.962zm29.235 44.845l-7.458-20.23h-5.103v20.23H66.005v-55.807h16.879c11.677 0 17.663 7.175 17.663 17.938 0 7.873-3.336 12.955-8.243 14.948l9.224 22.921H89.655zm-12.561-29.299h5.103c4.416 0 6.967-2.69 6.967-7.773 0-5.381-2.453-7.873-7.164-7.873h-4.906v15.646zm26.977 1.296c0-21.028 7.85-28.801 20.902-28.801 13.051 0 20.902 7.773 20.902 28.8 0 20.829-7.85 29.2-20.902 29.2-13.051 0-20.902-8.371-20.902-29.2zm11.678.1c0 13.951 3.042 18.336 9.224 18.336s9.322-4.584 9.322-18.337c0-13.553-3.14-18.137-9.322-18.137-6.182 0-9.224 4.584-9.224 18.137zm33.16 14.25l10.107-2.79c.392 4.385 2.65 7.574 7.654 7.574 3.925 0 6.084-2.093 6.084-5.78 0-4.884-3.729-6.378-10.01-9.268-5.004-2.292-12.756-6.378-12.756-17.839 0-9.766 5.79-15.048 16.29-15.048 9.91 0 16.093 4.784 17.172 14.151l-9.715 2.69c-.687-4.583-2.747-6.875-6.869-6.875-3.63 0-5.888 1.893-5.888 5.281 0 4.385 3.533 5.88 10.304 8.97 5.986 2.89 12.659 7.175 12.659 17.738 0 11.162-7.066 16.045-17.173 16.045-8.44 0-16.486-3.488-17.86-14.849zm40.224 13.653v-55.807h11.285v55.807h-11.285zm57.79 0h-11.775l-16.388-35.278h-.294c0 .1.098 6.378.098 12.158v23.12h-10.598v-55.807h11.776l16.387 34.281h.295c0-.1-.099-5.78-.099-11.56v-22.721h10.598v55.807zm5.487-28.003c0-21.028 7.85-28.801 20.902-28.801 13.051 0 20.902 7.773 20.902 28.8 0 20.829-7.85 29.2-20.902 29.2-13.051 0-20.902-8.371-20.902-29.2zm11.678.1c0 13.951 3.042 18.336 9.224 18.336s9.322-4.584 9.322-18.337c0-13.553-3.14-18.137-9.322-18.137-6.182 0-9.224 4.584-9.224 18.137zm74.57 27.903h-11.775l-16.388-35.278h-.294c0 .1.098 6.378.098 12.158v23.12H299.7v-55.807h11.775l16.388 34.281h.294c0-.1-.098-5.78-.098-11.56v-22.721h10.598v55.807zm7.646 0v-55.807h31.303v10.962h-20.116v11.062h14.72v10.763h-14.72v12.058H378v10.962h-31.696z" fill="#FFF" fill-rule="nonzero"/><path d="M59.437 313.462h-6.844v43.97H41.218v-43.97H30v-10.894h33.811v3.782c-1.805 1.798-3.274 4.145-4.374 7.112zm142.678 24.376v19.594H190.66v-19.594l-14.12-35.27h12.944l5.099 15.048c1.098 3.449 1.96 6.506 2.04 6.584h.313c.079-.078.942-3.135 2.118-6.505l5.256-15.127H216l-13.885 35.27zM60.987 329.92c0-21.17 7.53-28.92 20.161-28.92 12.63 0 20.24 7.67 20.24 29.08 0 21.09-7.531 28.92-20.24 28.92-12.552 0-20.161-7.59-20.161-29.08zm11.767-.08c0 13.821 2.746 17.975 8.472 17.975 5.57 0 8.394-3.994 8.394-17.655 0-13.901-2.824-17.975-8.394-17.975-5.726 0-8.472 4.154-8.472 17.655zm33.34-27.272h17.024c14.12 0 20.396 10.346 20.396 27.667 0 17.008-5.883 27.197-19.926 27.197h-17.494v-54.864zm11.454 43.97h4.471c6.433 0 9.806-4.233 9.806-15.99 0-13.167-3.373-17.086-9.649-17.086h-4.628v33.076zm51.383 1.254h-12.395l-1.647 9.64h-11.61l11.532-54.864h16.317l11.532 54.864h-12.003l-1.726-9.64zm-1.882-10.581l-2.432-13.638c-.863-4.86-1.648-10.11-1.726-10.19h-.314c0 .08-.863 5.252-1.726 10.112l-2.432 13.716h8.63z" fill="#2B2B2B"/></g></svg>