<svg width="400" height="400" xmlns="http://www.w3.org/2000/svg"><g fill="none" fill-rule="evenodd"><path fill="#3277C7" d="M0 0h400v400H0z"/><path stroke="#3277C7" stroke-width="6" fill="#FFF" d="M3 263h394v134H3z"/><path d="M61.314 241h18.743l-12.571-32.571c7.085-3.543 10.857-11.315 10.857-21.029 0-15.543-8.229-26.4-24-26.4H30v80h16.686v-28.686h2.4l2.171-.114L61.314 241zm-14.628-42.514V176.77H53.2c5.486 0 8.343 4.115 8.343 10.858 0 7.428-3.2 10.857-8 10.857h-6.857zM86.114 241v-80H102.8v80H86.114zm73.029 0v-22.514c0-16.915.228-30.629.228-30.743h-.342c-.115.114-2.286 8.686-4.8 17.486l-5.258 17.828h-11.085l-5.143-17.714c-2.629-9.029-4.8-17.486-4.8-17.6h-.457c0 .114.228 13.828.228 30.743V241h-16v-80h20.915l11.885 34.629h.343L155.943 161h19.886v80h-16.686zm25.6 0v-80h16.686v80h-16.686zm63.2 0l-21.372-44.686h-.342c0 .115.114 9.829.114 19.2V241h-16v-80h16.914l21.372 46.4h.342c0-.114-.114-8.914-.114-19.2V161h16v80h-16.914zm25.828 0v-80h16.686v80h-16.686z" fill="#FFF"/><path d="M70.567 307.19h-9.432v60.648H45.46v-60.649H30v-15.027h46.595v5.217c-2.488 2.48-4.512 5.718-6.028 9.81zm196.622 33.62v27.028h-15.784V340.81l-19.46-48.649h17.839l7.027 20.757c1.513 4.757 2.703 8.973 2.81 9.081h.433c.108-.108 1.297-4.324 2.919-8.973l7.243-20.865h16.108l-19.135 48.649zM72.703 329.89c0-29.201 10.378-39.89 27.783-39.89 17.406 0 27.892 10.579 27.892 40.11 0 29.091-10.378 39.89-27.892 39.89-17.297 0-27.783-10.468-27.783-40.11zm16.216-.11c0 19.063 3.784 24.793 11.676 24.793 7.675 0 11.567-5.51 11.567-24.353 0-19.173-3.892-24.793-11.567-24.793-7.892 0-11.676 5.73-11.676 24.353zm45.946-37.618h23.46c19.459 0 28.107 14.27 28.107 38.162 0 23.46-8.108 37.514-27.459 37.514h-24.108v-75.676zm15.784 60.649h6.162c8.865 0 13.513-5.838 13.513-22.054 0-18.162-4.648-23.568-13.297-23.568h-6.378v45.622zm70.81 1.73h-17.08l-2.27 13.297h-16L202 292.162h22.486l15.892 75.676h-16.54l-2.379-13.297zm-2.594-14.595l-3.351-18.81c-1.19-6.704-2.27-13.947-2.379-14.055h-.432c0 .108-1.19 7.243-2.379 13.946l-3.351 18.919h11.892z" fill="#2B2B2B"/></g></svg>