<svg width="400" height="400" xmlns="http://www.w3.org/2000/svg"><g fill="none" fill-rule="evenodd"><path fill="#F2463D" d="M0 0h400v400H0z"/><path stroke="#F2463D" stroke-width="6" fill="#FFF" d="M3 263h394v134H3z"/><path d="M71.35 306.75h-9.614v61.817H45.758V306.75H30v-15.316h47.493v5.317c-2.536 2.528-4.598 5.828-6.144 10zm200.413 34.27v27.547h-16.088V341.02l-19.835-49.586h18.182l7.163 21.157c1.542 4.848 2.754 9.146 2.865 9.256h.44c.11-.11 1.323-4.408 2.976-9.146l7.382-21.267h16.42l-19.505 49.586zM73.526 329.89c0-29.201 10.579-39.89 28.32-39.89 17.74 0 28.43 10.579 28.43 40.11 0 29.091-10.579 39.89-28.43 39.89-17.631 0-28.32-10.468-28.32-40.11zm16.53-.11c0 19.063 3.856 24.793 11.9 24.793 7.824 0 11.79-5.51 11.79-24.353 0-19.173-3.966-24.793-11.79-24.793-8.044 0-11.9 5.73-11.9 24.353zm46.831-38.347H160.8c19.835 0 28.65 14.545 28.65 38.898 0 23.911-8.264 38.236-27.989 38.236h-24.573v-77.134zm16.088 61.818h6.281c9.036 0 13.774-5.95 13.774-22.48 0-18.512-4.738-24.022-13.553-24.022h-6.502v46.502zm72.177 1.763H207.74l-2.314 13.553h-16.309l16.199-77.134h22.92l16.198 77.134h-16.86l-2.423-13.553zm-2.645-14.876l-3.416-19.174c-1.212-6.832-2.314-14.215-2.424-14.325h-.441c0 .11-1.212 7.383-2.424 14.215l-3.416 19.284h12.12z" fill="#2B2B2B"/><path d="M30 162.433v77.134h16.088v-24.573h6.502c14.435 0 23.25-10.027 23.25-26.005 0-17.52-8.815-26.556-23.36-26.556H30zm16.198 37.906l-.11-22.59h5.4c5.95 0 8.264 4.188 8.264 11.46-.11 7.604-2.534 11.13-8.264 11.13h-5.29zm35.703 39.228v-77.134h16.088v77.134H81.901zm22.48-19.393l15.536-4.298c.551 6.281 2.976 10.138 8.706 10.138 4.297 0 7.052-2.094 7.052-6.832 0-6.171-5.069-8.044-12.231-11.901-7.824-4.298-17.852-9.697-17.852-25.455 0-12.341 6.722-20.826 22.59-20.826 11.9 0 22.369 4.738 24.242 20.275l-15.537 4.188c-.992-7.053-3.526-9.477-8.264-9.477-4.298 0-6.502 1.874-6.502 6.06 0 5.841 4.298 7.714 12.562 12.012 8.705 4.408 17.41 9.476 17.41 24.573 0 14.986-8.154 22.369-23.14 22.369-12.892 0-23.03-5.84-24.573-20.826zm87.162 5.84h-17.41l-2.315 13.553H155.51l16.198-77.134h22.92l16.198 77.134h-16.86l-2.423-13.553zm-2.645-14.876l-3.416-19.174c-1.212-6.832-2.314-14.215-2.424-14.325h-.44c0 .11-1.213 7.383-2.425 14.215l-3.416 19.284h12.121z" fill="#FFF"/></g></svg>