<svg width="400" height="400" xmlns="http://www.w3.org/2000/svg"><g fill="none" fill-rule="evenodd"><path fill="#F2463D" d="M0 0h400v400H0z"/><path stroke="#F2463D" stroke-width="6" fill="#FFF" d="M3 263h394v134H3z"/><path d="M30 240.567v-77.134h16.088v61.818h24.353v15.316H30zm46.942 0v-77.134h42.204v15.316H93.03v14.876h19.504v14.876H93.03v16.75h26.667v15.316H76.942zm83.857-25.344l15.427 4.077c-2.755 11.901-8.595 22.7-25.785 22.7-16.199 0-27.548-9.917-27.548-40.22 0-29.973 11.24-39.78 28.099-39.78 15.757 0 22.92 8.815 25.014 22.039l-15.427 4.187c-1.433-6.612-4.188-10.799-10.248-10.799-7.494 0-10.91 6.06-10.91 24.022 0 19.394 3.747 25.124 11.02 25.124 6.17 0 8.925-4.408 10.358-11.35zm58.072 0l15.427 4.077c-2.755 11.901-8.596 22.7-25.786 22.7-16.198 0-27.548-9.917-27.548-40.22 0-29.973 11.24-39.78 28.1-39.78 15.757 0 22.92 8.815 25.013 22.039l-15.427 4.187c-1.432-6.612-4.187-10.799-10.248-10.799-7.493 0-10.909 6.06-10.909 24.022 0 19.394 3.747 25.124 11.02 25.124 6.17 0 8.925-4.408 10.358-11.35zm22.148 25.344v-77.134h42.204v15.316h-26.116v14.876h19.505v14.876h-19.505v16.75h26.667v15.316H241.02z" fill="#FFF"/><path d="M30 290h23.314c15.086 0 24.229 9.371 24.229 27.543 0 16.571-9.143 26.971-24.114 26.971h-6.743V370H30v-80zm16.8 39.314h5.486c5.943 0 8.457-3.657 8.571-11.543 0-7.542-2.4-11.885-8.571-11.885h-5.6l.114 23.428zM115.143 370l-10.057-28.8-2.172.114h-2.4V370H83.83v-80h24.342c15.772 0 24 10.857 24 26.4 0 9.714-3.771 17.486-10.857 21.029L133.886 370h-18.743zm-14.629-42.514h6.857c4.8 0 8-3.429 8-10.857 0-6.743-2.857-10.858-8.342-10.858h-6.515v21.715zM139.943 370v-80h16.686v80h-16.686zm73.028 0v-22.514c0-16.915.229-30.629.229-30.743h-.343c-.114.114-2.286 8.686-4.8 17.486l-5.257 17.828h-11.086l-5.143-17.714c-2.628-9.029-4.8-17.486-4.8-17.6h-.457c0 .114.229 13.828.229 30.743V370h-16v-80h20.914l11.886 34.629h.343L209.77 290h19.886v80h-16.686zm59.772-14.057h-18.057l-2.4 14.057H235.37l16.8-80h23.772l16.8 80h-17.486l-2.514-14.057zM270 340.514l-3.543-19.885c-1.257-7.086-2.4-14.743-2.514-14.858h-.457c0 .115-1.257 7.658-2.515 14.743l-3.542 20H270z" fill="#2B2B2B"/></g></svg>