<svg width="400" height="400" xmlns="http://www.w3.org/2000/svg"><g fill="none" fill-rule="evenodd"><path fill="#50AE55" d="M0 0h400v400H0z"/><path stroke="#50AE55" stroke-width="6" fill="#FFF" d="M3 264h394v134H3z"/><path d="M70.567 308.19h-9.432v60.648H45.46v-60.649H30v-15.027h46.595v5.217c-2.488 2.48-4.512 5.718-6.028 9.81zm196.622 33.62v27.028h-15.784V341.81l-19.46-48.649h17.839l7.027 20.757c1.513 4.757 2.703 8.973 2.81 9.081h.433c.108-.108 1.297-4.324 2.919-8.973l7.243-20.865h16.108l-19.135 48.649zM72.703 330.89c0-29.201 10.378-39.89 27.783-39.89 17.406 0 27.892 10.579 27.892 40.11 0 29.091-10.378 39.89-27.892 39.89-17.297 0-27.783-10.468-27.783-40.11zm16.216-.11c0 19.063 3.784 24.793 11.676 24.793 7.675 0 11.567-5.51 11.567-24.353 0-19.173-3.892-24.793-11.567-24.793-7.892 0-11.676 5.73-11.676 24.353zm45.946-37.618h23.46c19.459 0 28.107 14.27 28.107 38.162 0 23.46-8.108 37.514-27.459 37.514h-24.108v-75.676zm15.784 60.649h6.162c8.865 0 13.513-5.838 13.513-22.054 0-18.162-4.648-23.568-13.297-23.568h-6.378v45.622zm70.81 1.73h-17.08l-2.27 13.297h-16L202 293.162h22.486l15.892 75.676h-16.54l-2.379-13.297zm-2.594-14.595l-3.351-18.81c-1.19-6.704-2.27-13.947-2.379-14.055h-.432c0 .108-1.19 7.243-2.379 13.946l-3.351 18.919h11.892z" fill="#2B2B2B"/><path d="M80.81 175.714H62.59V240H46.22v-64.286H28V160h52.81v15.714zM88.429 240v-80h45.408v15.714h-29.18v15.857h21.351V207h-21.352v17.286h29.75V240H88.43zm87.692 0l-10.818-29H157.9v29h-16.085v-80h24.483c16.939 0 25.622 10.286 25.622 25.714 0 11.286-4.84 18.572-11.957 21.429L193.344 240h-17.223zm-18.22-42h7.402c6.405 0 10.106-3.857 10.106-11.143 0-7.714-3.559-11.286-10.391-11.286h-7.117V198zm101.634 42h-17.082l-23.771-50.571h-.427c0 .142.142 9.142.142 17.428V240h-15.373v-80h17.081l23.772 49.143h.427c0-.143-.143-8.286-.143-16.572V160h15.374v80zm13.095 0v-80H289v80h-16.37z" fill="#FFF"/></g></svg>