<svg width="400" height="400" xmlns="http://www.w3.org/2000/svg"><g fill="none" fill-rule="evenodd"><path fill="#3277C7" d="M0 0h400v400H0z"/><path stroke="#3277C7" stroke-width="6" fill="#FFF" d="M3 264h394v134H3z"/><path d="M66.253 241.567l-20.606-43.085h-.33c0 .11.11 9.477.11 18.512v24.573H30v-77.134h16.309l20.606 44.738h.33c0-.11-.11-8.595-.11-18.513v-26.225h15.427v77.134H66.253zm57.852-13.553h-17.41l-2.315 13.553H88.072l16.198-77.134h22.92l16.198 77.134h-16.86l-2.423-13.553zm-2.645-14.876l-3.416-19.174c-1.212-6.832-2.314-14.215-2.424-14.325h-.44c0 .11-1.213 7.383-2.425 14.215l-3.416 19.284h12.121zm27.438-48.705h22.48c14.545 0 23.36 9.035 23.36 26.556 0 15.978-8.815 26.005-23.25 26.005h-6.502v24.573h-16.088v-77.134zm16.198 37.906h5.29c5.73 0 8.154-3.526 8.264-11.13 0-7.272-2.314-11.46-8.264-11.46h-5.4l.11 22.59zm34.27.55c0-29.2 10.579-39.889 28.32-39.889s28.43 10.579 28.43 40.11c0 29.091-10.579 39.89-28.43 39.89-17.63 0-28.32-10.468-28.32-40.11zm16.53-.11c0 19.064 3.856 24.794 11.9 24.794 7.824 0 11.79-5.51 11.79-24.353 0-19.173-3.966-24.793-11.79-24.793-8.044 0-11.9 5.73-11.9 24.353zm46.831 38.788v-77.134h16.088v61.818h24.353v15.316h-40.44zm46.942 0v-77.134h16.089v77.134h-16.089z" fill="#FFF"/><path d="M70.567 308.19h-9.432v60.648H45.46v-60.649H30v-15.027h46.595v5.217c-2.488 2.48-4.512 5.718-6.028 9.81zm196.622 33.62v27.028h-15.784V341.81l-19.46-48.649h17.839l7.027 20.757c1.513 4.757 2.703 8.973 2.81 9.081h.433c.108-.108 1.297-4.324 2.919-8.973l7.243-20.865h16.108l-19.135 48.649zM72.703 330.89c0-29.201 10.378-39.89 27.783-39.89 17.406 0 27.892 10.579 27.892 40.11 0 29.091-10.378 39.89-27.892 39.89-17.297 0-27.783-10.468-27.783-40.11zm16.216-.11c0 19.063 3.784 24.793 11.676 24.793 7.675 0 11.567-5.51 11.567-24.353 0-19.173-3.892-24.793-11.567-24.793-7.892 0-11.676 5.73-11.676 24.353zm45.946-37.618h23.46c19.459 0 28.107 14.27 28.107 38.162 0 23.46-8.108 37.514-27.459 37.514h-24.108v-75.676zm15.784 60.649h6.162c8.865 0 13.513-5.838 13.513-22.054 0-18.162-4.648-23.568-13.297-23.568h-6.378v45.622zm70.81 1.73h-17.08l-2.27 13.297h-16L202 293.162h22.486l15.892 75.676h-16.54l-2.379-13.297zm-2.594-14.595l-3.351-18.81c-1.19-6.704-2.27-13.947-2.379-14.055h-.432c0 .108-1.19 7.243-2.379 13.946l-3.351 18.919h11.892z" fill="#2B2B2B"/></g></svg>