<svg width="400" height="400" xmlns="http://www.w3.org/2000/svg"><g fill="none" fill-rule="evenodd"><path fill="#F2463D" d="M0 0h400v400H0z"/><path stroke="#F2463D" stroke-width="6" fill="#FFF" d="M3 263h394v134H3z"/><path d="M68.057 227H44.8L30 153h17.231l6.026 37.634 3.594 21.883h.423c0-.317.846-7.083 3.172-21.777L66.577 153h16.069l-14.589 74zm20.086 0v-74h40.488v14.694h-25.054v14.272h18.712v14.271h-18.712v16.069h25.583V227H88.143zm82.986 0l-19.769-41.334h-.317c0 .105.106 9.091.106 17.76V227h-14.8v-74h15.645l19.769 42.92h.317c0-.106-.106-8.246-.106-17.76V153h14.8v74H171.13zm23.891 0v-74h40.489v14.694h-25.055v14.272h18.712v14.271h-18.712v16.069h25.583V227H195.02zm90.597-58.46l-20.508 34.04c-3.066 5.286-5.709 9.197-5.709 9.303l.211.423h26.323V227h-44.083v-14.906l21.989-35.731c2.749-4.546 5.074-8.14 5.074-8.246l-.211-.423h-25.794V153h42.708v15.54zm7.294 58.46v-74h15.435v74H292.91zm55.289-13.003h-16.703L329.277 227h-15.646l15.54-74h21.989l15.54 74h-16.174l-2.326-13.003zm-2.537-14.271l-3.277-18.395c-1.163-6.554-2.22-13.637-2.326-13.742h-.423c0 .105-1.163 7.082-2.326 13.637l-3.277 18.5h11.629z" fill="#FFF"/><path d="M68.248 308.493h-8.893v57.182h-14.78v-57.182H30v-14.168h43.931v4.918c-2.345 2.34-4.253 5.392-5.683 9.25zm185.383 31.7v25.482h-14.882v-25.482l-18.347-45.868h16.818l6.626 19.57c1.427 4.485 2.548 8.46 2.65 8.562h.408c.102-.102 1.223-4.077 2.752-8.46l6.829-19.672h15.187l-18.041 45.868zM70.26 329.898c0-27.01 9.786-36.898 26.196-36.898 16.41 0 26.298 9.785 26.298 37.102 0 26.909-9.785 36.898-26.298 36.898-16.308 0-26.195-9.683-26.195-37.102zm15.29-.102c0 17.634 3.567 22.934 11.008 22.934 7.237 0 10.907-5.096 10.907-22.526 0-17.736-3.67-22.934-10.907-22.934-7.44 0-11.008 5.3-11.008 22.526zm43.32-35.47h22.118c18.347 0 26.501 13.454 26.501 35.98 0 22.118-7.644 35.369-25.89 35.369h-22.73v-71.35zm14.881 57.18h5.81c8.358 0 12.741-5.503 12.741-20.793 0-17.123-4.383-22.22-12.537-22.22h-6.014v43.014zm66.763 1.632H194.41l-2.14 12.537h-15.085l14.983-71.35h21.201l14.984 71.35h-15.595l-2.243-12.537zm-2.446-13.76l-3.16-17.736c-1.121-6.32-2.14-13.149-2.242-13.25h-.408c0 .101-1.121 6.828-2.242 13.148l-3.16 17.837h11.212z" fill="#2B2B2B"/></g></svg>