<svg width="400" height="400" xmlns="http://www.w3.org/2000/svg"><g fill="none" fill-rule="evenodd"><path fill="#50AE55" d="M0 0h400v400H0z"/><path stroke="#50AE55" stroke-width="6" fill="#FFF" d="M3 264h394v134H3z"/><path d="M60.178 222.449l2.03 11.351h14.12l-13.566-64.6H43.566L30 233.8h13.658l1.938-11.351h14.582zm-2.215-12.459H47.81l2.861-16.15c1.015-5.722 2.03-11.812 2.03-11.905h.37c.092.093 1.015 6.276 2.03 11.998l2.86 16.057zm49.096 23.81H86.756l-12.92-64.6H88.88l5.26 32.854 3.138 19.103h.369c0-.277.738-6.183 2.769-19.011l5.352-32.946h14.028l-12.736 64.6zm17.535 0v-64.6h35.345v12.828h-21.872v12.458h16.335v12.459h-16.335v14.027h22.334V233.8h-35.807zm42.082 0v-64.6h13.474v51.772h20.395V233.8h-33.869zm39.314 0v-64.6h13.474v51.772h20.396V233.8h-33.87zm39.314 0v-64.6h13.474v64.6h-13.474zm51.035 0l-17.258-36.084h-.277c0 .093.093 7.937.093 15.504v20.58h-12.92v-64.6h13.658l17.258 37.468h.276c0-.092-.092-7.198-.092-15.504V169.2h12.92v64.6H296.34zm19.195-32.392c0-24.456 8.86-33.408 23.718-33.408s23.81 8.86 23.81 33.592c0 24.364-8.86 33.408-23.81 33.408-14.766 0-23.718-8.767-23.718-33.592zm13.843-.093c0 15.966 3.23 20.765 9.967 20.765 6.553 0 9.875-4.614 9.875-20.395 0-16.058-3.322-20.765-9.875-20.765-6.737 0-9.967 4.799-9.967 20.395z" fill="#FFF"/><path d="M63.975 312.396h-7.9v50.793H42.948v-50.793H30V299.81h39.023v4.369c-2.084 2.077-3.778 4.789-5.048 8.216zm164.67 28.158v22.635h-13.218v-22.635l-16.297-40.743h14.939l5.885 17.384c1.268 3.983 2.264 7.514 2.354 7.605h.362c.09-.09 1.087-3.622 2.445-7.515l6.066-17.474h13.49l-16.025 40.743zm-162.881-9.146c0-24.456 8.691-33.408 23.268-33.408s23.36 8.86 23.36 33.592c0 24.364-8.692 33.408-23.36 33.408-14.486 0-23.268-8.767-23.268-33.592zm13.58-.093c0 15.966 3.17 20.765 9.779 20.765 6.428 0 9.688-4.614 9.688-20.395 0-16.058-3.26-20.765-9.688-20.765-6.61 0-9.778 4.799-9.778 20.395zm38.48-31.504h19.648c16.297 0 23.54 11.951 23.54 31.96 0 19.648-6.79 31.418-22.997 31.418h-20.19v-63.378zm13.22 50.793h5.16c7.424 0 11.318-4.89 11.318-18.47 0-15.211-3.894-19.738-11.137-19.738h-5.342v38.208zm59.303 1.449h-14.305l-1.901 11.136h-13.4l13.309-63.378h18.832l13.31 63.378h-13.853l-1.992-11.136zm-2.173-12.223l-2.806-15.754c-.996-5.614-1.902-11.68-1.992-11.77h-.362c0 .09-.996 6.066-1.992 11.68l-2.807 15.844h9.96z" fill="#2B2B2B"/></g></svg>