<svg width="400" height="400" xmlns="http://www.w3.org/2000/svg"><g fill="none" fill-rule="evenodd"><path stroke="#3277C7" stroke-width="6" fill="#FFF" d="M3 3h394v134H3z"/><path fill="#3277C7" d="M0 140h401v260H0z"/><path d="M30 104V37h16.391v67H30zm25.723 0V37h16.391v51.327h21.297V104H55.723z" fill="#2B2B2B"/><path d="M30 164.2h18.826c12.182 0 19.565 7.567 19.565 22.24 0 13.382-7.383 21.78-19.472 21.78h-5.445v20.58H30v-64.6zm13.566 31.746h4.43c4.799 0 6.83-2.953 6.921-9.32 0-6.092-1.938-9.598-6.921-9.598h-4.522l.092 18.918zm29.9 32.854v-64.6h35.347v12.828H86.94v12.458h16.334v12.459H86.941v14.027h22.333V228.8H73.467zm39.592-16.242l13.012-3.6c.462 5.261 2.492 8.491 7.29 8.491 3.6 0 5.907-1.753 5.907-5.722 0-5.168-4.245-6.737-10.244-9.967-6.552-3.599-14.95-8.12-14.95-21.318 0-10.336 5.63-17.442 18.919-17.442 9.967 0 18.734 3.968 20.303 16.98l-13.013 3.508c-.83-5.907-2.953-7.937-6.921-7.937-3.6 0-5.445 1.569-5.445 5.076 0 4.89 3.6 6.46 10.52 10.059 7.291 3.691 14.582 7.937 14.582 20.58 0 12.55-6.83 18.734-19.38 18.734-10.798 0-19.288-4.891-20.58-17.442zm75.767-4.984l12.92 3.415C199.438 220.956 194.547 230 180.15 230c-13.566 0-23.071-8.306-23.071-33.685 0-25.102 9.413-33.315 23.533-33.315 13.197 0 19.195 7.383 20.949 18.457l-12.92 3.507c-1.2-5.537-3.507-9.044-8.583-9.044-6.276 0-9.137 5.076-9.137 20.119 0 16.242 3.138 21.04 9.23 21.04 5.167 0 7.474-3.69 8.674-9.505zm45.682 9.875h-14.581l-1.938 11.351h-13.659l13.566-64.6h19.196l13.566 64.6h-14.12l-2.03-11.351zm-2.215-12.459l-2.86-16.057c-1.016-5.722-1.939-11.905-2.031-11.998h-.37c0 .093-1.014 6.183-2.03 11.905l-2.86 16.15h10.151zm48.266 23.81l-8.121-23.256-1.754.092h-1.938V228.8h-13.474v-64.6h19.657c12.736 0 19.38 8.767 19.38 21.318 0 7.844-3.045 14.12-8.767 16.98l10.152 26.302h-15.135zm-11.813-34.33h5.537c3.876 0 6.46-2.769 6.46-8.768 0-5.444-2.307-8.767-6.736-8.767h-5.26v17.535zm59.802 22.979h-14.581l-1.938 11.351h-13.659l13.566-64.6h19.196l13.566 64.6h-14.12l-2.03-11.351zm-2.215-12.459l-2.86-16.057c-1.016-5.722-1.939-11.905-2.031-11.998h-.37c0 .093-1.015 6.183-2.03 11.905l-2.86 16.15h10.151z" fill="#FFF"/></g></svg>