<svg width="400" height="400" xmlns="http://www.w3.org/2000/svg"><g fill="none" fill-rule="evenodd"><path fill="#FFBE26" d="M0 0h400v266H0z"/><path d="M51.226 229h15.697l-10.529-27.279c5.935-2.967 9.093-9.475 9.093-17.611 0-13.017-6.891-22.11-20.1-22.11H25v67h13.974v-24.024h2.01l1.819-.096L51.226 229zm-12.252-35.606V175.21h5.456c4.594 0 6.987 3.445 6.987 9.092 0 6.222-2.68 9.093-6.7 9.093h-5.743zm62.023 23.833H85.874L83.864 229H69.7l14.07-67h19.908l14.07 67h-14.644l-2.106-11.773zM98.7 204.306l-2.967-16.655c-1.053-5.934-2.01-12.347-2.106-12.442h-.383c0 .095-1.053 6.412-2.105 12.347l-2.968 16.75H98.7zM149.62 229h-21.057l-13.4-67h15.601l5.456 34.074 3.254 19.813h.383c0-.287.766-6.413 2.872-19.717L148.28 162h14.549l-13.209 67zm18.186 0v-67h36.658v13.304H181.78v12.922h16.941v12.921H181.78v14.549h23.163V229h-37.137zm75.135 0l-17.898-37.424h-.287c0 .095.095 8.231.095 16.08V229h-13.4v-67h14.166l17.899 38.86h.287c0-.096-.096-7.466-.096-16.08V162h13.4v67h-14.166zm53.122 0l-17.899-37.424h-.287c0 .095.096 8.231.096 16.08V229h-13.4v-67h14.166l17.898 38.86h.287c0-.096-.095-7.466-.095-16.08V162h13.4v67h-14.166zm50.25-11.773H331.19L329.18 229h-14.166l14.07-67h19.909l14.07 67h-14.644l-2.106-11.773zm-2.297-12.921l-2.967-16.655c-1.053-5.934-2.01-12.347-2.106-12.442h-.383c0 .095-1.053 6.412-2.106 12.347l-2.967 16.75h10.529z" fill="#FFF"/><path stroke="#FFBE26" stroke-width="6" fill="#FFF" d="M3 263h394v134H3z"/><path d="M59.63 311.028h-8.051V362.8H38.197v-51.772H25V298.2h39.775v4.453c-2.123 2.118-3.85 4.881-5.145 8.375zm167.847 28.7V362.8h-13.474V339.73l-16.612-41.53h15.227l6 17.72c1.291 4.06 2.306 7.66 2.399 7.752h.369c.092-.092 1.107-3.692 2.491-7.66l6.184-17.811h13.75l-16.334 41.529zm-166.024-9.32c0-24.456 8.86-33.408 23.718-33.408s23.81 8.86 23.81 33.592c0 24.364-8.86 33.408-23.81 33.408-14.766 0-23.718-8.767-23.718-33.592zm13.843-.093c0 15.966 3.23 20.765 9.967 20.765 6.552 0 9.875-4.614 9.875-20.395 0-16.058-3.323-20.765-9.875-20.765-6.737 0-9.967 4.799-9.967 20.395zm39.222-32.115h20.026c16.612 0 23.995 12.182 23.995 32.577 0 20.026-6.922 32.023-23.441 32.023h-20.58v-64.6zm13.474 51.772h5.26c7.568 0 11.536-4.983 11.536-18.826 0-15.504-3.968-20.118-11.351-20.118h-5.445v38.944zm60.447 1.477h-14.58L171.92 362.8h-13.658l13.566-64.6h19.195l13.567 64.6h-14.12l-2.03-11.351zm-2.214-12.459l-2.861-16.057c-1.016-5.722-1.938-11.905-2.03-11.998h-.37c0 .093-1.015 6.183-2.03 11.905l-2.861 16.15h10.152z" fill="#3B3B3B"/></g></svg>