<svg width="400" height="400" xmlns="http://www.w3.org/2000/svg"><g fill="none" fill-rule="evenodd"><path fill="#F2463D" d="M0 0h400v400H0z"/><path stroke="#F2463D" stroke-width="6" fill="#FFF" d="M3 263h394v134H3z"/><path d="M30 164.433v77.134h16.088v-24.573h6.502c14.435 0 23.25-10.027 23.25-26.005 0-17.52-8.815-26.556-23.36-26.556H30zm16.198 37.906l-.11-22.59h5.4c5.95 0 8.264 4.188 8.264 11.46-.11 7.604-2.534 11.13-8.264 11.13h-5.29zM110 228.014H92.59l-2.315 13.553H73.967l16.198-77.134h22.92l16.199 77.134h-16.86L110 228.014zm-2.645-14.876l-3.416-19.174c-1.212-6.832-2.314-14.215-2.424-14.325h-.44c0 .11-1.213 7.383-2.425 14.215l-3.416 19.284h12.121zm27.438-48.705h23.912c19.835 0 28.65 14.545 28.65 38.898 0 23.911-8.264 38.236-27.989 38.236h-24.573v-77.134zm16.089 61.818h6.28c9.036 0 13.775-5.95 13.775-22.48 0-18.512-4.739-24.022-13.554-24.022h-6.501v46.502zm41.652-23.361c0-29.201 10.579-39.89 28.32-39.89s28.43 10.579 28.43 40.11c0 29.091-10.579 39.89-28.43 39.89-17.63 0-28.32-10.468-28.32-40.11zm16.53-.11c0 19.063 3.856 24.793 11.9 24.793 7.824 0 11.79-5.51 11.79-24.353 0-19.173-3.966-24.793-11.79-24.793-8.044 0-11.9 5.73-11.9 24.353zm82.093 38.787h-24.242l-15.427-77.134h17.961l6.281 39.228 3.747 22.81h.44c0-.33.882-7.383 3.306-22.7l6.391-39.338h16.75l-15.207 77.134zm48.375-13.553h-17.41l-2.315 13.553H303.5l16.198-77.134h22.92l16.198 77.134h-16.86l-2.423-13.553zm-2.645-14.876l-3.416-19.174c-1.212-6.832-2.314-14.215-2.424-14.325h-.44c0 .11-1.213 7.383-2.425 14.215l-3.416 19.284h12.121z" fill="#FFF"/><path d="M30 329.89C30 300.689 40.579 290 58.32 290c17.74 0 28.43 10.579 28.43 40.11 0 29.091-10.58 39.89-28.43 39.89C40.689 370 30 359.532 30 329.89zm16.529-.11c0 19.063 3.857 24.793 11.9 24.793 7.824 0 11.791-5.51 11.791-24.353 0-19.173-3.967-24.793-11.79-24.793-8.044 0-11.901 5.73-11.901 24.353zm99.504 38.787h-14.656v-4.738h-.33c-3.086 3.306-7.163 5.73-13.774 5.73-13.334 0-25.455-9.146-25.455-39.89 0-29.862 11.24-39.669 28.1-39.669 15.647 0 22.92 8.815 25.013 22.039l-15.427 4.187c-1.102-5.84-3.526-10.799-10.138-10.799-7.493 0-11.019 6.281-11.019 23.14 0 18.954 4.077 26.116 12.562 26.116 6.281 0 9.256-3.636 10.138-6.942v-7.603h-11.24V324.82h26.226v43.746zm60.165 0h-14.655v-4.738h-.33c-3.086 3.306-7.163 5.73-13.775 5.73-13.333 0-25.455-9.146-25.455-39.89 0-29.862 11.24-39.669 28.1-39.669 15.647 0 22.92 8.815 25.013 22.039l-15.427 4.187c-1.102-5.84-3.526-10.799-10.137-10.799-7.493 0-11.02 6.281-11.02 23.14 0 18.954 4.078 26.116 12.562 26.116 6.281 0 9.257-3.636 10.138-6.942v-7.603h-11.24V324.82h26.226v43.746zm7.934 0v-77.134h16.088v77.134h-16.088z" fill="#2B2B2B"/></g></svg>