<svg width="400" height="400" xmlns="http://www.w3.org/2000/svg"><g fill="none" fill-rule="evenodd"><path fill="#F2463D" d="M0 0h400v400H0z"/><path stroke="#F2463D" stroke-width="6" fill="#FFF" d="M3 263h394v134H3z"/><path d="M66.485 215.227l14.848 3.925C78.682 230.606 73.061 241 56.515 241 40.925 241 30 231.455 30 202.288 30 173.439 40.818 164 57.045 164c15.167 0 22.061 8.485 24.076 21.212l-14.848 4.03c-1.38-6.363-4.03-10.394-9.864-10.394-7.212 0-10.5 5.834-10.5 23.122 0 18.666 3.606 24.182 10.606 24.182 5.94 0 8.591-4.243 9.97-10.925zm52.5 11.349h-16.758L100 239.62H84.303l15.59-74.242h22.062l15.59 74.242h-16.227l-2.333-13.045zm-2.546-14.318l-3.287-18.455c-1.167-6.576-2.228-13.682-2.334-13.788h-.424c0 .106-1.167 7.106-2.333 13.682l-3.288 18.56h11.666zm63.53-32.137h-15.166v59.5h-15.379v-59.5h-15.166V165.38h45.712v14.742zm31.395 46.455h-16.758l-2.227 13.045h-15.697l15.59-74.242h22.061l15.591 74.242h-16.227l-2.333-13.045zm-2.546-14.318l-3.288-18.455c-1.166-6.576-2.227-13.682-2.333-13.788h-.424c0 .106-1.167 7.106-2.334 13.682l-3.287 18.56h11.666zm61.303 27.363l-19.833-41.47h-.318c0 .107.106 9.122.106 17.819v23.651h-14.849V165.38h15.697l19.834 43.06h.318c0-.106-.106-8.272-.106-17.818V165.38h14.848v74.242h-15.697zm23.97 0V165.38h15.485v74.242H294.09zm55.47-13.045h-16.758l-2.227 13.045h-15.697l15.59-74.242h22.061l15.591 74.242h-16.227l-2.333-13.045zm-2.546-14.318l-3.288-18.455c-1.166-6.576-2.227-13.682-2.333-13.788h-.424c0 .106-1.167 7.106-2.334 13.682l-3.288 18.56h11.667z" fill="#FFF"/><path d="M71.35 305.75h-9.614v61.817H45.758V305.75H30v-15.316h47.493v5.317c-2.536 2.528-4.598 5.828-6.144 10zm200.413 34.27v27.547h-16.088V340.02l-19.835-49.586h18.182l7.163 21.157c1.542 4.848 2.754 9.146 2.865 9.256h.44c.11-.11 1.323-4.408 2.976-9.146l7.382-21.267h16.42l-19.505 49.586zM73.526 328.89c0-29.201 10.579-39.89 28.32-39.89 17.74 0 28.43 10.579 28.43 40.11 0 29.091-10.579 39.89-28.43 39.89-17.631 0-28.32-10.468-28.32-40.11zm16.53-.11c0 19.063 3.856 24.793 11.9 24.793 7.824 0 11.79-5.51 11.79-24.353 0-19.173-3.966-24.793-11.79-24.793-8.044 0-11.9 5.73-11.9 24.353zm46.831-38.347H160.8c19.835 0 28.65 14.545 28.65 38.898 0 23.911-8.264 38.236-27.989 38.236h-24.573v-77.134zm16.088 61.818h6.281c9.036 0 13.774-5.95 13.774-22.48 0-18.512-4.738-24.022-13.553-24.022h-6.502v46.502zm72.177 1.763H207.74l-2.314 13.553h-16.309l16.199-77.134h22.92l16.198 77.134h-16.86l-2.423-13.553zm-2.645-14.876l-3.416-19.174c-1.212-6.832-2.314-14.215-2.424-14.325h-.441c0 .11-1.212 7.383-2.424 14.215l-3.416 19.284h12.12z" fill="#2B2B2B"/></g></svg>