<svg width="400" height="400" xmlns="http://www.w3.org/2000/svg"><g fill="none" fill-rule="evenodd"><path fill="#F2463D" d="M0 0h400v266.016H0z"/><path stroke="#F2463D" stroke-width="6" fill="#FFF" d="M3 262.9h394v133.9H3z"/><path d="M65.173 220.49c-1.654 5.687-4.135 9.516-10.044 9.516-7.326 0-10.99-5.57-10.99-21.933 0-14.273 3.31-20.54 11.108-20.54 7.327 0 9.1 6.15 10.045 10.56l12.289-3.133C75.217 180.222 67.064 175 55.01 175c-15.48 0-24.933 9.168-24.933 33.422 0 24.834 9.808 34.117 24.933 34.117 13.826 0 19.616-7.543 22.57-18.683l-12.408-3.366zm47.548 7.776H95.114l-2.6 12.88H79.28l15.243-64.986h19.261l15.244 64.987H115.32l-2.6-12.881zm-2.364-11.49l-2.717-12.648c-2.246-10.793-3.545-17.407-3.545-17.755h-.473c-.118.348-1.418 7.078-3.663 17.987l-2.482 12.417h12.88zm19.424 8.472c1.655 13.23 11.344 17.291 21.506 17.291 12.171 0 20.68-5.686 20.68-18.683 0-12.301-8.036-17.291-15.244-20.657-8.153-3.597-12.407-5.338-12.407-10.444 0-3.945 2.717-6.15 7.09-6.15 4.963 0 7.444 2.669 8.271 8.007l11.699-3.133c-1.3-10.909-8.745-16.479-20.68-16.479-12.643 0-19.615 6.15-19.615 17.523 0 13.346 9.335 18.103 15.362 20.773 7.562 3.365 12.053 5.106 12.053 10.792 0 4.294-2.6 6.73-7.327 6.73-6.026 0-8.744-3.713-9.217-8.819l-12.17 3.25zm47.311 15.899h38.168v-12.765h-24.697V214.34h17.725v-12.533h-17.725v-12.881h24.224V176.16h-37.695v64.987zm72.953 0l-8.98-23.558h-6.145v23.558h-13.353V176.16h20.325c14.061 0 21.27 8.356 21.27 20.889 0 9.168-4.018 15.086-9.926 17.407l11.107 26.69h-14.298zm-15.125-34.118h6.145c5.317 0 8.39-3.133 8.39-9.052 0-6.266-2.955-9.167-8.627-9.167h-5.908v18.219zm74.016-18.103h-15.125v52.22h-13.589v-52.22h-15.125V176.16h43.84v12.766zm28.169 39.34h-17.607l-2.6 12.88h-13.234l15.243-64.986h19.261l15.243 64.987h-13.707l-2.6-12.881zm-2.364-11.49l-2.718-12.648c-2.245-10.793-3.545-17.407-3.545-17.755h-.472c-.118.348-1.418 7.078-3.663 17.987l-2.482 12.417h12.88z" fill="#FFF"/><path d="M76.076 355.252H62.173l-19.35-40.622h-.347c0 .115.115 7.344.115 14v26.622H30.078v-64.26h13.904l19.35 39.474h.347c0-.115-.116-6.656-.116-13.311V290.99h12.513v64.261zm7.923 0v-64.26h36.96v12.622H97.207v12.737h17.38v12.394h-17.38v13.885h24.216v12.622H83.999zm85.088 0l-4.403-25.59c-2.201-12.852-3.128-19.966-3.244-20.08h-.348c0 .114-1.043 7.228-3.244 20.08l-4.403 25.59h-17.264l-11.702-64.26h13.904l4.287 26.851c2.085 12.967 3.476 24.098 3.476 24.213h.347c0-.115 1.507-11.016 3.592-22.836l4.287-24.098h16.337l3.823 24.098c1.97 11.82 3.36 22.721 3.476 22.836h.348c0-.115 1.39-11.131 3.592-24.213l4.403-26.852h12.281l-11.702 64.261h-17.843zm31.443-15.72l11.934-3.214c.463 5.05 3.128 8.722 9.037 8.722 4.635 0 7.184-2.41 7.184-6.656 0-5.623-4.403-7.344-11.818-10.672-5.91-2.64-15.063-7.344-15.063-20.54 0-11.246 6.836-17.328 19.234-17.328 11.702 0 19.002 5.508 20.276 16.295l-11.47 3.098c-.812-5.279-3.245-7.918-8.111-7.918-4.287 0-6.952 2.18-6.952 6.082 0 5.049 4.171 6.77 12.166 10.328 7.068 3.327 14.946 8.262 14.946 20.425 0 12.853-8.342 18.475-20.276 18.475-9.964 0-19.465-4.016-21.087-17.098z" fill="#2B2B2B"/></g></svg>