<svg width="400" height="400" xmlns="http://www.w3.org/2000/svg"><g fill="none" fill-rule="evenodd"><path fill="#F2463D" d="M0 0h400v400H0z"/><path stroke="#F2463D" stroke-width="6" fill="#FFF" d="M3 263h394v134H3z"/><path d="M30 218.777l13.595-3.76c.482 5.495 2.603 8.87 7.617 8.87 3.76 0 6.17-1.832 6.17-5.978 0-5.4-4.434-7.038-10.702-10.413-6.845-3.76-15.62-8.485-15.62-22.273 0-10.799 5.882-18.223 19.766-18.223 10.414 0 19.573 4.146 21.213 17.741l-13.595 3.664c-.868-6.17-3.086-8.292-7.232-8.292-3.76 0-5.689 1.64-5.689 5.303 0 5.11 3.76 6.75 10.992 10.51 7.617 3.856 15.234 8.292 15.234 21.501C71.75 230.54 64.614 237 51.501 237c-11.28 0-20.151-5.11-21.501-18.223zm76.267 5.11H91.033l-2.025 11.86h-14.27l14.174-67.494h20.055l14.173 67.494h-14.752l-2.12-11.86zm-2.314-13.016l-2.989-16.777c-1.06-5.978-2.025-12.438-2.121-12.535h-.386c0 .097-1.06 6.46-2.12 12.438l-2.99 16.874h10.606zm24.008 24.876v-67.494h14.078v54.091h21.308v13.403h-35.386zm41.075 0v-67.494h36.928v13.403h-22.851v13.016h17.066v13.017h-17.066v14.655h23.333v13.403h-37.41zm70.385 0l-8.484-24.298-1.832.096h-2.025v24.202h-14.077v-67.494h20.537c13.306 0 20.248 9.16 20.248 22.273 0 8.196-3.182 14.752-9.16 17.741l10.606 27.48h-15.813zm-12.341-35.868h5.785c4.05 0 6.75-2.893 6.75-9.16 0-5.689-2.411-9.16-7.04-9.16h-5.495v18.32zm64.986 35.868l-18.03-37.7h-.29c0 .096.097 8.292.097 16.198v21.502h-13.499v-67.494h14.27l18.03 39.146h.29c0-.096-.097-7.52-.097-16.198v-22.948h13.5v67.494h-14.27zm20.055-33.843c0-25.551 9.256-34.904 24.78-34.904 15.523 0 24.876 9.256 24.876 35.096 0 25.455-9.256 34.904-24.876 34.904-15.427 0-24.78-9.16-24.78-35.096zm14.463-.097c0 16.68 3.375 21.694 10.413 21.694 6.846 0 10.317-4.82 10.317-21.308 0-16.777-3.471-21.694-10.317-21.694-7.038 0-10.413 5.013-10.413 21.308z" fill="#FFF"/><path d="M66.18 309.656H57.77v54.09H43.788v-54.09H30v-13.403h41.556v4.653c-2.218 2.212-4.023 5.1-5.376 8.75zm175.363 29.986v24.105h-14.077v-24.105l-17.356-43.389h15.91l6.267 18.513c1.35 4.242 2.41 8.003 2.506 8.099h.386c.096-.096 1.157-3.857 2.603-8.003l6.46-18.609h14.367l-17.066 43.389zm-173.458-9.738c0-25.551 9.257-34.904 24.78-34.904 15.523 0 24.876 9.256 24.876 35.096 0 25.455-9.256 34.904-24.876 34.904-15.427 0-24.78-9.16-24.78-35.096zm14.463-.097c0 16.68 3.375 21.694 10.413 21.694 6.846 0 10.317-4.82 10.317-21.308 0-16.777-3.47-21.694-10.317-21.694-7.038 0-10.413 5.013-10.413 21.308zm40.978-33.554h20.923c17.355 0 25.069 12.728 25.069 34.036 0 20.923-7.231 33.458-24.49 33.458h-21.502v-67.494zm14.077 54.091h5.496c7.907 0 12.053-5.206 12.053-19.67 0-16.197-4.146-21.018-11.86-21.018h-5.689v40.688zm63.155 1.543h-15.235l-2.024 11.86h-14.27l14.173-67.494h20.055l14.174 67.494h-14.752l-2.121-11.86zm-2.314-13.016l-2.99-16.777c-1.06-5.978-2.024-12.438-2.12-12.535h-.386c0 .097-1.06 6.46-2.122 12.438l-2.989 16.874h10.607z" fill="#2B2B2B"/></g></svg>