<svg width="400" height="400" xmlns="http://www.w3.org/2000/svg"><g fill="none" fill-rule="evenodd"><path fill="#F2463D" d="M0 0h400v400H0z"/><path stroke="#F2463D" stroke-width="6" fill="#FFF" d="M3 263h394v134H3z"/><path d="M65.132 227.388l2.364 13.215h16.438L68.14 165.397H45.793L30 240.603h15.9l2.257-13.215h16.975zm-2.578-14.504H50.736l3.33-18.801c1.182-6.662 2.364-13.752 2.364-13.86h.43c.107.108 1.181 7.306 2.363 13.967l3.33 18.694zm62.099 27.72l-20.091-42.009h-.322c0 .107.107 9.24.107 18.05v23.958H89.306v-75.206h15.9l20.092 43.62h.322c0-.108-.108-8.38-.108-18.05v-25.57h15.042v75.206h-15.901zm59.306-24.711L199 219.868C196.314 231.47 190.62 242 173.86 242c-15.794 0-26.86-9.67-26.86-39.215C147 173.562 157.959 164 174.397 164c15.363 0 22.347 8.595 24.388 21.488l-15.041 4.082c-1.397-6.446-4.083-10.529-9.992-10.529-7.306 0-10.636 5.91-10.636 23.422 0 18.909 3.653 24.496 10.744 24.496 6.016 0 8.702-4.298 10.099-11.066zm19.66-13c0-28.472 10.315-38.893 27.612-38.893 17.298 0 27.72 10.314 27.72 39.107 0 28.364-10.315 38.893-27.72 38.893-17.19 0-27.611-10.207-27.611-39.107zm16.117-.108c0 18.587 3.76 24.174 11.603 24.174 7.628 0 11.496-5.372 11.496-23.744 0-18.694-3.868-24.174-11.496-24.174-7.843 0-11.603 5.587-11.603 23.744zm81.008 37.818l-20.091-42.008h-.322c0 .107.107 9.24.107 18.05v23.958h-15.041v-75.206h15.9l20.091 43.62h.323c0-.108-.108-8.38-.108-18.05v-25.57h15.042v75.206h-15.901zm56.405-13.215h-16.975l-2.257 13.215h-15.9l15.793-75.206h22.347l15.793 75.206h-16.438l-2.363-13.215zm-2.579-14.504l-3.33-18.694c-1.182-6.661-2.257-13.86-2.364-13.967h-.43c0 .108-1.182 7.198-2.363 13.86l-3.33 18.801h11.817z" fill="#FFF"/><path d="M70.315 307.33h-9.373v60.273H45.364v-60.272H30v-14.934h46.306v5.184c-2.473 2.465-4.484 5.683-5.99 9.75zm195.404 33.414v26.86h-15.686v-26.86l-19.339-48.347h17.727l6.984 20.628c1.504 4.727 2.686 8.917 2.793 9.025h.43c.108-.108 1.29-4.298 2.9-8.918l7.2-20.735h16.008l-19.017 48.347zM72.438 329.893C72.438 301.42 82.752 291 100.05 291c17.297 0 27.719 10.314 27.719 39.107 0 28.364-10.314 38.893-27.72 38.893-17.19 0-27.611-10.207-27.611-39.107zm16.116-.108c0 18.587 3.76 24.174 11.603 24.174 7.628 0 11.496-5.372 11.496-23.744 0-18.694-3.868-24.174-11.496-24.174-7.843 0-11.603 5.587-11.603 23.744zm45.66-37.388h23.315c19.339 0 27.934 14.182 27.934 37.925 0 23.314-8.058 37.281-27.29 37.281h-23.958v-75.206zm15.687 60.272h6.124c8.81 0 13.43-5.801 13.43-21.917 0-18.05-4.62-23.421-13.215-23.421h-6.34v45.338zm70.372 1.72h-16.975l-2.257 13.214h-15.9l15.793-75.206h22.347l15.793 75.206h-16.438l-2.363-13.215zm-2.579-14.505l-3.33-18.694c-1.182-6.661-2.257-13.86-2.364-13.967h-.43c0 .108-1.182 7.198-2.363 13.86l-3.331 18.801h11.818z" fill="#2B2B2B"/></g></svg>