<svg width="400" height="400" xmlns="http://www.w3.org/2000/svg"><g fill="none" fill-rule="evenodd"><path fill="#3277C7" d="M0 0h400v400H0z"/><path stroke="#3277C7" stroke-width="6" fill="#FFF" d="M3 263h394v134H3z"/><path d="M77.493 178.75H61.736v61.817H45.758V178.75H30v-15.316h47.493v15.316zm2.645 23.14c0-29.201 10.578-39.89 28.32-39.89 17.74 0 28.43 10.579 28.43 40.11 0 29.091-10.58 39.89-28.43 39.89-17.632 0-28.32-10.468-28.32-40.11zm16.529-.11c0 19.063 3.856 24.793 11.9 24.793 7.824 0 11.791-5.51 11.791-24.353 0-19.173-3.967-24.793-11.79-24.793-8.045 0-11.901 5.73-11.901 24.353zm77.024 38.787l-9.697-27.768-2.093.11h-2.314v27.658h-16.088v-77.134h23.47c15.207 0 23.141 10.468 23.141 25.454 0 9.366-3.636 16.86-10.468 20.276l12.121 31.404h-18.072zm-14.104-40.991h6.611c4.628 0 7.714-3.306 7.714-10.469 0-6.5-2.755-10.468-8.044-10.468h-6.281v20.937zm38.016 40.991v-77.134h16.088v77.134h-16.088zm60.937 0l-20.606-43.085h-.33c0 .11.11 9.477.11 18.512v24.573h-15.427v-77.134h16.308l20.606 44.738h.33c0-.11-.11-8.595-.11-18.513v-26.225h15.427v77.134H258.54zm22.92-38.677c0-29.201 10.579-39.89 28.32-39.89 17.74 0 28.43 10.579 28.43 40.11 0 29.091-10.58 39.89-28.43 39.89-17.631 0-28.32-10.468-28.32-40.11zm16.529-.11c0 19.063 3.857 24.793 11.9 24.793 7.824 0 11.791-5.51 11.791-24.353 0-19.173-3.967-24.793-11.79-24.793-8.044 0-11.901 5.73-11.901 24.353z" fill="#FFF"/><path d="M70.567 307.19h-9.432v60.648H45.46v-60.649H30v-15.027h46.595v5.217c-2.488 2.48-4.512 5.718-6.028 9.81zm196.622 33.62v27.028h-15.784V340.81l-19.46-48.649h17.839l7.027 20.757c1.513 4.757 2.703 8.973 2.81 9.081h.433c.108-.108 1.297-4.324 2.919-8.973l7.243-20.865h16.108l-19.135 48.649zM72.703 329.89c0-29.201 10.378-39.89 27.783-39.89 17.406 0 27.892 10.579 27.892 40.11 0 29.091-10.378 39.89-27.892 39.89-17.297 0-27.783-10.468-27.783-40.11zm16.216-.11c0 19.063 3.784 24.793 11.676 24.793 7.675 0 11.567-5.51 11.567-24.353 0-19.173-3.892-24.793-11.567-24.793-7.892 0-11.676 5.73-11.676 24.353zm45.946-37.618h23.46c19.459 0 28.107 14.27 28.107 38.162 0 23.46-8.108 37.514-27.459 37.514h-24.108v-75.676zm15.784 60.649h6.162c8.865 0 13.513-5.838 13.513-22.054 0-18.162-4.648-23.568-13.297-23.568h-6.378v45.622zm70.81 1.73h-17.08l-2.27 13.297h-16L202 292.162h22.486l15.892 75.676h-16.54l-2.379-13.297zm-2.594-14.595l-3.351-18.81c-1.19-6.704-2.27-13.947-2.379-14.055h-.432c0 .108-1.19 7.243-2.379 13.946l-3.351 18.919h11.892z" fill="#2B2B2B"/></g></svg>