<svg width="400" height="400" xmlns="http://www.w3.org/2000/svg"><g fill="none" fill-rule="evenodd"><path stroke="#F2463D" stroke-width="6" fill="#FFF" d="M3 3h394v134H3z"/><path fill="#F2463D" d="M0 140h401v260H0z"/><path d="M30 104V37h16.391v67H30zm25.723 0V37h16.391v51.327h21.297V104H55.723z" fill="#2B2B2B"/><path d="M30 164.2h18.826c12.182 0 19.565 7.567 19.565 22.24 0 13.382-7.383 21.78-19.472 21.78h-5.445v20.58H30v-64.6zm13.566 31.746h4.43c4.799 0 6.83-2.953 6.921-9.32 0-6.092-1.938-9.598-6.921-9.598h-4.522l.092 18.918zm29.9 32.854v-64.6h13.475v64.6H73.467zm48.267-11.351h-14.581l-1.939 11.351H91.555l13.566-64.6h19.196l13.566 64.6h-14.12l-2.03-11.351zm-2.215-12.459l-2.861-16.057c-1.015-5.722-1.938-11.905-2.03-11.998h-.37c0 .093-1.015 6.183-2.03 11.905l-2.86 16.15h10.15zm51.588 2.584l12.92 3.415C181.72 220.956 176.828 230 162.431 230c-13.566 0-23.071-8.306-23.071-33.685 0-25.102 9.413-33.315 23.533-33.315 13.197 0 19.195 7.383 20.949 18.457l-12.92 3.507c-1.2-5.537-3.507-9.044-8.583-9.044-6.276 0-9.137 5.076-9.137 20.119 0 16.242 3.138 21.04 9.23 21.04 5.167 0 7.474-3.69 8.674-9.505zm18.55 21.226v-64.6H225v12.828H203.13v12.458h16.335v12.459H203.13v14.027h22.334V228.8h-35.807zm72.445 0l-17.258-36.084h-.277c0 .093.092 7.937.092 15.504v20.58h-12.92v-64.6h13.659l17.257 37.468h.277c0-.092-.092-7.198-.092-15.504V164.2h12.92v64.6h-13.658zm57.863-51.034l-17.903 29.716c-2.677 4.614-4.984 8.029-4.984 8.121l.185.37h22.979V228.8h-38.483v-13.012l19.195-31.193c2.4-3.968 4.43-7.106 4.43-7.198l-.185-.37h-22.517V164.2h37.283v13.566zm33.962 39.683h-14.582l-1.938 11.351h-13.658l13.566-64.6h19.196l13.566 64.6h-14.12l-2.03-11.351zm-2.215-12.459l-2.861-16.057c-1.015-5.722-1.938-11.905-2.03-11.998h-.37c0 .093-1.015 6.183-2.03 11.905l-2.86 16.15h10.15z" fill="#FFF"/></g></svg>