<svg width="400" height="400" xmlns="http://www.w3.org/2000/svg"><g fill="none" fill-rule="evenodd"><path fill="#3277C7" d="M0 0h400v400H0z"/><path stroke="#3277C7" stroke-width="6" fill="#FFF" d="M3 263h394v134H3z"/><path d="M67.906 215.223l15.427 4.077C80.58 231.201 74.738 242 57.548 242 41.35 242 30 232.083 30 201.78 30 171.807 41.24 162 58.1 162c15.757 0 22.92 8.815 25.013 22.039l-15.427 4.187c-1.433-6.612-4.187-10.799-10.248-10.799-7.493 0-10.91 6.06-10.91 24.022 0 19.394 3.747 25.124 11.02 25.124 6.171 0 8.926-4.408 10.358-11.35zm22.15 25.344v-77.134h42.203v15.316h-26.116v14.876h19.504v14.876h-19.504v16.75h26.667v15.316H90.055zm47.272-19.393l15.537-4.298c.551 6.281 2.975 10.138 8.705 10.138 4.298 0 7.053-2.094 7.053-6.832 0-6.171-5.07-8.044-12.232-11.901-7.824-4.298-17.851-9.697-17.851-25.455 0-12.341 6.722-20.826 22.59-20.826 11.9 0 22.369 4.738 24.242 20.275l-15.537 4.188c-.992-7.053-3.526-9.477-8.265-9.477-4.297 0-6.501 1.874-6.501 6.06 0 5.841 4.297 7.714 12.562 12.012 8.705 4.408 17.41 9.476 17.41 24.573 0 14.986-8.154 22.369-23.14 22.369-12.893 0-23.03-5.84-24.573-20.826zm54.545 19.393v-77.134h42.204v15.316h-26.116v14.876h19.505v14.876H207.96v16.75h26.667v15.316h-42.755zm86.502 0l-20.606-43.085h-.331c0 .11.11 9.477.11 18.512v24.573h-15.427v-77.134h16.309l20.606 44.738h.33c0-.11-.11-8.595-.11-18.513v-26.225h15.427v77.134h-16.308zm57.85-13.553h-17.41l-2.314 13.553h-16.308l16.198-77.134h22.92l16.199 77.134h-16.86l-2.424-13.553zm-2.644-14.876l-3.416-19.174c-1.212-6.832-2.314-14.215-2.424-14.325h-.44c0 .11-1.213 7.383-2.425 14.215l-3.416 19.284h12.121z" fill="#FFF"/><path d="M70.567 307.19h-9.432v60.648H45.46v-60.649H30v-15.027h46.595v5.217c-2.488 2.48-4.512 5.718-6.028 9.81zm196.622 33.62v27.028h-15.784V340.81l-19.46-48.649h17.839l7.027 20.757c1.513 4.757 2.703 8.973 2.81 9.081h.433c.108-.108 1.297-4.324 2.919-8.973l7.243-20.865h16.108l-19.135 48.649zM72.703 329.89c0-29.201 10.378-39.89 27.783-39.89 17.406 0 27.892 10.579 27.892 40.11 0 29.091-10.378 39.89-27.892 39.89-17.297 0-27.783-10.468-27.783-40.11zm16.216-.11c0 19.063 3.784 24.793 11.676 24.793 7.675 0 11.567-5.51 11.567-24.353 0-19.173-3.892-24.793-11.567-24.793-7.892 0-11.676 5.73-11.676 24.353zm45.946-37.618h23.46c19.459 0 28.107 14.27 28.107 38.162 0 23.46-8.108 37.514-27.459 37.514h-24.108v-75.676zm15.784 60.649h6.162c8.865 0 13.513-5.838 13.513-22.054 0-18.162-4.648-23.568-13.297-23.568h-6.378v45.622zm70.81 1.73h-17.08l-2.27 13.297h-16L202 292.162h22.486l15.892 75.676h-16.54l-2.379-13.297zm-2.594-14.595l-3.351-18.81c-1.19-6.704-2.27-13.947-2.379-14.055h-.432c0 .108-1.19 7.243-2.379 13.946l-3.351 18.919h11.892z" fill="#2B2B2B"/></g></svg>