<svg width="400" height="400" xmlns="http://www.w3.org/2000/svg"><g fill="none" fill-rule="evenodd"><path fill="#B75DC7" d="M0 0h400v400H0z"/><path stroke="#B75DC7" stroke-width="6" fill="#FFF" d="M3 264h394v134H3z"/><path d="M73.314 176.886H46.686v17.6h20.228v16H46.686V241H30v-80h43.314v15.886zm7.2 64.114v-80H97.2v80H80.514zm56.915 0l-10.058-28.8-2.171.114h-2.4V241h-16.686v-80h24.343c15.772 0 24 10.857 24 26.4 0 9.714-3.771 17.486-10.857 21.029L156.171 241H137.43zM122.8 198.486h6.857c4.8 0 8-3.429 8-10.857 0-6.743-2.857-10.858-8.343-10.858H122.8v21.715zM162.229 241v-80H206v15.886h-27.086v15.428h20.229v15.429h-20.229v17.371h27.657V241H162.23zm89.714 0l-21.372-44.686h-.342c0 .115.114 9.829.114 19.2V241h-16v-80h16.914l21.372 46.4h.342c0-.114-.114-8.914-.114-19.2V161h16v80h-16.914zm71.657-63.2l-22.171 36.8c-3.315 5.714-6.172 9.943-6.172 10.057l.229.457h28.457V241h-47.657v-16.114l23.771-38.629c2.972-4.914 5.486-8.8 5.486-8.914l-.229-.457H277.43V161H323.6v16.8zm7.886 63.2v-80h43.771v15.886h-27.086v15.428H368.4v15.429h-20.229v17.371h27.658V241h-44.343z" fill="#FFF"/><path d="M70.567 308.19h-9.432v60.648H45.46v-60.649H30v-15.027h46.595v5.217c-2.488 2.48-4.512 5.718-6.028 9.81zm196.622 33.62v27.028h-15.784V341.81l-19.46-48.649h17.839l7.027 20.757c1.513 4.757 2.703 8.973 2.81 9.081h.433c.108-.108 1.297-4.324 2.919-8.973l7.243-20.865h16.108l-19.135 48.649zM72.703 330.89c0-29.201 10.378-39.89 27.783-39.89 17.406 0 27.892 10.579 27.892 40.11 0 29.091-10.378 39.89-27.892 39.89-17.297 0-27.783-10.468-27.783-40.11zm16.216-.11c0 19.063 3.784 24.793 11.676 24.793 7.675 0 11.567-5.51 11.567-24.353 0-19.173-3.892-24.793-11.567-24.793-7.892 0-11.676 5.73-11.676 24.353zm45.946-37.618h23.46c19.459 0 28.107 14.27 28.107 38.162 0 23.46-8.108 37.514-27.459 37.514h-24.108v-75.676zm15.784 60.649h6.162c8.865 0 13.513-5.838 13.513-22.054 0-18.162-4.648-23.568-13.297-23.568h-6.378v45.622zm70.81 1.73h-17.08l-2.27 13.297h-16L202 293.162h22.486l15.892 75.676h-16.54l-2.379-13.297zm-2.594-14.595l-3.351-18.81c-1.19-6.704-2.27-13.947-2.379-14.055h-.432c0 .108-1.19 7.243-2.379 13.946l-3.351 18.919h11.892z" fill="#2B2B2B"/></g></svg>