<svg width="400" height="400" xmlns="http://www.w3.org/2000/svg"><g fill="none" fill-rule="evenodd"><path fill="#3277C7" d="M0 0h400v400H0z"/><path stroke="#3277C7" stroke-width="6" fill="#FFF" d="M3 263h394v134H3z"/><path d="M30 240.567v-77.134h16.088v61.818h24.353v15.316H30zm209.036-38.677c0-29.201 10.578-39.89 28.32-39.89 17.74 0 28.43 10.579 28.43 40.11 0 29.091-10.58 39.89-28.43 39.89-17.631 0-28.32-10.468-28.32-40.11zm16.529-.11c0 19.063 3.856 24.793 11.9 24.793 7.824 0 11.791-5.51 11.791-24.353 0-19.173-3.967-24.793-11.79-24.793-8.045 0-11.901 5.73-11.901 24.353zm-36.694 13.443l15.427 4.077c-2.755 11.901-8.596 22.7-25.786 22.7-16.198 0-27.548-9.917-27.548-40.22 0-29.973 11.24-39.78 28.1-39.78 15.757 0 22.92 8.815 25.013 22.039l-15.427 4.187c-1.432-6.612-4.187-10.799-10.248-10.799-7.493 0-10.909 6.06-10.909 24.022 0 19.394 3.747 25.124 11.02 25.124 6.17 0 8.925-4.408 10.358-11.35zm-58.072 0l15.427 4.077c-2.755 11.901-8.595 22.7-25.785 22.7-16.199 0-27.548-9.917-27.548-40.22 0-29.973 11.24-39.78 28.099-39.78 15.757 0 22.92 8.815 25.014 22.039l-15.427 4.187c-1.433-6.612-4.188-10.799-10.248-10.799-7.494 0-10.91 6.06-10.91 24.022 0 19.394 3.747 25.124 11.02 25.124 6.17 0 8.925-4.408 10.358-11.35zm-83.857 25.344v-77.134h42.204v15.316H93.03v14.876h19.504v14.876H93.03v16.75h26.667v15.316H76.942z" fill="#FFF"/><path d="M70.567 307.19h-9.432v60.648H45.46v-60.649H30v-15.027h46.595v5.217c-2.488 2.48-4.512 5.718-6.028 9.81zm196.622 33.62v27.028h-15.784V340.81l-19.46-48.649h17.839l7.027 20.757c1.513 4.757 2.703 8.973 2.81 9.081h.433c.108-.108 1.297-4.324 2.919-8.973l7.243-20.865h16.108l-19.135 48.649zM72.703 329.89c0-29.201 10.378-39.89 27.783-39.89 17.406 0 27.892 10.579 27.892 40.11 0 29.091-10.378 39.89-27.892 39.89-17.297 0-27.783-10.468-27.783-40.11zm16.216-.11c0 19.063 3.784 24.793 11.676 24.793 7.675 0 11.567-5.51 11.567-24.353 0-19.173-3.892-24.793-11.567-24.793-7.892 0-11.676 5.73-11.676 24.353zm45.946-37.618h23.46c19.459 0 28.107 14.27 28.107 38.162 0 23.46-8.108 37.514-27.459 37.514h-24.108v-75.676zm15.784 60.649h6.162c8.865 0 13.513-5.838 13.513-22.054 0-18.162-4.648-23.568-13.297-23.568h-6.378v45.622zm70.81 1.73h-17.08l-2.27 13.297h-16L202 292.162h22.486l15.892 75.676h-16.54l-2.379-13.297zm-2.594-14.595l-3.351-18.81c-1.19-6.704-2.27-13.947-2.379-14.055h-.432c0 .108-1.19 7.243-2.379 13.946l-3.351 18.919h11.892z" fill="#2B2B2B"/></g></svg>