<svg width="400" height="400" xmlns="http://www.w3.org/2000/svg"><g fill="none" fill-rule="evenodd"><path fill="#263238" d="M0 400h400V0H0z"/><g opacity=".1" fill="#FEFEFE"><path d="M242.654 117.93c-31.388 0-56.836-25.355-56.836-56.634s25.445-56.634 56.836-56.634c31.39 0 56.837 25.355 56.837 56.634 0 31.28-25.446 56.635-56.837 56.635zM148.462 377.943c2.325-7.659-4.112-11.223-9.473-12.647-5.364-1.426-82.948-16.031-114.053-28.144-31.105-12.113-33.597-32.64-30.75-50.947 1.575-10.113 15.375-35.982 21.64-45.27 7.732-11.459 64.622-97.164 65.782-99.44 1.961-3.85-.734-8.481-3.98-9.55-3.246-1.07-17.834-6.414-45.72-1.248-33.639 6.233-87.206 64.853-93.497 68.938-11.798 7.659-9.115-7.84-7.686-10.153 12.831-20.778 33.514-57.344 82.231-90.491 44.487-30.268 102.968-42.152 148.011-9.512 98.706 71.532-56.301 162.882-61.31 165.97-5.004 3.086-6.075 9.085-.236 12.41 5.84 3.325 98.56 47.916 104.996 51.123 28.601 14.251 24.223 47.632 11.885 67.874C200.126 413.391 110 549.426 97.764 572.48c-9.308 17.544-29.366 8.064-22.423-10.511 7.264-19.439 70.796-176.368 73.121-184.026z"/><path d="M-15.14 336.595c8.56 10.774 22.048 21.099 45.86 31.827 4.194 1.89 5.9 10.99-1.945 16.249-5.57 3.73-92.76 77.166-109.14 85.838-16.38 8.672-120.756 31.043-130.019 34.102-9.262 3.06-13.929-5.368-6.277-11.608 7.653-6.243 101.61-50.499 114.325-62.715 12.716-12.22 60.854-82.118 64.702-86.333 7.064-7.739 14.418-17.523 22.494-7.36zM281.08 171.807c30.132-6.257 50.1-23.611 56.883-29.897 7.168-6.643 19.106-1.242 13.694 8.37-6.715 11.926-25.979 50.492-67.124 59.548-25.627 5.641-53.596 1.92-72.453-7.109-7.345-3.518-10.488-5.953-5.562-15.43 4.898-9.423 8.892-17.422 10.202-26.191.949-6.346 7.088-6.973 12.555-2.372 7.703 6.481 26.422 18.35 51.805 13.08z"/></g><g fill="#FEFEFE"><path d="M241.456 235.532V223.44h-40.61v12.092h14.012v49.465h12.587v-49.465zM186.013 284.997h13.244l-10.29-25.283c5.473-2.198 9.195-7.803 9.195-16.488 0-11.871-6.676-19.786-19.702-19.786h-18.825v61.557h12.367v-22.315h5.693l8.318 22.315zm-14.011-32.317v-17.257h5.473c5.255 0 7.99 2.746 7.99 8.682 0 5.607-2.844 8.575-7.77 8.575h-5.693zM107.037 254.109c0 22.973 8.756 32.208 23.315 32.208 14.558 0 23.315-9.235 23.315-32.208 0-23.194-8.757-31.767-23.315-31.767-14.559 0-23.315 8.573-23.315 31.767m13.026.11c0-14.95 3.392-20.008 10.289-20.008 6.896 0 10.398 5.058 10.398 20.009 0 15.167-3.502 20.225-10.398 20.225-6.897 0-10.29-4.838-10.29-20.225M66.262 223.44v61.557h12.587v-20.445h5.364c11.822 0 19.593-7.256 19.593-20.336 0-13.631-7.771-20.776-19.702-20.776H66.262zm12.587 30.338v-18.466h5.146c5.252 0 7.662 3.079 7.662 9.123 0 6.156-2.519 9.343-7.662 9.343h-5.146zM20.084 269.938c1.533 12.53 10.507 16.379 19.922 16.379 11.272 0 19.155-5.386 19.155-17.7 0-11.651-7.444-16.376-14.12-19.566-7.553-3.407-11.493-5.055-11.493-9.89 0-3.738 2.516-5.828 6.567-5.828 4.596 0 6.894 2.529 7.662 7.584l10.836-2.968c-1.203-10.332-8.1-15.607-19.154-15.607-11.713 0-18.172 5.825-18.172 16.596 0 12.642 8.648 17.15 14.23 19.678 7.005 3.187 11.165 4.836 11.165 10.221 0 4.068-2.41 6.378-6.787 6.378-5.582 0-8.098-3.518-8.536-8.356l-11.275 3.079z"/></g><g fill="#EE452F"><path d="M112.476 348.878l2.446 12.17h12.898l-14.343-61.402H95.356l-14.343 61.402h12.452l2.446-12.17h16.565zm-2.223-10.856h-12.12l2.337-11.732c2.112-10.306 3.335-16.664 3.446-16.995h.443c0 .331 1.226 6.58 3.337 16.775l2.557 11.952zM312.16 313.353v-13.706h-38.133v12.06H297.819l.22.33c0 .11-2 2.63-6.78 9.32l-18.344 26.096v13.594h39.467v-12.06h-17.455c-4.557 0-7.671.109-7.671.109l-.223-.437c0-.11 2.78-3.18 8.117-10.745l17.01-24.561zM266.408 361.048v-61.4h-12.006v24.998c0 6.359.109 12.61.109 12.72h-.332l-18.566-37.718H222.27v61.4h12.008v-25.437c0-6.36-.111-13.267-.111-13.378h.334l18.566 38.815h13.34zM179.521 361.048h35.91v-12.06h-23.236V335.72h16.675v-11.84h-16.675v-12.17h22.792v-12.06h-35.466zM161.786 341.532c-1.557 5.373-3.892 8.99-9.451 8.99-6.892 0-10.338-5.262-10.338-20.722 0-13.486 3.112-19.408 10.449-19.408 6.894 0 8.563 5.81 9.451 9.978l11.563-2.96c-2.225-13.926-9.894-18.858-21.234-18.858-14.566 0-23.46 8.66-23.46 31.576 0 23.463 9.228 32.237 23.46 32.237 13.006 0 18.454-7.128 21.234-17.653l-11.674-3.18zM346.793 348.878l2.446 12.17h12.897l-14.343-61.402h-18.12l-14.343 61.402h12.451l2.446-12.17h16.566zm-2.223-10.856h-12.117l2.334-11.732c2.112-10.306 3.335-16.664 3.446-16.995h.445c0 .331 1.223 6.58 3.335 16.775l2.557 11.952zM63.502 361.048h12.786v-61.4H63.502zM20.084 299.647v61.4H32.87v-20.392h5.446c12.008 0 19.9-7.238 19.9-20.285 0-13.595-7.892-20.723-20.012-20.723h-18.12zm12.786 30.261V311.49h5.225c5.335 0 7.78 3.07 7.78 9.1 0 6.14-2.556 9.318-7.78 9.318H32.87z"/></g></g></svg>