<svg width="400" height="400" xmlns="http://www.w3.org/2000/svg"><g fill="none" fill-rule="evenodd"><path fill="#3277C7" d="M0 0h400v400H0z"/><path stroke="#3277C7" stroke-width="6" fill="#FFF" d="M3 263h394v134H3z"/><path d="M68.676 240.603H45.04L30 165.397h17.511l6.124 38.248 3.653 22.24h.43c0-.323.859-7.199 3.222-22.133l6.231-38.355h16.33l-14.825 75.206zm20.412 0v-75.206h41.146v14.934h-25.461v14.504h19.015v14.504h-19.015v16.33h25.998v14.934H89.088zm78.425 0l-9.454-27.074-2.041.107h-2.256v26.967h-15.685v-75.206h22.883c14.825 0 22.56 10.206 22.56 24.818 0 9.132-3.545 16.438-10.206 19.768l11.818 30.62h-17.62zm-13.751-39.967h6.446c4.512 0 7.52-3.223 7.52-10.206 0-6.34-2.686-10.207-7.843-10.207h-6.123v20.413zm34.056 2.257c0-28.472 10.313-38.893 27.61-38.893 17.296 0 27.717 10.314 27.717 39.107 0 28.364-10.313 38.893-27.717 38.893-17.19 0-27.61-10.207-27.61-39.107zm16.114-.108c0 18.587 3.76 24.174 11.603 24.174 7.628 0 11.495-5.372 11.495-23.744 0-18.694-3.867-24.174-11.495-24.174-7.843 0-11.603 5.587-11.603 23.744zm81.004 37.818l-20.09-42.008h-.322c0 .107.107 9.24.107 18.05v23.958h-15.04v-75.206h15.9l20.09 43.62h.322c0-.108-.107-8.38-.107-18.05v-25.57h15.04v75.206h-15.9zm56.402-13.215h-16.974l-2.256 13.215h-15.9L322 165.397h22.346l15.792 75.206h-16.437l-2.363-13.215zm-2.579-14.504l-3.33-18.694c-1.182-6.661-2.256-13.86-2.363-13.967h-.43c0 .108-1.182 7.198-2.364 13.86l-3.33 18.801h11.817z" fill="#FFF"/><path d="M30 349.174l15.536-4.298c.551 6.281 2.975 10.138 8.705 10.138 4.297 0 7.052-2.094 7.052-6.832 0-6.171-5.069-8.044-12.23-11.901-7.824-4.298-17.85-9.697-17.85-25.455 0-12.341 6.72-20.826 22.587-20.826 11.9 0 22.368 4.738 24.241 20.275l-15.536 4.188c-.992-7.053-3.526-9.477-8.264-9.477-4.297 0-6.501 1.874-6.501 6.06 0 5.841 4.297 7.714 12.561 12.012 8.705 4.408 17.41 9.476 17.41 24.573 0 14.986-8.154 22.369-23.14 22.369-12.891 0-23.028-5.84-24.571-20.826zm54.542 19.393v-77.134h42.202v15.316H100.63v14.876h19.503v14.876H100.63v16.75h26.665v15.316H84.542zm80.437 0l-9.697-27.768-2.093.11h-2.314v27.658h-16.088v-77.134h23.47c15.206 0 23.14 10.468 23.14 25.454 0 9.366-3.637 16.86-10.468 20.276l12.12 31.404h-18.07zm-14.104-40.991h6.61c4.629 0 7.714-3.306 7.714-10.469 0-6.5-2.755-10.468-8.044-10.468h-6.28v20.937zm71.4 27.438h-17.409l-2.314 13.553h-16.307l16.197-77.134h22.919l16.197 77.134H224.7l-2.424-13.553zm-2.644-14.876l-3.416-19.174c-1.212-6.832-2.314-14.215-2.424-14.325h-.44c0 .11-1.212 7.383-2.425 14.215l-3.415 19.284h12.12z" fill="#2B2B2B"/></g></svg>