<svg width="400" height="400" xmlns="http://www.w3.org/2000/svg"><g fill="none" fill-rule="evenodd"><path fill="#F291B2" d="M0 0h400v400H0z"/><path stroke="#F291B2" stroke-width="6" fill="#FFF" d="M3 263h394v134H3z"/><path d="M30 167.29h20.231c13.091 0 21.025 8.131 21.025 23.9 0 14.38-7.934 23.405-20.925 23.405h-5.852v22.116H30v-69.422zm14.579 34.115h4.76c5.157 0 7.339-3.174 7.438-10.017 0-6.545-2.083-10.314-7.438-10.314h-4.86l.1 20.331zM102 224.512H86.33l-2.082 12.199H69.57l14.579-69.422h20.628l14.578 69.422h-15.173L102 224.512zm-2.38-13.388l-3.075-17.256c-1.09-6.149-2.082-12.794-2.181-12.893h-.397c0 .1-1.091 6.645-2.182 12.794l-3.074 17.355H99.62zm24.694 25.587v-69.422h14.48v55.637h21.917v13.785h-36.397zm42.248 0v-69.422h37.983v13.785h-23.504v13.389h17.554v13.388h-17.554v15.075h24v13.785h-38.479zm72.397 0l-8.728-24.992-1.884.1h-2.083v24.892h-14.479v-69.422h21.124c13.686 0 20.827 9.422 20.827 22.91 0 8.43-3.273 15.173-9.422 18.247l10.91 28.265h-16.265zm-12.695-36.893h5.95c4.166 0 6.943-2.975 6.943-9.421 0-5.852-2.48-9.422-7.24-9.422h-5.653v18.843zm75.372 36.893v-19.537c0-14.678.199-26.579.199-26.678h-.298c-.099.099-1.983 7.537-4.165 15.173l-4.562 15.471h-9.62l-4.463-15.371c-2.28-7.835-4.165-15.174-4.165-15.273h-.397c0 .099.199 12 .199 26.678v19.537h-13.885v-69.422h18.15l10.313 30.05h.298l9.62-30.05h17.256v69.422h-14.48zm20.43-34.81c0-26.281 9.52-35.901 25.488-35.901 15.967 0 25.586 9.52 25.586 36.1 0 26.181-9.52 35.9-25.586 35.9-15.868 0-25.488-9.421-25.488-36.1zm14.876-.1c0 17.158 3.471 22.315 10.71 22.315 7.042 0 10.612-4.959 10.612-21.918 0-17.256-3.57-22.314-10.611-22.314-7.24 0-10.71 5.157-10.71 21.918z" fill="#FFF"/><path d="M66.51 309.47h-8.488v54.584H43.914V309.47H30v-13.524h41.935v4.695c-2.239 2.233-4.06 5.146-5.425 8.83zm176.96 30.26v24.324h-14.205V339.73l-17.514-43.784h16.054l6.325 18.681c1.362 4.281 2.432 8.076 2.53 8.173h.389c.097-.097 1.167-3.892 2.627-8.076l6.519-18.778h14.497L243.47 339.73zM68.432 329.9c0-26.28 9.341-35.9 25.006-35.9 15.665 0 25.103 9.52 25.103 36.1 0 26.181-9.341 35.9-25.103 35.9-15.568 0-25.006-9.421-25.006-36.1zm14.595-.098c0 17.157 3.405 22.314 10.508 22.314 6.908 0 10.41-4.959 10.41-21.918 0-17.256-3.502-22.314-10.41-22.314-7.103 0-10.508 5.157-10.508 21.918zm41.351-33.856h21.114c17.513 0 25.297 12.843 25.297 34.346 0 21.113-7.297 33.762-24.713 33.762h-21.698v-68.108zm14.206 54.584h5.546c7.978 0 12.162-5.254 12.162-19.849 0-16.346-4.184-21.21-11.968-21.21h-5.74v41.059zm63.73 1.556H186.94l-2.044 11.968h-14.4l14.303-68.108h20.238l14.303 68.108h-14.887l-2.14-11.968zm-2.336-13.135l-3.016-16.93c-1.07-6.032-2.043-12.55-2.14-12.648h-.39c0 .097-1.07 6.519-2.14 12.551l-3.016 17.027h10.702z" fill="#424242"/></g></svg>