<?xml version="1.0" encoding="UTF-8"?>
<svg width="32px" height="32px" viewBox="0 0 32 32" version="1.1" xmlns="http://www.w3.org/2000/svg" xmlns:xlink="http://www.w3.org/1999/xlink">
    <!-- Generator: Sketch 49 (51002) - http://www.bohemiancoding.com/sketch -->
    <title>icons/gray/cross</title>
    <desc>Created with Sketch.</desc>
    <defs></defs>
    <g id="icons/gray/cross" stroke="none" stroke-width="1" fill="none" fill-rule="evenodd">
        <path d="M17.7377793,16.0003077 L31.635091,2.10059046 C32.1150725,1.62052584 32.1150725,0.840113092 31.635091,0.360048468 C31.1551094,-0.120016156 30.3748317,-0.120016156 29.8948502,0.360048468 L15.9975386,14.2597657 L2.10022691,0.360048468 C1.62024538,-0.120016156 0.839967694,-0.120016156 0.359986154,0.360048468 C-0.119995385,0.840113092 -0.119995385,1.62052584 0.359986154,2.10059046 L14.2572978,16.0003077 L0.359986154,29.900025 C-0.119995385,30.3800896 -0.119995385,31.1605024 0.359986154,31.640567 C0.601207646,31.8818302 0.916272451,32 1.23133726,32 C1.54640206,32 1.86146687,31.8793684 2.10268836,31.640567 L16,17.7408497 L29.8973116,31.640567 C30.1385331,31.8818302 30.4535979,32 30.7686627,32 C31.0837275,32 31.3987924,31.8793684 31.6400138,31.640567 C32.1199954,31.1605024 32.1199954,30.3800896 31.6400138,29.900025 L17.7427022,16.0003077 L17.7377793,16.0003077 Z" id="shape" fill="#9E9E9E"></path>
    </g>
</svg>