<?xml version="1.0" encoding="UTF-8"?>
<svg width="32px" height="32px" viewBox="0 0 32 32" version="1.1" xmlns="http://www.w3.org/2000/svg" xmlns:xlink="http://www.w3.org/1999/xlink">
    <!-- Generator: Sketch 49 (51002) - http://www.bohemiancoding.com/sketch -->
    <title>icons/gray/grid-gray</title>
    <desc>Created with Sketch.</desc>
    <defs></defs>
    <g id="icons/gray/grid" stroke="none" stroke-width="1" fill="none" fill-rule="evenodd">
        <path d="M0.8,1.60032105 L0.8,13.7596789 C0.8,14.1995159 1.15990087,14.56 1.60032105,14.56 L13.7596789,14.56 C14.1995159,14.56 14.56,14.2000991 14.56,13.7596789 L14.56,1.60032105 C14.56,1.16048414 14.2000991,0.8 13.7596789,0.8 L1.60032105,0.8 C1.16048414,0.8 0.8,1.15990087 0.8,1.60032105 Z M17.44,1.60032105 L17.44,13.7596789 C17.44,14.1995159 17.7999009,14.56 18.2403211,14.56 L30.3996789,14.56 C30.8395159,14.56 31.2,14.2000991 31.2,13.7596789 L31.2,1.60032105 C31.2,1.16048414 30.8400991,0.8 30.3996789,0.8 L18.2403211,0.8 C17.8004841,0.8 17.44,1.15990087 17.44,1.60032105 Z M0.8,18.2403211 L0.8,30.3996789 C0.8,30.8395159 1.15990087,31.2 1.60032105,31.2 L13.7596789,31.2 C14.1995159,31.2 14.56,30.8400991 14.56,30.3996789 L14.56,18.2403211 C14.56,17.8004841 14.2000991,17.44 13.7596789,17.44 L1.60032105,17.44 C1.16048414,17.44 0.8,17.7999009 0.8,18.2403211 Z M17.44,18.2403211 L17.44,30.3996789 C17.44,30.8395159 17.7999009,31.2 18.2403211,31.2 L30.3996789,31.2 C30.8395159,31.2 31.2,30.8400991 31.2,30.3996789 L31.2,18.2403211 C31.2,17.8004841 30.8400991,17.44 30.3996789,17.44 L18.2403211,17.44 C17.8004841,17.44 17.44,17.7999009 17.44,18.2403211 Z" id="shape" stroke="#9E9E9E" stroke-width="1.6"></path>
    </g>
</svg>