<svg xmlns="http://www.w3.org/2000/svg" viewBox="0 0 32 32">
  <g fill="none" fill-rule="evenodd">
    <path id="Shape" fill="#9E9E9E" fill-rule="nonzero" d="M12.452 24.904a12.23 12.23 0 0 0 7.952-2.899l9.663 9.664c.221.22.497.331.801.331a1.133 1.133 0 0 0 .8-1.933l-9.663-9.663a12.432 12.432 0 0 0 2.9-7.952C24.904 5.577 19.326 0 12.451 0 5.605 0 0 5.605 0 12.452c0 6.875 5.605 12.452 12.452 12.452zm0-22.64c5.633 0 10.188 4.583 10.188 10.188A10.18 10.18 0 0 1 12.452 22.64c-5.632 0-10.188-4.583-10.188-10.188S6.847 2.264 12.452 2.264z"/>
  </g>
</svg>
