<?xml version="1.0" encoding="UTF-8"?>
<svg width="212px" height="56px" viewBox="0 0 212 56" version="1.1" xmlns="http://www.w3.org/2000/svg" xmlns:xlink="http://www.w3.org/1999/xlink">
    <!-- Generator: Sketch 52.2 (67145) - http://www.bohemiancoding.com/sketch -->
    <title>horizontal-white-full</title>
    <desc>Created with Sketch.</desc>
    <g id="horizontal-white-full" stroke="none" stroke-width="1" fill="none" fill-rule="evenodd">
        <g id="Logo-RGB" fill="#FFFFFF" fill-rule="nonzero">
            <g id="Group" transform="translate(12.817412, 12.587156)">
                <path d="M20.4565901,24.5577982 C18.713422,25.6110092 16.662636,26.587156 14.4580411,26.587156 C8.56203144,26.587156 3.69141475,22.4770642 2.92237001,16.8513761 L1.69189843,16.8513761 C1.6662636,16.8513761 1.64062878,15.6954128 1.64062878,15.3357798 C1.64062878,8.06605505 7.56227328,1.90091743 14.8169287,1.90091743 C15.0220073,1.90091743 15.4577993,1.72110092 15.4577993,1.72110092 L15.4577993,2.92844037 C17.3291415,3.08256881 18.9441354,3.62201835 20.4309553,4.52110092 L21.8152358,2.15779817 C19.6619105,0.873394495 17.1496977,0.15412844 14.4836759,0.15412844 C6.53688029,0.15412844 0.076904474,6.60183486 0.076904474,14.5651376 C0.076904474,22.5284404 6.51124547,28.9761468 14.4580411,28.9761468 C17.1753325,28.9761468 19.7131802,28.2311927 21.8665054,26.9211009 L20.4565901,24.5577982 Z" id="Shape"></path>
                <path d="M15.4577993,5.24036697 L15.4577993,9.22201835 C14.9963724,9.1706422 14.8169287,9.14495413 14.5093108,9.14495413 C11.5356711,9.14495413 9.10036276,11.9192661 9.10036276,14.9247706 C9.10036276,15.4642202 9.15163241,16.8513761 9.30544135,16.8513761 L5.28077388,16.8513761 C6.0241838,21.0899083 9.8694075,24.3009174 14.4836759,24.3009174 C19.6362757,24.3009174 23.8660218,19.933945 23.8660218,14.7706422 C23.8403869,9.86422018 20.1489722,5.70275229 15.4577993,5.24036697 Z" id="Shape"></path>
            </g>
            <g id="Group">
                <g transform="translate(107.666264, 0.256881)" id="Shape">
                    <path d="M7.30592503,5.93394495 C7.15211608,6.55045872 6.97267231,7.16697248 6.81886336,7.80917431 C6.66505441,8.47706422 6.51124547,9.14495413 6.35743652,9.81284404 L6.30616687,9.88990826 C5.89600967,10.0697248 5.17823458,10.4036697 3.947763,10.4036697 C3.02490931,10.4036697 2.0764208,10.2495413 1.33301088,9.68440367 C0.153808948,8.81100917 -5.1159077e-13,7.39816514 -5.1159077e-13,6.70458716 C-5.1159077e-13,5.36880734 0.563966143,3.6733945 1.84570738,2.38899083 C2.40967352,1.82385321 3.58887545,1.10458716 5.28077388,1.10458716 C6.69068924,1.10458716 7.33155985,1.51559633 7.84425635,1.84954128 L7.86989117,1.97798165 L7.63917775,2.64587156 L7.53663845,2.67155963 C7.25465538,2.38899083 7.04957678,2.18348624 6.45997582,2.00366972 C6.10108827,1.90091743 5.69093108,1.82385321 5.17823458,1.82385321 C3.92212817,1.82385321 3.05054414,2.38899083 2.66602177,2.69724771 C1.23047158,3.85321101 0.820314389,5.85688073 0.820314389,6.78165138 C0.820314389,7.91192661 1.40991536,9.68440367 3.92212817,9.68440367 C4.51172914,9.68440367 5.07569528,9.58165138 5.6140266,9.37614679 L5.84474002,8.42568807 C6.10108827,7.34678899 6.15235792,7.06422018 6.30616687,5.95963303 L6.38307134,5.90825688 L7.20338573,5.90825688 L7.30592503,5.93394495 Z"></path>
                    <path d="M9.61305925,10.0954128 L9.53615478,10.1724771 L8.79274486,10.1981651 L8.74147521,10.1211009 L9.20290206,8.27155963 L9.48488513,7.01284404 C9.5617896,6.65321101 9.63869407,6.29357798 9.71559855,5.93394495 C9.94631197,4.88073394 9.94631197,4.80366972 10.1001209,3.85321101 L10.1770254,3.77614679 L10.9460701,3.64770642 L10.9973398,3.72477064 L10.7666264,4.62385321 C11.1255139,4.13577982 11.5356711,3.54495413 12.3816203,3.54495413 C12.6892382,3.54495413 12.7917775,3.59633028 12.9455865,3.6733945 L12.9712213,3.77614679 L12.7405079,4.4440367 L12.6123337,4.46972477 C12.4585248,4.39266055 12.3303507,4.3412844 12.1252721,4.3412844 C11.9970979,4.3412844 11.407497,4.3412844 10.8948005,5.11192661 C10.5102781,5.65137615 10.2795647,6.67889908 10.1001209,7.57798165 L9.84377267,8.81100917 L9.61305925,10.0954128 Z"></path>
                    <path d="M18.7390568,8.14311927 C18.5339782,9.1706422 18.4827086,9.37614679 18.3801693,10.0954128 L18.3032648,10.1724771 L17.5854897,10.2238532 L17.5342201,10.146789 L17.688029,9.5559633 C17.3291415,9.81284404 16.6370012,10.3009174 15.6116082,10.3009174 C14.5862152,10.3009174 13.7659008,9.76146789 13.7659008,8.55412844 C13.7659008,8.04036697 13.8684401,7.5266055 14.0991536,6.57614679 L14.3811366,5.31743119 L14.6887545,3.77614679 L14.765659,3.69908257 L15.5347037,3.64770642 L15.5859734,3.72477064 C15.3296252,4.77798165 15.0732769,5.67706422 14.8425635,6.78165138 C14.7912938,7.06422018 14.5862152,7.93761468 14.5862152,8.4 C14.5862152,9.1706422 15.0989117,9.58165138 15.791052,9.58165138 C16.7908102,9.58165138 17.3804111,9.06788991 17.8674728,8.65688073 L18.3032648,6.70458716 C18.6108827,5.26605505 18.6877872,4.93211009 18.8928658,3.75045872 L18.9954051,3.6733945 L19.738815,3.62201835 L19.7900846,3.69908257 L19.0979444,6.60183486 L18.7390568,8.14311927 Z"></path>
                    <path d="M20.9436518,9.2733945 C21.5332527,6.73027523 21.6614268,6.11376147 22.071584,3.85321101 L22.1484885,3.77614679 L22.9175333,3.64770642 L22.9688029,3.72477064 L22.8662636,4.21284404 C23.250786,3.98165138 23.8403869,3.59633028 24.6607013,3.59633028 C26.0449819,3.59633028 26.9678356,4.67522936 26.9678356,6.16513761 C26.9678356,6.70458716 26.8652963,7.16697248 26.7371221,7.50091743 C26.608948,7.83486239 26.2500605,8.88807339 24.9683192,9.60733945 C24.0198307,10.146789 23.0457074,10.1981651 22.4048368,10.1981651 C22.1228537,10.1981651 21.8152358,10.1724771 21.5332527,10.1724771 C21.2512696,11.3027523 21.2,11.6110092 20.9180169,13.0752294 L20.8411125,13.1266055 L20.0720677,13.1266055 L19.9951632,13.0495413 L20.9436518,9.2733945 Z M21.6614268,9.53027523 C21.9690447,9.5559633 22.1484885,9.58165138 22.4048368,9.58165138 C22.6099154,9.58165138 22.8406288,9.5559633 23.0713422,9.53027523 C23.6096735,9.45321101 24.1736397,9.29908257 24.6607013,8.99082569 C25.1221282,8.70825688 26.173156,7.80917431 26.173156,6.24220183 C26.173156,5.83119266 26.1218863,5.42018349 25.8399033,5.06055046 C25.4041112,4.46972477 24.8657799,4.36697248 24.4556227,4.36697248 C24.0711004,4.36697248 23.6096735,4.46972477 23.1738815,4.75229358 C22.9175333,4.90642202 22.814994,5.03486239 22.661185,5.18899083 L21.6614268,9.53027523 Z"></path>
                    <path d="M28.4033857,9.2733945 C28.9929867,6.73027523 29.1211608,6.11376147 29.531318,3.85321101 L29.6082225,3.77614679 L30.3772672,3.64770642 L30.4285369,3.72477064 L30.3259976,4.21284404 C30.71052,3.98165138 31.3001209,3.59633028 32.1204353,3.59633028 C33.5047158,3.59633028 34.4275695,4.67522936 34.4275695,6.16513761 C34.4275695,6.70458716 34.3250302,7.16697248 34.1968561,7.50091743 C34.068682,7.83486239 33.7097944,8.88807339 32.4280532,9.60733945 C31.4795647,10.146789 30.5054414,10.1981651 29.8645707,10.1981651 C29.5825877,10.1981651 29.2749698,10.1724771 28.9929867,10.1724771 C28.7110036,11.3027523 28.659734,11.6110092 28.3777509,13.0752294 L28.3008464,13.1266055 L27.5318017,13.1266055 L27.480532,13.0495413 L28.4033857,9.2733945 Z M29.1211608,9.53027523 C29.4287787,9.5559633 29.6082225,9.58165138 29.8645707,9.58165138 C30.0696493,9.58165138 30.3003628,9.5559633 30.5310762,9.53027523 C31.0694075,9.45321101 31.6333736,9.29908257 32.1204353,8.99082569 C32.5818622,8.70825688 33.63289,7.80917431 33.63289,6.24220183 C33.63289,5.83119266 33.5816203,5.42018349 33.2996372,5.06055046 C32.8638452,4.46972477 32.3255139,4.36697248 31.9153567,4.36697248 C31.5308343,4.36697248 31.0694075,4.46972477 30.6336155,4.75229358 C30.3772672,4.90642202 30.2747279,5.03486239 30.120919,5.18899083 L29.1211608,9.53027523 Z"></path>
                    <path d="M38.3753325,10.3522936 C36.7603386,10.3522936 35.9143894,9.45321101 35.9143894,7.88623853 C35.9143894,6.39633028 36.6577993,3.59633028 39.47763,3.59633028 C41.2207981,3.59633028 41.9129383,4.7266055 41.9129383,6.06238532 C41.9129383,6.49908257 41.8360339,6.93577982 41.7078597,7.39816514 C41.5540508,7.98899083 40.8875453,10.3522936 38.3753325,10.3522936 Z M41.0926239,5.9853211 C41.0926239,4.62385321 40.1954051,4.21284404 39.4519952,4.21284404 C37.0935913,4.21284404 36.7090689,7.2440367 36.7090689,7.91192661 C36.7090689,8.96513761 37.2986699,9.71009174 38.4009674,9.71009174 C38.8367594,9.71009174 39.2725514,9.6587156 39.7339782,9.2733945 C40.5542926,8.60550459 40.8362757,7.47522936 40.938815,7.03853211 C41.0413543,6.70458716 41.0926239,6.34495413 41.0926239,5.9853211 Z"></path>
                    <polygon points="52.628295 10.1211009 52.5513906 10.1724771 51.7054414 10.1724771 50.1673519 10.1724771 47.6551391 10.2238532 47.6038694 10.146789 48.2191052 7.60366972 48.6548972 5.65137615 49.5521161 1.33577982 49.6546554 1.28440367 51.1927449 1.28440367 52.7051995 1.28440367 54.4996372 1.2587156 54.5765417 1.33577982 54.3970979 1.9266055 54.2945586 2.00366972 50.3211608 1.95229358 49.6033857 5.2146789 51.7310762 5.2146789 53.4998791 5.18899083 53.5511487 5.26605505 53.3973398 5.80550459 53.2948005 5.88256881 51.7054414 5.85688073 49.4752116 5.88256881 49.1675937 7.26972477 48.680532 9.53027523 50.4237001 9.53027523 52.8333736 9.47889908 52.8846433 9.5559633"></polygon>
                    <path d="M60.8058041,5.29174312 C60.241838,7.75779817 60.088029,8.50275229 59.8060459,10.1211009 L59.7035067,10.1724771 L59.0113664,10.1981651 L58.9600967,10.1211009 L59.062636,9.6587156 C58.5499395,9.99266055 58.0628779,10.3009174 57.1912938,10.3009174 C55.7557437,10.3009174 54.8585248,9.35045872 54.8585248,7.80917431 C54.8585248,7.03853211 55.114873,5.95963303 55.858283,5.08623853 C56.8580411,3.85321101 58.2423216,3.64770642 59.4471584,3.64770642 C59.7804111,3.64770642 60.0367594,3.6733945 60.3700121,3.69908257 L60.7032648,2.23486239 C60.8827086,1.33577982 60.9339782,1.10458716 61.0365175,0.385321101 L61.113422,0.308256881 L61.9337364,0.179816514 L61.985006,0.256880734 L61.3697703,2.82568807 L60.8058041,5.29174312 Z M60.241838,4.3412844 C59.9854897,4.31559633 59.7804111,4.28990826 59.5240629,4.28990826 C58.5755744,4.28990826 57.5245466,4.49541284 56.7555018,5.2146789 C55.9864571,5.90825688 55.704474,7.03853211 55.704474,7.73211009 C55.704474,8.68256881 56.1915357,9.60733945 57.3707376,9.60733945 C57.9090689,9.60733945 58.4474002,9.40183486 58.7550181,9.22201835 C58.9344619,9.11926606 59.1139057,8.96513761 59.2677146,8.81100917 L60.241838,4.3412844 Z"></path>
                    <path d="M63.010399,10.1211009 L62.9334946,10.1981651 L62.1900846,10.2238532 L62.1131802,10.146789 C62.4464329,8.7853211 62.574607,8.22018349 62.8822249,6.80733945 L63.0616687,5.90825688 C63.2667473,4.98348624 63.3180169,4.7266055 63.4461911,3.87889908 L63.5230955,3.80183486 L64.2921403,3.69908257 L64.3690447,3.77614679 C64.0614268,4.93211009 63.9845224,5.24036697 63.6256348,6.88440367 L63.2923821,8.42568807 L63.010399,10.1211009 Z M64.9073761,1.48990826 L64.8048368,1.59266055 L64.0101572,1.66972477 L63.9332527,1.56697248 L64.1126965,0.796330275 L64.2152358,0.693577982 L64.9842805,0.590825688 L65.0868198,0.667889908 L64.9073761,1.48990826 Z"></path>
                    <path d="M67.8810157,10.0440367 L67.8041112,10.146789 C67.547763,10.1981651 67.3170496,10.2495413 67.0350665,10.2495413 C66.2660218,10.2495413 65.8045949,9.88990826 65.8045949,9.24770642 C65.8045949,9.14495413 65.8045949,9.04220183 65.8302297,8.91376147 C65.8814994,8.37431193 66.3172914,6.73027523 66.4711004,6.06238532 L66.8556227,4.3412844 L65.8302297,4.36697248 L65.7789601,4.28990826 L65.9071342,3.77614679 L66.0096735,3.72477064 L66.9837969,3.75045872 L67.2914148,2.20917431 L67.3683192,2.13211009 L68.137364,1.95229358 L68.1886336,2.0293578 L67.9579202,2.87706422 L67.7528416,3.72477064 L69.1883918,3.69908257 L69.2396614,3.77614679 L69.0858525,4.31559633 L69.008948,4.39266055 L67.6246675,4.36697248 L66.8556227,7.68073394 C66.7787183,7.98899083 66.5992745,8.75963303 66.5992745,9.01651376 C66.5992745,9.45321101 66.8556227,9.60733945 67.2145103,9.60733945 C67.4708585,9.60733945 67.7528416,9.53027523 67.983555,9.42752294 L68.0348247,9.47889908 L67.8810157,10.0440367 Z"></path>
                    <path d="M72.1107618,10.3522936 C70.4957678,10.3522936 69.6498186,9.45321101 69.6498186,7.88623853 C69.6498186,6.39633028 70.3932285,3.59633028 73.2130593,3.59633028 C74.9562273,3.59633028 75.6483676,4.7266055 75.6483676,6.06238532 C75.6483676,6.49908257 75.5714631,6.93577982 75.443289,7.39816514 C75.28948,7.98899083 74.6229746,10.3522936 72.1107618,10.3522936 Z M74.8280532,5.9853211 C74.8280532,4.62385321 73.9308343,4.21284404 73.1874244,4.21284404 C70.8290206,4.21284404 70.4444982,7.2440367 70.4444982,7.91192661 C70.4444982,8.96513761 71.0340992,9.71009174 72.1363966,9.71009174 C72.5721886,9.71009174 73.0079807,9.6587156 73.4694075,9.2733945 C74.2897219,8.60550459 74.571705,7.47522936 74.6742443,7.03853211 C74.7511487,6.70458716 74.8280532,6.34495413 74.8280532,5.9853211 Z"></path>
                    <path d="M77.7504232,10.0954128 L77.6735187,10.1724771 L76.9301088,10.1981651 L76.8788392,10.1211009 L77.340266,8.27155963 L77.6222491,7.01284404 C77.6991536,6.65321101 77.776058,6.29357798 77.8529625,5.93394495 C78.0836759,4.88073394 78.0836759,4.80366972 78.2374849,3.85321101 L78.3143894,3.77614679 L79.0834341,3.64770642 L79.1347037,3.72477064 L78.9039903,4.62385321 C79.2628779,4.13577982 79.6730351,3.54495413 80.5189843,3.54495413 C80.8266022,3.54495413 80.9291415,3.59633028 81.0829504,3.6733945 L81.1085852,3.77614679 L80.8778718,4.4440367 L80.7496977,4.46972477 C80.5958888,4.39266055 80.4677146,4.3412844 80.262636,4.3412844 C80.1344619,4.3412844 79.5192261,4.3412844 79.0321644,5.11192661 C78.6476421,5.65137615 78.4169287,6.67889908 78.2374849,7.57798165 L77.9811366,8.81100917 L77.7504232,10.0954128 Z"></path>
                    <path d="M82.3390568,10.1211009 L82.2621524,10.1981651 L81.5187424,10.2238532 L81.441838,10.146789 C81.7750907,8.7853211 81.9032648,8.22018349 82.2108827,6.80733945 L82.3903265,5.90825688 C82.5954051,4.98348624 82.6466747,4.7266055 82.7748489,3.87889908 L82.8517533,3.80183486 L83.6207981,3.69908257 L83.6977025,3.77614679 C83.3900846,4.93211009 83.3131802,5.24036697 82.9542926,6.88440367 L82.6210399,8.42568807 L82.3390568,10.1211009 Z M84.2616687,1.48990826 L84.1591294,1.59266055 L83.3644498,1.66972477 L83.2875453,1.56697248 L83.4669891,0.796330275 L83.5695284,0.693577982 L84.3385732,0.590825688 L84.4411125,0.667889908 L84.2616687,1.48990826 Z"></path>
                    <path d="M90.5678356,6.29357798 C90.1320435,8.22018349 90.0551391,8.60550459 89.8244256,10.0954128 L89.7475212,10.1724771 L89.0553809,10.1724771 L89.0041112,10.0954128 L89.0810157,9.63302752 C88.7733978,9.83853211 88.2094317,10.2752294 87.2353083,10.2752294 C85.9279323,10.2752294 84.9025393,9.40183486 84.9025393,7.80917431 C84.9025393,6.80733945 85.389601,5.2146789 86.696977,4.36697248 C87.7736397,3.6733945 88.9015719,3.6733945 89.6449819,3.6733945 L91.080532,3.69908257 L91.1318017,3.77614679 L90.5678356,6.29357798 Z M90.2345828,4.36697248 C90.0295042,4.36697248 89.7987908,4.3412844 89.5680774,4.3412844 C88.3376058,4.3412844 87.2096735,4.67522936 86.4662636,5.65137615 C86.0048368,6.24220183 85.7228537,7.1412844 85.7228537,7.80917431 C85.7228537,8.7853211 86.261185,9.63302752 87.3891173,9.63302752 C88.5683192,9.63302752 89.2604595,8.86238532 89.2860943,8.83669725 L90.2345828,4.36697248 Z"></path>
                    <path d="M94.0285369,5.39449541 C93.5158404,7.73211009 93.4133011,8.29724771 93.0800484,10.0954128 L92.9775091,10.1724771 L92.259734,10.1981651 L92.2084643,10.146789 L92.7467956,7.73211009 L93.4645707,4.54678899 C93.9259976,2.51743119 94.0285369,2.00366972 94.2592503,0.359633028 L94.3361548,0.282568807 C94.6694075,0.256880734 94.7719468,0.231192661 95.1308343,0.15412844 L95.2077388,0.231192661 L94.5412334,3.13394495 L94.0285369,5.39449541 Z"></path>
                    <path d="M100.411608,9.71009174 L100.360339,9.78715596 C99.8476421,10.0697248 99.3605804,10.3266055 98.3608222,10.3266055 C96.5663845,10.3266055 95.6435308,9.2733945 95.6435308,7.70642202 C95.6435308,5.93394495 96.6945586,3.5706422 99.1811366,3.5706422 C100.283434,3.5706422 101.462636,4.0587156 101.462636,5.77981651 C101.462636,6.19082569 101.411366,6.49908257 101.308827,6.8587156 L101.231923,6.91009174 C100.360339,6.91009174 99.4887545,6.88440367 98.6171705,6.88440367 C97.8737606,6.88440367 97.23289,6.88440367 96.48948,6.91009174 C96.4638452,7.19266055 96.4125756,7.42385321 96.4125756,7.70642202 C96.4125756,8.96513761 97.1816203,9.6587156 98.4889964,9.6587156 C99.4631197,9.6587156 100.027086,9.24770642 100.565417,8.83669725 L100.667956,8.88807339 L100.411608,9.71009174 Z M100.642322,6.26788991 C100.667956,6.06238532 100.719226,5.85688073 100.719226,5.62568807 C100.719226,5.06055046 100.437243,4.18715596 99.1555018,4.18715596 C98.6171705,4.18715596 97.8993954,4.3412844 97.2841596,5.11192661 C96.9765417,5.49724771 96.8483676,5.83119266 96.6945586,6.24220183 L100.642322,6.24220183 L100.642322,6.26788991 Z"></path>
                </g>
                <g id="Shape">
                    <polygon points="44.9378476 43.9266055 44.5276904 43.5155963 44.5276904 23.3247706 44.9378476 22.9137615 52.1155985 22.9137615 52.5257557 23.3247706 52.5257557 43.5155963 52.1155985 43.9266055"></polygon>
                    <path d="M36.4527207,43.4899083 C35.0171705,44.3119266 33.4534462,44.9541284 31.8128174,45.3651376 C30.3259976,45.7504587 28.7879081,45.9302752 27.1729141,45.9302752 C16.816445,45.9302752 8.40822249,37.5045872 8.40822249,27.1266055 C8.40822249,16.7486239 16.816445,8.32293578 27.1729141,8.32293578 C29.095526,8.32293578 30.9412334,8.60550459 32.7100363,9.14495413 C34.0174123,9.5559633 35.2478839,10.0954128 36.4270859,10.7633028 L36.4270859,10.7633028 L36.8628779,10.7376147 C38.4778718,7.75779817 38.9392987,6.96146789 40.7337364,3.9559633 L40.6311971,3.59633028 C39.041838,2.69724771 37.3755744,1.9266055 35.6067715,1.36146789 C32.9407497,0.488073394 30.120919,0 27.1729141,0 C12.2278114,0 0.102539299,12.1504587 0.102539299,27.1266055 C0.102539299,42.1027523 12.2278114,54.253211 27.1729141,54.253211 C30.0440145,54.253211 32.8382104,53.7908257 35.4273277,52.9688073 C37.2474002,52.3779817 38.9905683,51.6073394 40.6055623,50.6825688 L40.7081016,50.3229358 C38.9136638,47.2917431 38.4778718,46.5211009 36.837243,43.5412844 L36.4527207,43.4899083 Z"></path>
                    <polygon points="44.5276904 18.546789 44.9378476 18.9577982 52.1155985 18.9577982 52.5001209 18.546789 52.5001209 12.1761468 52.1155985 11.7651376 44.9378476 11.7651376 44.5276904 12.1761468"></polygon>
                    <path d="M147.502781,36.4513761 L145.503265,42.0770642 L145.118742,42.4880734 C143.837001,43.1045872 141.196614,44.2862385 136.428537,44.2862385 C129.635308,44.2862385 127.840871,41.7174312 127.123096,40.6642202 C125.636276,38.4807339 125.559371,36.0917431 125.918259,33.5229358 C126.918017,26.4330275 132.532044,17.5963303 142.60653,17.5963303 C144.811125,17.5963303 147.015719,18.0330275 148.476904,18.9834862 C151.706892,21.012844 151.450544,24.5834862 151.168561,26.5614679 C150.860943,28.8220183 150.220073,30.4917431 149.604837,32.0844037 L149.19468,32.4954128 L133.890689,32.4954128 C133.762515,33.0348624 133.634341,33.6513761 133.557437,34.1908257 C133.147279,37.0422018 134.864813,38.6862385 138.761306,38.6862385 C141.606771,38.6862385 144.554776,37.6587156 147.092624,36.066055 L147.502781,36.4513761 Z M143.965175,27.7431193 C144.221524,27.0238532 144.452237,26.3045872 144.554776,25.559633 C144.78549,23.9669725 144.04208,22.3743119 141.734946,22.3743119 C140.914631,22.3743119 139.63289,22.5798165 138.0948,23.8642202 C136.582346,25.1229358 135.890206,26.612844 135.326239,27.8201835 L143.965175,27.7431193 Z"></path>
                    <polygon points="162.165901 18.1614679 162.576058 18.5724771 160.166385 35.5779817 166.036759 25.5853211 169.958888 18.5724771 170.369045 18.1614679 178.674728 18.1614679 179.084885 18.5724771 176.341959 35.9119266 186.288271 18.5724771 186.698428 18.1614679 192.620073 18.1614679 193.03023 18.5724771 177.777509 43.5412844 177.367352 43.9522936 169.266747 43.9522936 168.85659 43.5412844 171.214994 26.253211 161.166143 43.5412844 160.755985 43.9522936 152.886094 43.9522936 152.475937 43.5412844 154.475453 18.546789 154.859976 18.1614679"></polygon>
                    <polygon points="98.104474 18.1614679 91.4650544 18.1614679 91.0548972 18.546789 86.1330109 32.2642202 82.4159613 18.546789 82.0058041 18.1614679 73.5719468 18.1614679 73.1617896 18.546789 82.313422 42.9504587 77.8529625 55.3834862 78.0836759 55.7688073 85.1332527 55.7174312 85.4921403 55.4091743 98.4889964 18.546789"></polygon>
                    <path d="M120.304232,17.5449541 C116.8948,17.5449541 114.408222,19.0862385 112.562515,20.293578 L113.177751,18.546789 L112.767594,18.1357798 L105.25659,18.1357798 L104.846433,18.546789 L95.8486094,43.5155963 L96.2587666,43.9266055 L103.82104,43.9266055 L104.231197,43.5155963 L110.793712,25.1743119 C112.101088,24.3779817 113.357195,23.7100917 114.792745,23.7100917 C116.151391,23.7100917 117.253688,24.6862385 117.022975,26.4073394 C116.869166,27.4605505 116.228295,29.387156 115.895042,30.3633028 L114.126239,35.3211009 L111.05006,43.4899083 L111.460218,43.9009174 L119.073761,43.9009174 L119.483918,43.4899083 L121.585973,37.2990826 L122.688271,33.959633 C123.995647,30.5431193 125.636276,25.9963303 125.943894,23.812844 C126.610399,19.0091743 123.303507,17.5449541 120.304232,17.5449541 Z"></path>
                    <path d="M66.3429262,44.3119266 C58.8319226,44.3119266 58.7293833,39.533945 58.7293833,35.0899083 L58.7293833,23.7357798 L56.4478839,23.7357798 L56.0377267,23.3247706 L56.0377267,18.5211009 L56.4478839,18.1100917 L58.7293833,18.1100917 L58.7293833,11.7394495 L59.1395405,11.3284404 L66.2403869,11.3284404 L66.6505441,11.7394495 L66.6505441,18.1100917 L71.1622733,18.1100917 L71.5724305,18.5211009 L71.5724305,23.3247706 L71.1622733,23.7357798 L66.6505441,23.7357798 L66.6249093,29.9779817 C66.5736397,31.9045872 66.6505441,34.5504587 66.7274486,35.8091743 C66.7787183,36.6568807 66.7018138,38.5834862 69.0858525,38.5834862 C71.4698912,38.5834862 71.7775091,38.146789 71.7775091,38.146789 L72.1620314,38.5577982 L72.1620314,43.1816514 L71.7518742,43.5926606 C71.7775091,43.6183486 69.2140266,44.3119266 66.3429262,44.3119266 Z"></path>
                    <path d="M185.980653,41.4862385 L187.980169,36.8110092 L188.441596,36.6568807 C189.415719,37.3504587 192.671342,38.8917431 194.927207,38.8917431 C198.644256,38.8917431 199.362031,36.759633 199.464571,36.0917431 C199.695284,34.4477064 198.208464,33.6770642 196.64474,32.906422 L195.670617,32.3669725 C193.312213,31.0568807 191.056348,29.9779817 191.59468,26.1761468 C191.774123,24.9688073 193.235308,17.493578 203.822491,17.493578 C206.514148,17.493578 209.000726,18.212844 211.641112,19.6 L211.769287,20.0366972 C210.641354,22.5541284 210.769528,22.066055 209.923579,24.2752294 L209.539057,24.4293578 C209.051995,24.146789 205.847642,22.7082569 203.386699,22.7082569 C200.797582,22.733945 199.490206,24.0183486 199.336397,25.1743119 C199.131318,26.612844 200.900121,27.2293578 202.079323,27.8201835 L203.104716,28.359633 C205.027328,29.412844 208.462394,30.9027523 207.847158,35.1926606 C207.513906,37.5045872 205.36058,44.3119266 194.773398,44.3119266 C189.877146,44.3119266 187.467473,42.8220183 186.057557,41.8972477 L185.980653,41.4862385 Z"></path>
                </g>
            </g>
        </g>
    </g>
</svg>