<?xml version="1.0" encoding="UTF-8"?>
<svg width="191px" height="48px" viewBox="0 0 191 48" version="1.1" xmlns="http://www.w3.org/2000/svg" xmlns:xlink="http://www.w3.org/1999/xlink">
    <!-- Generator: Sketch 50.2 (55047) - http://www.bohemiancoding.com/sketch -->
    <title>scuola-channel-logo-yellow</title>
    <desc>Created with Sketch.</desc>
    <defs></defs>
    <g id="scuola-channel-logo-yellow" stroke="none" stroke-width="1" fill="none" fill-rule="evenodd">
        <path d="M15.7896237,44 C27.6314139,44 34.100057,38.1742523 34.100057,30.319896 C34.100057,25.1183355 31.909065,22.4135241 24.4492588,18.2522757 C20.641106,16.1196359 18.450114,14.5591678 18.450114,12.1144343 C18.450114,9.66970091 20.0672748,8.10923277 22.936431,8.10923277 C25.3882554,8.10923277 26.9010832,9.14954486 28.9355758,12.1144343 C29.9267389,13.6228869 31.1787343,16.1196359 32.5872292,18.7724317 L33.3697263,18.7724317 L34.4130559,8.62938882 C31.909065,7.3810143 27.2662486,6.70481144 23.6145952,6.70481144 C12.3466363,6.70481144 6.4518244,12.3224967 6.4518244,19.8127438 C6.4518244,24.130039 8.12115165,27.5630689 15.059293,31.4642393 C19.4934436,33.9089727 21.5279361,35.4694408 21.5279361,38.0182055 C21.5279361,40.6710013 19.2847777,42.5955787 16.1547891,42.5955787 C13.2334664,42.5955787 11.2511403,41.3472042 9.16448119,37.810143 C7.75598632,35.4694408 6.66049031,33.0247074 5.66932725,30.8920676 L4.8868301,30.8920676 L4,41.8153446 C5.87799316,43.0117035 11.7206385,44 15.7896237,44 Z M53.5059863,38.6944083 C56.1664766,38.6944083 58.5661345,37.3940182 61.3309578,35.053316 L62.0612885,35.6775033 C58.3053022,40.6189857 53.1929875,44 46.5156784,44 C39.1602052,44 35.0912201,40.2548765 35.0912201,33.7529259 C35.0912201,22.5695709 45.4201824,15.2353706 55.1753136,15.2353706 C60.8614595,15.2353706 64.7217788,17.7841352 64.7217788,21.893368 C64.7217788,24.5461638 62.8959521,26.1586476 59.9746294,26.1586476 C56.0621437,26.1586476 54.8623147,24.2340702 54.4449829,18.6163849 C54.2884835,17.2119636 54.3928164,16.6397919 53.7146522,16.6397919 C51.8366591,16.6397919 48.7066705,25.6905072 48.7066705,32.9206762 C48.7066705,37.0819246 50.3238312,38.6944083 53.5059863,38.6944083 Z M80.6325542,25.6905072 L78.754561,34.3250975 C78.4937286,35.573472 78.3893957,35.9895969 78.3893957,36.4057217 C78.3893957,37.029909 78.7023945,37.3420026 79.3283922,37.3420026 C80.1630559,37.3420026 81.2585519,36.5617685 82.041049,35.3654096 L86.1622007,15.9635891 L99.5689852,15.9635891 L95.5521665,35.1573472 C95.2913341,36.4577373 95.1870011,37.029909 95.1870011,37.810143 C95.1870011,38.8504551 95.9694983,39.26658 97.5866591,38.2782835 L98.2126568,37.9141743 L98.786488,38.6423927 C96.0738312,41.4512354 91.7961802,44 87.2055302,44 C83.7103763,44 81.8845496,42.4395319 81.8845496,39.1625488 C81.8845496,38.5383615 81.9888826,37.6020806 82.041049,37.1859558 L81.9367161,37.1859558 C79.2762258,40.5149545 75.5724059,44 70.6165906,44 C66.8084379,44 64.6696123,41.8153446 64.6696123,38.4863459 C64.6696123,36.7698309 64.9826112,35.6775033 65.1912771,34.6892068 L67.4866021,24.8582575 C67.7474344,23.7659298 67.9039339,23.0897269 67.9039339,22.5175553 C67.9039339,21.2691808 67.0692702,20.9570871 65.4521095,21.9973992 L64.9826112,22.3094928 L64.4087799,21.5812744 C67.6431015,18.0962289 71.7642531,15.3394018 76.3027366,15.3394018 C79.4327252,15.3394018 81.4672178,17.159948 81.4672178,20.4889467 C81.4672178,21.893368 81.2063854,23.0377113 80.6325542,25.6905072 Z M113.8626,42.5435631 C114.905929,42.5435631 115.792759,41.2951886 116.52309,38.7984395 C118.192417,33.076723 119.653079,22.8816645 119.653079,20.1248375 C119.653079,17.6280884 119.392246,16.6918075 118.29675,16.6918075 C117.40992,16.6918075 116.783922,17.6280884 116.001425,19.8647594 C114.175599,25.3784135 112.662771,36.4577373 112.662771,39.2145644 C112.662771,41.3472042 112.81927,42.5435631 113.8626,42.5435631 Z M113.914766,44 C105.307298,44 99.6733181,39.1105332 99.6733181,31.7763329 C99.6733181,21.63329 107.759122,15.2353706 118.192417,15.2353706 C127.791049,15.2353706 132.851197,20.5409623 132.851197,27.4070221 C132.851197,37.6540962 124.921893,44 113.914766,44 Z M134.624857,33.9089727 L138.954675,11.2301691 C139.528506,8.31729519 139.215507,7.74512354 137.441847,6.39271782 L136.815849,5.92457737 L136.972349,5.24837451 L153.456956,4 L153.97862,4.46814044 L153.509122,6.28868661 L152.570125,10.710013 L147.718643,36.1976593 C147.562144,36.9778934 147.457811,37.4460338 147.457811,38.0182055 C147.457811,39.006502 148.65764,38.9024707 150.2748,37.9141743 L150.900798,37.550065 L151.422463,38.3823147 C148.083808,41.503251 144.06699,44 139.215507,44 C135.407355,44 133.84236,42.283485 133.84236,39.8387516 C133.84236,38.5383615 133.946693,37.4980494 134.624857,33.9089727 Z M166.707241,37.810143 C167.541904,37.810143 168.167902,37.2379714 168.741733,36.2496749 L172.654219,17.680104 C172.497719,16.89987 172.080388,16.5357607 171.45439,16.5357607 C168.741733,16.5357607 165.194413,28.2912874 165.194413,35.2613784 C165.194413,36.8738622 165.663911,37.810143 166.707241,37.810143 Z M168.741733,38.2262679 L168.585234,38.2262679 C166.498575,41.243173 163.264253,44 158.777936,44 C154.343786,44 151.787628,40.8790637 151.787628,36.0416125 C151.787628,24.0780234 160.134265,15.0793238 171.819555,15.0793238 C175.732041,15.0793238 178.86203,16.0156047 181.105188,17.8361508 L181.313854,17.8361508 L186.374002,15.3394018 L187,15.5474642 C186.739168,16.3276983 186.426169,17.159948 186.165336,18.0962289 C185.695838,19.7087126 185.06984,21.9973992 184.496009,24.7022107 L182.252851,36.1456437 C182.096351,36.7178153 182.044185,37.289987 182.044185,37.7061118 C182.044185,38.7464239 182.722349,39.2145644 184.443843,38.2262679 L185.017674,37.9141743 L185.539339,38.6944083 C181.835519,42.1794538 178.183865,44 173.854048,44 C170.515393,44 168.689567,42.1794538 168.689567,39.26658 C168.689567,38.8504551 168.689567,38.6944083 168.741733,38.2262679 Z" id="brand-channel" fill="#FFBE26"></path>
    </g>
</svg>